<?xml version="1.0" encoding="UTF-8" standalone="no"?>
<!-- Created with Inkscape (http://www.inkscape.org/) -->

<svg
   width="210mm"
   height="297mm"
   viewBox="0 0 210 297"
   version="1.1"
   id="svg5411"
   inkscape:version="1.2.2 (732a01da63, 2022-12-09)"
   sodipodi:docname="IC1_Acc-vs-L.svg"
   xmlns:inkscape="http://www.inkscape.org/namespaces/inkscape"
   xmlns:sodipodi="http://sodipodi.sourceforge.net/DTD/sodipodi-0.dtd"
   xmlns="http://www.w3.org/2000/svg"
   xmlns:svg="http://www.w3.org/2000/svg">
  <sodipodi:namedview
     id="namedview5413"
     pagecolor="#ffffff"
     bordercolor="#000000"
     borderopacity="0.25"
     inkscape:showpageshadow="2"
     inkscape:pageopacity="0.0"
     inkscape:pagecheckerboard="0"
     inkscape:deskcolor="#d1d1d1"
     inkscape:document-units="mm"
     showgrid="false"
     inkscape:zoom="1.4912879"
     inkscape:cx="359.42088"
     inkscape:cy="271.57734"
     inkscape:window-width="1920"
     inkscape:window-height="1017"
     inkscape:window-x="1912"
     inkscape:window-y="-8"
     inkscape:window-maximized="1"
     inkscape:current-layer="layer1" />
  <defs
     id="defs5408">
    <clipPath
       clipPathUnits="userSpaceOnUse"
       id="clipEmfPath1">
      <path
         d="M 77.755961,22.238845 L 570.53037,22.238845 L 570.53037,287.82505 L 77.755961,287.82505 z"
         id="path5415" />
    </clipPath>
    <clipPath
       clipPathUnits="userSpaceOnUse"
       id="clipEmfPath2">
      <path
         d="M 0.47997507,0.47997507 L 607.48845,0.47997507 L 607.48845,341.58226 L 0.47997507,341.58226 z"
         id="path5418" />
    </clipPath>
    <pattern
       id="EMFhbasepattern"
       patternUnits="userSpaceOnUse"
       width="6"
       height="6"
       x="0"
       y="0" />
  </defs>
  <g
     inkscape:label="Layer 1"
     inkscape:groupmode="layer"
     id="layer1">
    <path
       style="fill:#ffffff;fill-opacity:1;fill-rule:evenodd;stroke:none;stroke-width:0.264583"
       d="M 22.362635,8.5720668 V 98.568055 H 182.71298 V 8.5720668 Z"
       id="path5424" />
    <path
       style="fill:none;stroke:#000000;stroke-width:0.253987px;stroke-linecap:butt;stroke-linejoin:round;stroke-miterlimit:4;stroke-dasharray:none;stroke-opacity:1"
       d="M 42.723911,84.217795 V 14.202108"
       id="path5426" />
    <path
       style="fill:none;stroke:#000000;stroke-width:0.253987px;stroke-linecap:butt;stroke-linejoin:round;stroke-miterlimit:4;stroke-dasharray:none;stroke-opacity:1"
       d="M 42.723911,84.217795 H 172.80749"
       id="path5428" />
    <path
       style="fill:#5b9bd5;fill-opacity:1;fill-rule:nonzero;stroke:#5b9bd5;stroke-width:0.019999px;stroke-linecap:butt;stroke-linejoin:round;stroke-miterlimit:4;stroke-dasharray:none;stroke-opacity:1"
       clip-path="url(#clipEmfPath1)"
       d="m 77.755961,73.676173 h 6.239676 c 0.57997,0 1.039946,0.479975 1.039946,1.039946 0,0.57997 -0.459976,1.039946 -1.039946,1.039946 h -6.239676 c -0.559971,0 -1.039946,-0.459976 -1.039946,-1.039946 0,-0.559971 0.479975,-1.039946 1.039946,-1.039946 z m 14.559244,0 h 6.239676 c 0.57997,0 1.039946,0.479975 1.039946,1.039946 0,0.57997 -0.459976,1.039946 -1.039946,1.039946 h -6.239676 c -0.559971,0 -1.039946,-0.459976 -1.039946,-1.039946 0,-0.559971 0.479975,-1.039946 1.039946,-1.039946 z m 14.559245,0 h 6.23967 c 0.57997,0 1.03995,0.479975 1.03995,1.039946 0,0.57997 -0.45998,1.039946 -1.03995,1.039946 h -6.23967 c -0.55997,0 -1.03995,-0.459976 -1.03995,-1.039946 0,-0.559971 0.47998,-1.039946 1.03995,-1.039946 z m 14.55924,0 h 6.23968 c 0.57997,0 1.03994,0.479975 1.03994,1.039946 0,0.57997 -0.45997,1.039946 -1.03994,1.039946 h -6.23968 c -0.55997,0 -1.03994,-0.459976 -1.03994,-1.039946 0,-0.559971 0.47997,-1.039946 1.03994,-1.039946 z m 14.55925,0 h 6.23967 c 0.57997,0 1.03995,0.479975 1.03995,1.039946 0,0.57997 -0.45998,1.039946 -1.03995,1.039946 h -6.23967 c -0.55997,0 -1.03995,-0.459976 -1.03995,-1.039946 0,-0.559971 0.47998,-1.039946 1.03995,-1.039946 z m 14.55924,0 h 6.23968 c 0.57997,0 1.03994,0.479975 1.03994,1.039946 0,0.57997 -0.45997,1.039946 -1.03994,1.039946 h -6.23968 c -0.55997,0 -1.03995,-0.459976 -1.03995,-1.039946 0,-0.559971 0.47998,-1.039946 1.03995,-1.039946 z m 14.55924,0 h 6.23968 c 0.57997,0 1.03995,0.479975 1.03995,1.039946 0,0.57997 -0.45998,1.039946 -1.03995,1.039946 h -6.23968 c -0.55997,0 -1.03994,-0.459976 -1.03994,-1.039946 0,-0.559971 0.47997,-1.039946 1.03994,-1.039946 z m 14.55925,0 h 6.23967 c 0.57997,0 1.03995,0.479975 1.03995,1.039946 0,0.57997 -0.45998,1.039946 -1.03995,1.039946 h -6.23967 c -0.55997,0 -1.03995,-0.459976 -1.03995,-1.039946 0,-0.559971 0.47998,-1.039946 1.03995,-1.039946 z m 14.55924,0 h 6.23968 c 0.57997,0 1.03994,0.479975 1.03994,1.039946 0,0.57997 -0.45997,1.039946 -1.03994,1.039946 h -6.23968 c -0.55997,0 -1.03994,-0.459976 -1.03994,-1.039946 0,-0.559971 0.47997,-1.039946 1.03994,-1.039946 z m 14.55925,0 h 6.23967 c 0.57997,0 1.03995,0.479975 1.03995,1.039946 0,0.57997 -0.45998,1.039946 -1.03995,1.039946 h -6.23967 c -0.55998,0 -1.03995,-0.459976 -1.03995,-1.039946 0,-0.559971 0.47997,-1.039946 1.03995,-1.039946 z m 14.55924,0 h 6.23968 c 0.57997,0 1.03994,0.479975 1.03994,1.039946 0,0.57997 -0.45997,1.039946 -1.03994,1.039946 h -6.23968 c -0.55997,0 -1.03995,-0.459976 -1.03995,-1.039946 0,-0.559971 0.47998,-1.039946 1.03995,-1.039946 z m 14.55924,0 h 6.23968 c 0.57997,0 1.03995,0.479975 1.03995,1.039946 0,0.57997 -0.45998,1.039946 -1.03995,1.039946 h -6.23968 c -0.55997,0 -1.03994,-0.459976 -1.03994,-1.039946 0,-0.559971 0.47997,-1.039946 1.03994,-1.039946 z m 14.55925,0 h 6.23967 c 0.57997,0 1.03995,0.479975 1.03995,1.039946 0,0.57997 -0.45998,1.039946 -1.03995,1.039946 h -6.23967 c -0.55997,0 -1.03995,-0.459976 -1.03995,-1.039946 0,-0.559971 0.47998,-1.039946 1.03995,-1.039946 z m 14.55924,0 h 6.23968 c 0.57997,0 1.03994,0.479975 1.03994,1.039946 0,0.57997 -0.45997,1.039946 -1.03994,1.039946 h -6.23968 c -0.55997,0 -1.03995,-0.459976 -1.03995,-1.039946 0,-0.559971 0.47998,-1.039946 1.03995,-1.039946 z m 14.55924,0 h 6.23968 c 0.57997,0 1.03995,0.479975 1.03995,1.039946 0,0.57997 -0.45998,1.039946 -1.03995,1.039946 h -6.23968 c -0.55997,0 -1.03994,-0.459976 -1.03994,-1.039946 0,-0.559971 0.47997,-1.039946 1.03994,-1.039946 z m 14.55925,0 h 6.23967 c 0.57997,0 1.03995,0.479975 1.03995,1.039946 0,0.57997 -0.45998,1.039946 -1.03995,1.039946 h -6.23967 c -0.55997,0 -1.03995,-0.459976 -1.03995,-1.039946 0,-0.559971 0.47998,-1.039946 1.03995,-1.039946 z m 14.55924,0 h 6.23968 c 0.57997,0 1.03994,0.479975 1.03994,1.039946 0,0.57997 -0.45997,1.039946 -1.03994,1.039946 h -6.23968 c -0.55997,0 -1.03994,-0.459976 -1.03994,-1.039946 0,-0.559971 0.47997,-1.039946 1.03994,-1.039946 z m 14.55925,0 h 6.23967 c 0.57997,0 1.03995,0.479975 1.03995,1.039946 0,0.57997 -0.45998,1.039946 -1.03995,1.039946 h -6.23967 c -0.55997,0 -1.03995,-0.459976 -1.03995,-1.039946 0,-0.559971 0.47998,-1.039946 1.03995,-1.039946 z m 14.55924,0 h 6.23968 c 0.57997,0 1.03994,0.479975 1.03994,1.039946 0,0.57997 -0.45997,1.039946 -1.03994,1.039946 h -6.23968 c -0.55997,0 -1.03995,-0.459976 -1.03995,-1.039946 0,-0.559971 0.47998,-1.039946 1.03995,-1.039946 z m 14.55924,0 h 6.23968 c 0.57997,0 1.03995,0.479975 1.03995,1.039946 0,0.57997 -0.45998,1.039946 -1.03995,1.039946 h -6.23968 c -0.55997,0 -1.03994,-0.459976 -1.03994,-1.039946 0,-0.559971 0.47997,-1.039946 1.03994,-1.039946 z m 14.55925,0 h 6.23967 c 0.57997,0 1.03995,0.479975 1.03995,1.039946 0,0.57997 -0.45998,1.039946 -1.03995,1.039946 h -6.23967 c -0.55997,0 -1.03995,-0.459976 -1.03995,-1.039946 0,-0.559971 0.47998,-1.039946 1.03995,-1.039946 z m 14.55924,0 h 6.23968 c 0.57997,0 1.03994,0.479975 1.03994,1.039946 0,0.57997 -0.45997,1.039946 -1.03994,1.039946 h -6.23968 c -0.55997,0 -1.03994,-0.459976 -1.03994,-1.039946 0,-0.559971 0.47997,-1.039946 1.03994,-1.039946 z m 14.55924,0 h 6.23968 c 0.57997,0 1.03995,0.479975 1.03995,1.039946 0,0.57997 -0.45998,1.039946 -1.03995,1.039946 h -6.23968 c -0.55997,0 -1.03994,-0.459976 -1.03994,-1.039946 0,-0.559971 0.47997,-1.039946 1.03994,-1.039946 z m 14.55925,0 h 6.23967 c 0.57997,0 1.03995,0.479975 1.03995,1.039946 0,0.57997 -0.45998,1.039946 -1.03995,1.039946 h -6.23967 c -0.55997,0 -1.03995,-0.459976 -1.03995,-1.039946 0,-0.559971 0.47998,-1.039946 1.03995,-1.039946 z m 14.55924,0 h 6.23968 c 0.57997,0 1.03994,0.479975 1.03994,1.039946 0,0.57997 -0.45997,1.039946 -1.03994,1.039946 h -6.23968 c -0.55997,0 -1.03994,-0.459976 -1.03994,-1.039946 0,-0.559971 0.47997,-1.039946 1.03994,-1.039946 z m 14.55925,0 h 6.23967 c 0.57997,0 1.03995,0.479975 1.03995,1.039946 0,0.57997 -0.45998,1.039946 -1.03995,1.039946 h -6.23967 c -0.55997,0 -1.03995,-0.459976 -1.03995,-1.039946 0,-0.559971 0.47998,-1.039946 1.03995,-1.039946 z m 14.55924,0 h 6.23968 c 0.57997,0 1.03994,0.479975 1.03994,1.039946 0,0.57997 -0.45997,1.039946 -1.03994,1.039946 h -6.23968 c -0.55997,0 -1.03995,-0.459976 -1.03995,-1.039946 0,-0.559971 0.47998,-1.039946 1.03995,-1.039946 z m 14.55924,0 h 6.23968 c 0.57997,0 1.03995,0.479975 1.03995,1.039946 0,0.57997 -0.45998,1.039946 -1.03995,1.039946 h -6.23968 c -0.55997,0 -1.03994,-0.459976 -1.03994,-1.039946 0,-0.559971 0.47997,-1.039946 1.03994,-1.039946 z m 14.55925,0 h 6.23967 c 0.57997,0 1.03995,0.479975 1.03995,1.039946 0,0.57997 -0.45998,1.039946 -1.03995,1.039946 h -6.23967 c -0.55997,0 -1.03995,-0.459976 -1.03995,-1.039946 0,-0.559971 0.47998,-1.039946 1.03995,-1.039946 z m 14.55924,0 h 6.23968 c 0.57997,0 1.03994,0.479975 1.03994,1.039946 0,0.57997 -0.45997,1.039946 -1.03994,1.039946 h -6.23968 c -0.55997,0 -1.03994,-0.459976 -1.03994,-1.039946 0,-0.559971 0.47997,-1.039946 1.03994,-1.039946 z m 14.55925,0 h 6.23967 c 0.57997,0 1.03995,0.479975 1.03995,1.039946 0,0.57997 -0.45998,1.039946 -1.03995,1.039946 h -6.23967 c -0.55998,0 -1.03995,-0.459976 -1.03995,-1.039946 0,-0.559971 0.47997,-1.039946 1.03995,-1.039946 z m 14.55924,0 h 6.23968 c 0.57996,0 1.03994,0.479975 1.03994,1.039946 0,0.57997 -0.45998,1.039946 -1.03994,1.039946 h -6.23968 c -0.55997,0 -1.03995,-0.459976 -1.03995,-1.039946 0,-0.559971 0.47998,-1.039946 1.03995,-1.039946 z m 14.55924,0 h 6.23968 c 0.57997,0 1.03994,0.479975 1.03994,1.039946 0,0.57997 -0.45997,1.039946 -1.03994,1.039946 h -6.23968 c -0.55997,0 -1.03994,-0.459976 -1.03994,-1.039946 0,-0.559971 0.47997,-1.039946 1.03994,-1.039946 z m 14.55925,0 h 6.23967 c 0.57997,0 1.03995,0.479975 1.03995,1.039946 0,0.57997 -0.45998,1.039946 -1.03995,1.039946 h -6.23967 c -0.55997,0 -1.03995,-0.459976 -1.03995,-1.039946 0,-0.559971 0.47998,-1.039946 1.03995,-1.039946 z"
       id="path5430"
       transform="matrix(0.26458333,0,0,0.26458333,22.129814,8.3392458)" />
    <path
       style="fill:#ed7d31;fill-opacity:1;fill-rule:nonzero;stroke:#ed7d31;stroke-width:0.019999px;stroke-linecap:butt;stroke-linejoin:round;stroke-miterlimit:4;stroke-dasharray:none;stroke-opacity:1"
       clip-path="url(#clipEmfPath1)"
       d="m 77.755961,113.5141 h 6.239676 c 0.57997,0 1.039946,0.47998 1.039946,1.03995 0,0.57997 -0.459976,1.03995 -1.039946,1.03995 h -6.239676 c -0.559971,0 -1.039946,-0.45998 -1.039946,-1.03995 0,-0.55997 0.479975,-1.03995 1.039946,-1.03995 z m 14.559244,0 h 6.239676 c 0.57997,0 1.039946,0.47998 1.039946,1.03995 0,0.57997 -0.459976,1.03995 -1.039946,1.03995 h -6.239676 c -0.559971,0 -1.039946,-0.45998 -1.039946,-1.03995 0,-0.55997 0.479975,-1.03995 1.039946,-1.03995 z m 14.559245,0 h 6.23967 c 0.57997,0 1.03995,0.47998 1.03995,1.03995 0,0.57997 -0.45998,1.03995 -1.03995,1.03995 h -6.23967 c -0.55997,0 -1.03995,-0.45998 -1.03995,-1.03995 0,-0.55997 0.47998,-1.03995 1.03995,-1.03995 z m 14.55924,0 h 6.23968 c 0.57997,0 1.03994,0.47998 1.03994,1.03995 0,0.57997 -0.45997,1.03995 -1.03994,1.03995 h -6.23968 c -0.55997,0 -1.03994,-0.45998 -1.03994,-1.03995 0,-0.55997 0.47997,-1.03995 1.03994,-1.03995 z m 14.55925,0 h 6.23967 c 0.57997,0 1.03995,0.47998 1.03995,1.03995 0,0.57997 -0.45998,1.03995 -1.03995,1.03995 h -6.23967 c -0.55997,0 -1.03995,-0.45998 -1.03995,-1.03995 0,-0.55997 0.47998,-1.03995 1.03995,-1.03995 z m 14.55924,0 h 6.23968 c 0.57997,0 1.03994,0.47998 1.03994,1.03995 0,0.57997 -0.45997,1.03995 -1.03994,1.03995 h -6.23968 c -0.55997,0 -1.03995,-0.45998 -1.03995,-1.03995 0,-0.55997 0.47998,-1.03995 1.03995,-1.03995 z m 14.55924,0 h 6.23968 c 0.57997,0 1.03995,0.47998 1.03995,1.03995 0,0.57997 -0.45998,1.03995 -1.03995,1.03995 h -6.23968 c -0.55997,0 -1.03994,-0.45998 -1.03994,-1.03995 0,-0.55997 0.47997,-1.03995 1.03994,-1.03995 z m 14.55925,0 h 6.23967 c 0.57997,0 1.03995,0.47998 1.03995,1.03995 0,0.57997 -0.45998,1.03995 -1.03995,1.03995 h -6.23967 c -0.55997,0 -1.03995,-0.45998 -1.03995,-1.03995 0,-0.55997 0.47998,-1.03995 1.03995,-1.03995 z m 14.55924,0 h 6.23968 c 0.57997,0 1.03994,0.47998 1.03994,1.03995 0,0.57997 -0.45997,1.03995 -1.03994,1.03995 h -6.23968 c -0.55997,0 -1.03994,-0.45998 -1.03994,-1.03995 0,-0.55997 0.47997,-1.03995 1.03994,-1.03995 z m 14.55925,0 h 6.23967 c 0.57997,0 1.03995,0.47998 1.03995,1.03995 0,0.57997 -0.45998,1.03995 -1.03995,1.03995 h -6.23967 c -0.55998,0 -1.03995,-0.45998 -1.03995,-1.03995 0,-0.55997 0.47997,-1.03995 1.03995,-1.03995 z m 14.55924,0 h 6.23968 c 0.57997,0 1.03994,0.47998 1.03994,1.03995 0,0.57997 -0.45997,1.03995 -1.03994,1.03995 h -6.23968 c -0.55997,0 -1.03995,-0.45998 -1.03995,-1.03995 0,-0.55997 0.47998,-1.03995 1.03995,-1.03995 z m 14.55924,0 h 6.23968 c 0.57997,0 1.03995,0.47998 1.03995,1.03995 0,0.57997 -0.45998,1.03995 -1.03995,1.03995 h -6.23968 c -0.55997,0 -1.03994,-0.45998 -1.03994,-1.03995 0,-0.55997 0.47997,-1.03995 1.03994,-1.03995 z m 14.55925,0 h 6.23967 c 0.57997,0 1.03995,0.47998 1.03995,1.03995 0,0.57997 -0.45998,1.03995 -1.03995,1.03995 h -6.23967 c -0.55997,0 -1.03995,-0.45998 -1.03995,-1.03995 0,-0.55997 0.47998,-1.03995 1.03995,-1.03995 z m 14.55924,0 h 6.23968 c 0.57997,0 1.03994,0.47998 1.03994,1.03995 0,0.57997 -0.45997,1.03995 -1.03994,1.03995 h -6.23968 c -0.55997,0 -1.03995,-0.45998 -1.03995,-1.03995 0,-0.55997 0.47998,-1.03995 1.03995,-1.03995 z m 14.55924,0 h 6.23968 c 0.57997,0 1.03995,0.47998 1.03995,1.03995 0,0.57997 -0.45998,1.03995 -1.03995,1.03995 h -6.23968 c -0.55997,0 -1.03994,-0.45998 -1.03994,-1.03995 0,-0.55997 0.47997,-1.03995 1.03994,-1.03995 z m 14.55925,0 h 6.23967 c 0.57997,0 1.03995,0.47998 1.03995,1.03995 0,0.57997 -0.45998,1.03995 -1.03995,1.03995 h -6.23967 c -0.55997,0 -1.03995,-0.45998 -1.03995,-1.03995 0,-0.55997 0.47998,-1.03995 1.03995,-1.03995 z m 14.55924,0 h 6.23968 c 0.57997,0 1.03994,0.47998 1.03994,1.03995 0,0.57997 -0.45997,1.03995 -1.03994,1.03995 h -6.23968 c -0.55997,0 -1.03994,-0.45998 -1.03994,-1.03995 0,-0.55997 0.47997,-1.03995 1.03994,-1.03995 z m 14.55925,0 h 6.23967 c 0.57997,0 1.03995,0.47998 1.03995,1.03995 0,0.57997 -0.45998,1.03995 -1.03995,1.03995 h -6.23967 c -0.55997,0 -1.03995,-0.45998 -1.03995,-1.03995 0,-0.55997 0.47998,-1.03995 1.03995,-1.03995 z m 14.55924,0 h 6.23968 c 0.57997,0 1.03994,0.47998 1.03994,1.03995 0,0.57997 -0.45997,1.03995 -1.03994,1.03995 h -6.23968 c -0.55997,0 -1.03995,-0.45998 -1.03995,-1.03995 0,-0.55997 0.47998,-1.03995 1.03995,-1.03995 z m 14.55924,0 h 6.23968 c 0.57997,0 1.03995,0.47998 1.03995,1.03995 0,0.57997 -0.45998,1.03995 -1.03995,1.03995 h -6.23968 c -0.55997,0 -1.03994,-0.45998 -1.03994,-1.03995 0,-0.55997 0.47997,-1.03995 1.03994,-1.03995 z m 14.55925,0 h 6.23967 c 0.57997,0 1.03995,0.47998 1.03995,1.03995 0,0.57997 -0.45998,1.03995 -1.03995,1.03995 h -6.23967 c -0.55997,0 -1.03995,-0.45998 -1.03995,-1.03995 0,-0.55997 0.47998,-1.03995 1.03995,-1.03995 z m 14.55924,0 h 6.23968 c 0.57997,0 1.03994,0.47998 1.03994,1.03995 0,0.57997 -0.45997,1.03995 -1.03994,1.03995 h -6.23968 c -0.55997,0 -1.03994,-0.45998 -1.03994,-1.03995 0,-0.55997 0.47997,-1.03995 1.03994,-1.03995 z m 14.55924,0 h 6.23968 c 0.57997,0 1.03995,0.47998 1.03995,1.03995 0,0.57997 -0.45998,1.03995 -1.03995,1.03995 h -6.23968 c -0.55997,0 -1.03994,-0.45998 -1.03994,-1.03995 0,-0.55997 0.47997,-1.03995 1.03994,-1.03995 z m 14.55925,0 h 6.23967 c 0.57997,0 1.03995,0.47998 1.03995,1.03995 0,0.57997 -0.45998,1.03995 -1.03995,1.03995 h -6.23967 c -0.55997,0 -1.03995,-0.45998 -1.03995,-1.03995 0,-0.55997 0.47998,-1.03995 1.03995,-1.03995 z m 14.55924,0 h 6.23968 c 0.57997,0 1.03994,0.47998 1.03994,1.03995 0,0.57997 -0.45997,1.03995 -1.03994,1.03995 h -6.23968 c -0.55997,0 -1.03994,-0.45998 -1.03994,-1.03995 0,-0.55997 0.47997,-1.03995 1.03994,-1.03995 z m 14.55925,0 h 6.23967 c 0.57997,0 1.03995,0.47998 1.03995,1.03995 0,0.57997 -0.45998,1.03995 -1.03995,1.03995 h -6.23967 c -0.55997,0 -1.03995,-0.45998 -1.03995,-1.03995 0,-0.55997 0.47998,-1.03995 1.03995,-1.03995 z m 14.55924,0 h 6.23968 c 0.57997,0 1.03994,0.47998 1.03994,1.03995 0,0.57997 -0.45997,1.03995 -1.03994,1.03995 h -6.23968 c -0.55997,0 -1.03995,-0.45998 -1.03995,-1.03995 0,-0.55997 0.47998,-1.03995 1.03995,-1.03995 z m 14.55924,0 h 6.23968 c 0.57997,0 1.03995,0.47998 1.03995,1.03995 0,0.57997 -0.45998,1.03995 -1.03995,1.03995 h -6.23968 c -0.55997,0 -1.03994,-0.45998 -1.03994,-1.03995 0,-0.55997 0.47997,-1.03995 1.03994,-1.03995 z m 14.55925,0 h 6.23967 c 0.57997,0 1.03995,0.47998 1.03995,1.03995 0,0.57997 -0.45998,1.03995 -1.03995,1.03995 h -6.23967 c -0.55997,0 -1.03995,-0.45998 -1.03995,-1.03995 0,-0.55997 0.47998,-1.03995 1.03995,-1.03995 z m 14.55924,0 h 6.23968 c 0.57997,0 1.03994,0.47998 1.03994,1.03995 0,0.57997 -0.45997,1.03995 -1.03994,1.03995 h -6.23968 c -0.55997,0 -1.03994,-0.45998 -1.03994,-1.03995 0,-0.55997 0.47997,-1.03995 1.03994,-1.03995 z m 14.55925,0 h 6.23967 c 0.57997,0 1.03995,0.47998 1.03995,1.03995 0,0.57997 -0.45998,1.03995 -1.03995,1.03995 h -6.23967 c -0.55998,0 -1.03995,-0.45998 -1.03995,-1.03995 0,-0.55997 0.47997,-1.03995 1.03995,-1.03995 z m 14.55924,0 h 6.23968 c 0.57996,0 1.03994,0.47998 1.03994,1.03995 0,0.57997 -0.45998,1.03995 -1.03994,1.03995 h -6.23968 c -0.55997,0 -1.03995,-0.45998 -1.03995,-1.03995 0,-0.55997 0.47998,-1.03995 1.03995,-1.03995 z m 14.55924,0 h 6.23968 c 0.57997,0 1.03994,0.47998 1.03994,1.03995 0,0.57997 -0.45997,1.03995 -1.03994,1.03995 h -6.23968 c -0.55997,0 -1.03994,-0.45998 -1.03994,-1.03995 0,-0.55997 0.47997,-1.03995 1.03994,-1.03995 z m 14.55925,0 h 6.23967 c 0.57997,0 1.03995,0.47998 1.03995,1.03995 0,0.57997 -0.45998,1.03995 -1.03995,1.03995 h -6.23967 c -0.55997,0 -1.03995,-0.45998 -1.03995,-1.03995 0,-0.55997 0.47998,-1.03995 1.03995,-1.03995 z"
       id="path5432"
       transform="matrix(0.26458333,0,0,0.26458333,22.129814,8.3392458)" />
    <path
       style="fill:none;stroke:#a5a5a5;stroke-width:2.07989px;stroke-linecap:round;stroke-linejoin:round;stroke-miterlimit:4;stroke-dasharray:none;stroke-opacity:1"
       clip-path="url(#clipEmfPath1)"
       d="m 82.715704,88.475405 44.317696,47.837515 49.11745,46.07761 49.11745,-9.91949 49.27744,57.91699 49.11745,-31.99833 122.87362,-31.19838 122.87362,67.51649"
       id="path5434"
       transform="matrix(0.26458333,0,0,0.26458333,22.129814,8.3392458)" />
    <path
       style="fill:#a5a5a5;fill-opacity:1;fill-rule:nonzero;stroke:none;stroke-width:0.264583"
       d="m 44.935713,31.772175 c 0,0.489454 -0.396855,0.888953 -0.888954,0.888953 -0.489454,0 -0.888954,-0.399499 -0.888954,-0.888953 0,-0.4921 0.3995,-0.888954 0.888954,-0.888954 0.492099,0 0.888954,0.396854 0.888954,0.888954 z"
       id="path5436" />
    <path
       style="fill:none;stroke:#a5a5a5;stroke-width:0.253987px;stroke-linecap:butt;stroke-linejoin:round;stroke-miterlimit:4;stroke-dasharray:none;stroke-opacity:1"
       d="m 44.935713,31.772175 c 0,0.489454 -0.396855,0.888953 -0.888954,0.888953 -0.489454,0 -0.888954,-0.399499 -0.888954,-0.888953 0,-0.4921 0.3995,-0.888954 0.888954,-0.888954 0.492099,0 0.888954,0.396854 0.888954,0.888954"
       id="path5438" />
    <path
       style="fill:#a5a5a5;fill-opacity:1;fill-rule:nonzero;stroke:none;stroke-width:0.264583"
       d="m 56.619106,44.429189 c 0,0.48945 -0.396854,0.88895 -0.888955,0.88895 -0.489453,0 -0.888952,-0.3995 -0.888952,-0.88895 0,-0.49211 0.399499,-0.88896 0.888952,-0.88896 0.492101,0 0.888955,0.39685 0.888955,0.88896 z"
       id="path5440" />
    <path
       style="fill:none;stroke:#a5a5a5;stroke-width:0.253987px;stroke-linecap:butt;stroke-linejoin:round;stroke-miterlimit:4;stroke-dasharray:none;stroke-opacity:1"
       d="m 56.619106,44.429189 c 0,0.48945 -0.396854,0.88895 -0.888955,0.88895 -0.489453,0 -0.888952,-0.3995 -0.888952,-0.88895 0,-0.49211 0.399499,-0.88896 0.888952,-0.88896 0.492101,0 0.888955,0.39685 0.888955,0.88896"
       id="path5442" />
    <path
       style="fill:#a5a5a5;fill-opacity:1;fill-rule:nonzero;stroke:none;stroke-width:0.264583"
       d="m 69.657095,56.578219 c 0,0.48945 -0.396853,0.88896 -0.888955,0.88896 -0.489452,0 -0.888952,-0.39951 -0.888952,-0.88896 0,-0.4921 0.3995,-0.88895 0.888952,-0.88895 0.492102,0 0.888955,0.39685 0.888955,0.88895 z"
       id="path5444" />
    <path
       style="fill:none;stroke:#a5a5a5;stroke-width:0.253987px;stroke-linecap:butt;stroke-linejoin:round;stroke-miterlimit:4;stroke-dasharray:none;stroke-opacity:1"
       d="m 69.657095,56.578219 c 0,0.48945 -0.396853,0.88896 -0.888955,0.88896 -0.489452,0 -0.888952,-0.39951 -0.888952,-0.88896 0,-0.4921 0.3995,-0.88895 0.888952,-0.88895 0.492102,0 0.888955,0.39685 0.888955,0.88895"
       id="path5446" />
    <path
       style="fill:#a5a5a5;fill-opacity:1;fill-rule:nonzero;stroke:none;stroke-width:0.264583"
       d="m 82.652754,53.953689 c 0,0.48945 -0.396854,0.88895 -0.888955,0.88895 -0.489453,0 -0.888952,-0.3995 -0.888952,-0.88895 0,-0.4921 0.399499,-0.88895 0.888952,-0.88895 0.492101,0 0.888955,0.39685 0.888955,0.88895 z"
       id="path5448" />
    <path
       style="fill:none;stroke:#a5a5a5;stroke-width:0.253987px;stroke-linecap:butt;stroke-linejoin:round;stroke-miterlimit:4;stroke-dasharray:none;stroke-opacity:1"
       d="m 82.652754,53.953689 c 0,0.48945 -0.396854,0.88895 -0.888955,0.88895 -0.489453,0 -0.888952,-0.3995 -0.888952,-0.88895 0,-0.4921 0.399499,-0.88895 0.888952,-0.88895 0.492101,0 0.888955,0.39685 0.888955,0.88895"
       id="path5450" />
    <path
       style="fill:#a5a5a5;fill-opacity:1;fill-rule:nonzero;stroke:none;stroke-width:0.264583"
       d="m 95.648413,69.319889 c 0,0.48945 -0.396854,0.88895 -0.888955,0.88895 -0.489453,0 -0.888953,-0.3995 -0.888953,-0.88895 0,-0.4921 0.3995,-0.88895 0.888953,-0.88895 0.492101,0 0.888955,0.39685 0.888955,0.88895 z"
       id="path5452" />
    <path
       style="fill:none;stroke:#a5a5a5;stroke-width:0.253987px;stroke-linecap:butt;stroke-linejoin:round;stroke-miterlimit:4;stroke-dasharray:none;stroke-opacity:1"
       d="m 95.648413,69.319889 c 0,0.48945 -0.396854,0.88895 -0.888955,0.88895 -0.489453,0 -0.888953,-0.3995 -0.888953,-0.88895 0,-0.4921 0.3995,-0.88895 0.888953,-0.88895 0.492101,0 0.888955,0.39685 0.888955,0.88895"
       id="path5454" />
    <path
       style="fill:#a5a5a5;fill-opacity:1;fill-rule:nonzero;stroke:none;stroke-width:0.264583"
       d="m 108.64408,60.811329 c 0,0.48946 -0.39686,0.88896 -0.88896,0.88896 -0.48945,0 -0.88895,-0.3995 -0.88895,-0.88896 0,-0.49209 0.3995,-0.88895 0.88895,-0.88895 0.4921,0 0.88896,0.39686 0.88896,0.88895 z"
       id="path5456" />
    <path
       style="fill:none;stroke:#a5a5a5;stroke-width:0.253987px;stroke-linecap:butt;stroke-linejoin:round;stroke-miterlimit:4;stroke-dasharray:none;stroke-opacity:1"
       d="m 108.64408,60.813979 c 0,0.48681 -0.39686,0.88895 -0.88896,0.88895 -0.48681,0 -0.88895,-0.40214 -0.88895,-0.88895 0,-0.4921 0.40214,-0.88896 0.88895,-0.88896 0.4921,0 0.88896,0.39686 0.88896,0.88896"
       id="path5458" />
    <path
       style="fill:#a5a5a5;fill-opacity:1;fill-rule:nonzero;stroke:none;stroke-width:0.264583"
       d="m 141.19672,52.601739 c 0,0.48681 -0.39686,0.88895 -0.88896,0.88895 -0.4868,0 -0.88895,-0.40214 -0.88895,-0.88895 0,-0.4921 0.40215,-0.88895 0.88895,-0.88895 0.4921,0 0.88896,0.39685 0.88896,0.88895 z"
       id="path5460" />
    <path
       style="fill:none;stroke:#a5a5a5;stroke-width:0.253987px;stroke-linecap:butt;stroke-linejoin:round;stroke-miterlimit:4;stroke-dasharray:none;stroke-opacity:1"
       d="m 141.19672,52.601739 c 0,0.48681 -0.39686,0.88895 -0.88896,0.88895 -0.4868,0 -0.88895,-0.40214 -0.88895,-0.88895 0,-0.4921 0.40215,-0.88895 0.88895,-0.88895 0.4921,0 0.88896,0.39685 0.88896,0.88895"
       id="path5462" />
    <path
       style="fill:#a5a5a5;fill-opacity:1;fill-rule:nonzero;stroke:none;stroke-width:0.264583"
       d="m 173.70703,70.465479 c 0,0.48681 -0.39685,0.88895 -0.88895,0.88895 -0.48681,0 -0.88896,-0.40214 -0.88896,-0.88895 0,-0.4921 0.40215,-0.88896 0.88896,-0.88896 0.4921,0 0.88895,0.39686 0.88895,0.88896 z"
       id="path5464" />
    <path
       style="fill:none;stroke:#a5a5a5;stroke-width:0.253987px;stroke-linecap:butt;stroke-linejoin:round;stroke-miterlimit:4;stroke-dasharray:none;stroke-opacity:1"
       d="m 173.70703,70.465479 c 0,0.48681 -0.39685,0.88895 -0.88895,0.88895 -0.48681,0 -0.88896,-0.40214 -0.88896,-0.88895 0,-0.4921 0.40215,-0.88896 0.88896,-0.88896 0.4921,0 0.88895,0.39686 0.88895,0.88896"
       id="path5466" />
    <path
       style="fill:none;stroke:#70ad47;stroke-width:2.07989px;stroke-linecap:round;stroke-linejoin:round;stroke-miterlimit:4;stroke-dasharray:none;stroke-opacity:1"
       clip-path="url(#clipEmfPath1)"
       d="m 82.715704,96.794973 44.317696,65.916577 49.11745,18.71903 49.11745,38.55799 49.27744,11.99938 49.11745,0.79996 122.87362,7.35962 122.87362,5.91969"
       id="path5468"
       transform="matrix(0.26458333,0,0,0.26458333,22.129814,8.3392458)" />
    <path
       style="fill:#70ad47;fill-opacity:1;fill-rule:nonzero;stroke:none;stroke-width:0.264583"
       d="m 44.935713,33.931063 c 0,0.489456 -0.396855,0.888956 -0.888954,0.888956 -0.489454,0 -0.888954,-0.3995 -0.888954,-0.888956 0,-0.4921 0.3995,-0.888954 0.888954,-0.888954 0.492099,0 0.888954,0.396854 0.888954,0.888954 z"
       id="path5470" />
    <path
       style="fill:none;stroke:#70ad47;stroke-width:0.253987px;stroke-linecap:butt;stroke-linejoin:round;stroke-miterlimit:4;stroke-dasharray:none;stroke-opacity:1"
       d="m 44.935713,33.931063 c 0,0.489456 -0.396855,0.888956 -0.888954,0.888956 -0.489454,0 -0.888954,-0.3995 -0.888954,-0.888956 0,-0.4921 0.3995,-0.888954 0.888954,-0.888954 0.492099,0 0.888954,0.396854 0.888954,0.888954"
       id="path5472" />
    <path
       style="fill:#70ad47;fill-opacity:1;fill-rule:nonzero;stroke:none;stroke-width:0.264583"
       d="m 56.619106,51.413819 c 0,0.48946 -0.396854,0.88896 -0.888955,0.88896 -0.489453,0 -0.888952,-0.3995 -0.888952,-0.88896 0,-0.4921 0.399499,-0.88895 0.888952,-0.88895 0.492101,0 0.888955,0.39685 0.888955,0.88895 z"
       id="path5474" />
    <path
       style="fill:none;stroke:#70ad47;stroke-width:0.253987px;stroke-linecap:butt;stroke-linejoin:round;stroke-miterlimit:4;stroke-dasharray:none;stroke-opacity:1"
       d="m 56.619106,51.413819 c 0,0.48946 -0.396854,0.88896 -0.888955,0.88896 -0.489453,0 -0.888952,-0.3995 -0.888952,-0.88896 0,-0.4921 0.399499,-0.88895 0.888952,-0.88895 0.492101,0 0.888955,0.39685 0.888955,0.88895"
       id="path5476" />
    <path
       style="fill:#70ad47;fill-opacity:1;fill-rule:nonzero;stroke:none;stroke-width:0.264583"
       d="m 69.657095,56.366559 c 0,0.48946 -0.396853,0.88896 -0.888955,0.88896 -0.489452,0 -0.888952,-0.3995 -0.888952,-0.88896 0,-0.49209 0.3995,-0.88895 0.888952,-0.88895 0.492102,0 0.888955,0.39686 0.888955,0.88895 z"
       id="path5478" />
    <path
       style="fill:none;stroke:#70ad47;stroke-width:0.253987px;stroke-linecap:butt;stroke-linejoin:round;stroke-miterlimit:4;stroke-dasharray:none;stroke-opacity:1"
       d="m 69.657095,56.366559 c 0,0.48946 -0.396853,0.88896 -0.888955,0.88896 -0.489452,0 -0.888952,-0.3995 -0.888952,-0.88896 0,-0.49209 0.3995,-0.88895 0.888952,-0.88895 0.492102,0 0.888955,0.39686 0.888955,0.88895"
       id="path5480" />
    <path
       style="fill:#70ad47;fill-opacity:1;fill-rule:nonzero;stroke:none;stroke-width:0.264583"
       d="m 82.652754,66.526039 c 0,0.48945 -0.396854,0.88895 -0.888955,0.88895 -0.489453,0 -0.888952,-0.3995 -0.888952,-0.88895 0,-0.4921 0.399499,-0.88896 0.888952,-0.88896 0.492101,0 0.888955,0.39686 0.888955,0.88896 z"
       id="path5482" />
    <path
       style="fill:none;stroke:#70ad47;stroke-width:0.253987px;stroke-linecap:butt;stroke-linejoin:round;stroke-miterlimit:4;stroke-dasharray:none;stroke-opacity:1"
       d="m 82.652754,66.526039 c 0,0.48945 -0.396854,0.88895 -0.888955,0.88895 -0.489453,0 -0.888952,-0.3995 -0.888952,-0.88895 0,-0.4921 0.399499,-0.88896 0.888952,-0.88896 0.492101,0 0.888955,0.39686 0.888955,0.88896"
       id="path5484" />
    <path
       style="fill:#70ad47;fill-opacity:1;fill-rule:nonzero;stroke:none;stroke-width:0.264583"
       d="m 95.648413,69.700869 c 0,0.48946 -0.396854,0.88896 -0.888955,0.88896 -0.489453,0 -0.888953,-0.3995 -0.888953,-0.88896 0,-0.4921 0.3995,-0.88895 0.888953,-0.88895 0.492101,0 0.888955,0.39685 0.888955,0.88895 z"
       id="path5486" />
    <path
       style="fill:none;stroke:#70ad47;stroke-width:0.253987px;stroke-linecap:butt;stroke-linejoin:round;stroke-miterlimit:4;stroke-dasharray:none;stroke-opacity:1"
       d="m 95.648413,69.700869 c 0,0.48946 -0.396854,0.88896 -0.888955,0.88896 -0.489453,0 -0.888953,-0.3995 -0.888953,-0.88896 0,-0.4921 0.3995,-0.88895 0.888953,-0.88895 0.492101,0 0.888955,0.39685 0.888955,0.88895"
       id="path5488" />
    <path
       style="fill:#70ad47;fill-opacity:1;fill-rule:nonzero;stroke:none;stroke-width:0.264583"
       d="m 108.64408,69.954859 c 0,0.48945 -0.39686,0.88895 -0.88896,0.88895 -0.48945,0 -0.88895,-0.3995 -0.88895,-0.88895 0,-0.4921 0.3995,-0.88895 0.88895,-0.88895 0.4921,0 0.88896,0.39685 0.88896,0.88895 z"
       id="path5490" />
    <path
       style="fill:none;stroke:#70ad47;stroke-width:0.253987px;stroke-linecap:butt;stroke-linejoin:round;stroke-miterlimit:4;stroke-dasharray:none;stroke-opacity:1"
       d="m 108.64408,69.957499 c 0,0.48681 -0.39686,0.88896 -0.88896,0.88896 -0.48681,0 -0.88895,-0.40215 -0.88895,-0.88896 0,-0.4921 0.40214,-0.88895 0.88895,-0.88895 0.4921,0 0.88896,0.39685 0.88896,0.88895"
       id="path5492" />
    <path
       style="fill:#70ad47;fill-opacity:1;fill-rule:nonzero;stroke:none;stroke-width:0.264583"
       d="m 141.19672,71.862409 c 0,0.4868 -0.39686,0.88895 -0.88896,0.88895 -0.4868,0 -0.88895,-0.40215 -0.88895,-0.88895 0,-0.4921 0.40215,-0.88896 0.88895,-0.88896 0.4921,0 0.88896,0.39686 0.88896,0.88896 z"
       id="path5494" />
    <path
       style="fill:none;stroke:#70ad47;stroke-width:0.253987px;stroke-linecap:butt;stroke-linejoin:round;stroke-miterlimit:4;stroke-dasharray:none;stroke-opacity:1"
       d="m 141.19672,71.862409 c 0,0.4868 -0.39686,0.88895 -0.88896,0.88895 -0.4868,0 -0.88895,-0.40215 -0.88895,-0.88895 0,-0.4921 0.40215,-0.88896 0.88895,-0.88896 0.4921,0 0.88896,0.39686 0.88896,0.88896"
       id="path5496" />
    <path
       style="fill:#70ad47;fill-opacity:1;fill-rule:nonzero;stroke:none;stroke-width:0.264583"
       d="m 173.70703,73.470989 c 0,0.48681 -0.39685,0.88895 -0.88895,0.88895 -0.48681,0 -0.88896,-0.40214 -0.88896,-0.88895 0,-0.4921 0.40215,-0.88895 0.88896,-0.88895 0.4921,0 0.88895,0.39685 0.88895,0.88895 z"
       id="path5498" />
    <path
       style="fill:none;stroke:#70ad47;stroke-width:0.253987px;stroke-linecap:butt;stroke-linejoin:round;stroke-miterlimit:4;stroke-dasharray:none;stroke-opacity:1"
       d="m 173.70703,73.470989 c 0,0.48681 -0.39685,0.88895 -0.88895,0.88895 -0.48681,0 -0.88896,-0.40214 -0.88896,-0.88895 0,-0.4921 0.40215,-0.88895 0.88896,-0.88895 0.4921,0 0.88895,0.39685 0.88895,0.88895"
       id="path5500" />
    <path
       style="fill:none;stroke:#ffc000;stroke-width:2.07989px;stroke-linecap:round;stroke-linejoin:round;stroke-miterlimit:4;stroke-dasharray:none;stroke-opacity:1"
       clip-path="url(#clipEmfPath1)"
       d="m 82.715704,110.23427 44.317696,95.99502 49.11745,18.87902 49.11745,-2.71986 49.27744,12.79933 49.11745,-0.31998 122.87362,-11.35941 122.87362,14.87923"
       id="path5502"
       transform="matrix(0.26458333,0,0,0.26458333,22.129814,8.3392458)" />
    <path
       style="fill:#ffc000;fill-opacity:1;fill-rule:nonzero;stroke:none;stroke-width:0.264583"
       d="m 44.935713,37.486879 c 0,0.48945 -0.396855,0.88895 -0.888954,0.88895 -0.489454,0 -0.888954,-0.3995 -0.888954,-0.88895 0,-0.4921 0.3995,-0.88896 0.888954,-0.88896 0.492099,0 0.888954,0.39686 0.888954,0.88896 z"
       id="path5504" />
    <path
       style="fill:none;stroke:#ffc000;stroke-width:0.253987px;stroke-linecap:butt;stroke-linejoin:round;stroke-miterlimit:4;stroke-dasharray:none;stroke-opacity:1"
       d="m 44.935713,37.486879 c 0,0.48945 -0.396855,0.88895 -0.888954,0.88895 -0.489454,0 -0.888954,-0.3995 -0.888954,-0.88895 0,-0.4921 0.3995,-0.88896 0.888954,-0.88896 0.492099,0 0.888954,0.39686 0.888954,0.88896"
       id="path5506" />
    <path
       style="fill:#ffc000;fill-opacity:1;fill-rule:nonzero;stroke:none;stroke-width:0.264583"
       d="m 56.619106,62.927889 c 0,0.48945 -0.396854,0.88895 -0.888955,0.88895 -0.489453,0 -0.888952,-0.3995 -0.888952,-0.88895 0,-0.4921 0.399499,-0.88895 0.888952,-0.88895 0.492101,0 0.888955,0.39685 0.888955,0.88895 z"
       id="path5508" />
    <path
       style="fill:none;stroke:#ffc000;stroke-width:0.253987px;stroke-linecap:butt;stroke-linejoin:round;stroke-miterlimit:4;stroke-dasharray:none;stroke-opacity:1"
       d="m 56.619106,62.927889 c 0,0.48945 -0.396854,0.88895 -0.888955,0.88895 -0.489453,0 -0.888952,-0.3995 -0.888952,-0.88895 0,-0.4921 0.399499,-0.88895 0.888952,-0.88895 0.492101,0 0.888955,0.39685 0.888955,0.88895"
       id="path5510" />
    <path
       style="fill:#ffc000;fill-opacity:1;fill-rule:nonzero;stroke:none;stroke-width:0.264583"
       d="m 69.657095,67.922959 c 0,0.48946 -0.396853,0.88896 -0.888955,0.88896 -0.489452,0 -0.888952,-0.3995 -0.888952,-0.88896 0,-0.4921 0.3995,-0.88895 0.888952,-0.88895 0.492102,0 0.888955,0.39685 0.888955,0.88895 z"
       id="path5512" />
    <path
       style="fill:none;stroke:#ffc000;stroke-width:0.253987px;stroke-linecap:butt;stroke-linejoin:round;stroke-miterlimit:4;stroke-dasharray:none;stroke-opacity:1"
       d="m 69.657095,67.922959 c 0,0.48946 -0.396853,0.88896 -0.888955,0.88896 -0.489452,0 -0.888952,-0.3995 -0.888952,-0.88896 0,-0.4921 0.3995,-0.88895 0.888952,-0.88895 0.492102,0 0.888955,0.39685 0.888955,0.88895"
       id="path5514" />
    <path
       style="fill:#ffc000;fill-opacity:1;fill-rule:nonzero;stroke:none;stroke-width:0.264583"
       d="m 82.652754,67.160999 c 0,0.48946 -0.396854,0.88896 -0.888955,0.88896 -0.489453,0 -0.888952,-0.3995 -0.888952,-0.88896 0,-0.4921 0.399499,-0.88895 0.888952,-0.88895 0.492101,0 0.888955,0.39685 0.888955,0.88895 z"
       id="path5516" />
    <path
       style="fill:none;stroke:#ffc000;stroke-width:0.253987px;stroke-linecap:butt;stroke-linejoin:round;stroke-miterlimit:4;stroke-dasharray:none;stroke-opacity:1"
       d="m 82.652754,67.160999 c 0,0.48946 -0.396854,0.88896 -0.888955,0.88896 -0.489453,0 -0.888952,-0.3995 -0.888952,-0.88896 0,-0.4921 0.399499,-0.88895 0.888952,-0.88895 0.492101,0 0.888955,0.39685 0.888955,0.88895"
       id="path5518" />
    <path
       style="fill:#ffc000;fill-opacity:1;fill-rule:nonzero;stroke:none;stroke-width:0.264583"
       d="m 95.648413,70.547499 c 0,0.48945 -0.396854,0.88895 -0.888955,0.88895 -0.489453,0 -0.888953,-0.3995 -0.888953,-0.88895 0,-0.49211 0.3995,-0.88896 0.888953,-0.88896 0.492101,0 0.888955,0.39685 0.888955,0.88896 z"
       id="path5520" />
    <path
       style="fill:none;stroke:#ffc000;stroke-width:0.253987px;stroke-linecap:butt;stroke-linejoin:round;stroke-miterlimit:4;stroke-dasharray:none;stroke-opacity:1"
       d="m 95.648413,70.547499 c 0,0.48945 -0.396854,0.88895 -0.888955,0.88895 -0.489453,0 -0.888953,-0.3995 -0.888953,-0.88895 0,-0.49211 0.3995,-0.88896 0.888953,-0.88896 0.492101,0 0.888955,0.39685 0.888955,0.88896"
       id="path5522" />
    <path
       style="fill:#ffc000;fill-opacity:1;fill-rule:nonzero;stroke:none;stroke-width:0.264583"
       d="m 108.64408,70.462829 c 0,0.48946 -0.39686,0.88896 -0.88896,0.88896 -0.48945,0 -0.88895,-0.3995 -0.88895,-0.88896 0,-0.4921 0.3995,-0.88895 0.88895,-0.88895 0.4921,0 0.88896,0.39685 0.88896,0.88895 z"
       id="path5524" />
    <path
       style="fill:none;stroke:#ffc000;stroke-width:0.253987px;stroke-linecap:butt;stroke-linejoin:round;stroke-miterlimit:4;stroke-dasharray:none;stroke-opacity:1"
       d="m 108.64408,70.465479 c 0,0.48681 -0.39686,0.88895 -0.88896,0.88895 -0.48681,0 -0.88895,-0.40214 -0.88895,-0.88895 0,-0.4921 0.40214,-0.88896 0.88895,-0.88896 0.4921,0 0.88896,0.39686 0.88896,0.88896"
       id="path5526" />
    <path
       style="fill:#ffc000;fill-opacity:1;fill-rule:nonzero;stroke:none;stroke-width:0.264583"
       d="m 141.19672,67.459969 c 0,0.48681 -0.39686,0.88895 -0.88896,0.88895 -0.4868,0 -0.88895,-0.40214 -0.88895,-0.88895 0,-0.4921 0.40215,-0.88896 0.88895,-0.88896 0.4921,0 0.88896,0.39686 0.88896,0.88896 z"
       id="path5528" />
    <path
       style="fill:none;stroke:#ffc000;stroke-width:0.253987px;stroke-linecap:butt;stroke-linejoin:round;stroke-miterlimit:4;stroke-dasharray:none;stroke-opacity:1"
       d="m 141.19672,67.459969 c 0,0.48681 -0.39686,0.88895 -0.88896,0.88895 -0.4868,0 -0.88895,-0.40214 -0.88895,-0.88895 0,-0.4921 0.40215,-0.88896 0.88895,-0.88896 0.4921,0 0.88896,0.39686 0.88896,0.88896"
       id="path5530" />
    <path
       style="fill:#ffc000;fill-opacity:1;fill-rule:nonzero;stroke:none;stroke-width:0.264583"
       d="m 173.70703,71.439089 c 0,0.48681 -0.39685,0.88896 -0.88895,0.88896 -0.48681,0 -0.88896,-0.40215 -0.88896,-0.88896 0,-0.4921 0.40215,-0.88895 0.88896,-0.88895 0.4921,0 0.88895,0.39685 0.88895,0.88895 z"
       id="path5532" />
    <path
       style="fill:none;stroke:#ffc000;stroke-width:0.253987px;stroke-linecap:butt;stroke-linejoin:round;stroke-miterlimit:4;stroke-dasharray:none;stroke-opacity:1"
       d="m 173.70703,71.439089 c 0,0.48681 -0.39685,0.88896 -0.88895,0.88896 -0.48681,0 -0.88896,-0.40215 -0.88896,-0.88896 0,-0.4921 0.40215,-0.88895 0.88896,-0.88895 0.4921,0 0.88895,0.39685 0.88895,0.88895"
       id="path5534" />
    <path
       style="fill:none;stroke:#4472c4;stroke-width:2.07989px;stroke-linecap:round;stroke-linejoin:round;stroke-miterlimit:4;stroke-dasharray:none;stroke-opacity:1"
       clip-path="url(#clipEmfPath1)"
       d="m 82.715704,135.67295 44.317696,82.55572 49.11745,14.55924 49.11745,3.51982 49.27744,6.23967 49.11745,0.79996 122.87362,7.35962 122.87362,3.19983"
       id="path5536"
       transform="matrix(0.26458333,0,0,0.26458333,22.129814,8.3392458)" />
    <path
       style="fill:#4472c4;fill-opacity:1;fill-rule:nonzero;stroke:none;stroke-width:0.264583"
       d="m 44.935713,44.259859 c 0,0.48945 -0.396855,0.88895 -0.888954,0.88895 -0.489454,0 -0.888954,-0.3995 -0.888954,-0.88895 0,-0.4921 0.3995,-0.88895 0.888954,-0.88895 0.492099,0 0.888954,0.39685 0.888954,0.88895 z"
       id="path5538" />
    <path
       style="fill:none;stroke:#4472c4;stroke-width:0.253987px;stroke-linecap:butt;stroke-linejoin:round;stroke-miterlimit:4;stroke-dasharray:none;stroke-opacity:1"
       d="m 44.935713,44.259859 c 0,0.48945 -0.396855,0.88895 -0.888954,0.88895 -0.489454,0 -0.888954,-0.3995 -0.888954,-0.88895 0,-0.4921 0.3995,-0.88895 0.888954,-0.88895 0.492099,0 0.888954,0.39685 0.888954,0.88895"
       id="path5540" />
    <path
       style="fill:#4472c4;fill-opacity:1;fill-rule:nonzero;stroke:none;stroke-width:0.264583"
       d="m 56.619106,66.060389 c 0,0.48946 -0.396854,0.88896 -0.888955,0.88896 -0.489453,0 -0.888952,-0.3995 -0.888952,-0.88896 0,-0.49209 0.399499,-0.88895 0.888952,-0.88895 0.492101,0 0.888955,0.39686 0.888955,0.88895 z"
       id="path5542" />
    <path
       style="fill:none;stroke:#4472c4;stroke-width:0.253987px;stroke-linecap:butt;stroke-linejoin:round;stroke-miterlimit:4;stroke-dasharray:none;stroke-opacity:1"
       d="m 56.619106,66.060389 c 0,0.48946 -0.396854,0.88896 -0.888955,0.88896 -0.489453,0 -0.888952,-0.3995 -0.888952,-0.88896 0,-0.49209 0.399499,-0.88895 0.888952,-0.88895 0.492101,0 0.888955,0.39686 0.888955,0.88895"
       id="path5544" />
    <path
       style="fill:#4472c4;fill-opacity:1;fill-rule:nonzero;stroke:none;stroke-width:0.264583"
       d="m 69.657095,69.954859 c 0,0.48945 -0.396853,0.88895 -0.888955,0.88895 -0.489452,0 -0.888952,-0.3995 -0.888952,-0.88895 0,-0.4921 0.3995,-0.88895 0.888952,-0.88895 0.492102,0 0.888955,0.39685 0.888955,0.88895 z"
       id="path5546" />
    <path
       style="fill:none;stroke:#4472c4;stroke-width:0.253987px;stroke-linecap:butt;stroke-linejoin:round;stroke-miterlimit:4;stroke-dasharray:none;stroke-opacity:1"
       d="m 69.657095,69.954859 c 0,0.48945 -0.396853,0.88895 -0.888955,0.88895 -0.489452,0 -0.888952,-0.3995 -0.888952,-0.88895 0,-0.4921 0.3995,-0.88895 0.888952,-0.88895 0.492102,0 0.888955,0.39685 0.888955,0.88895"
       id="path5548" />
    <path
       style="fill:#4472c4;fill-opacity:1;fill-rule:nonzero;stroke:none;stroke-width:0.264583"
       d="m 82.652754,70.886139 c 0,0.48946 -0.396854,0.88896 -0.888955,0.88896 -0.489453,0 -0.888952,-0.3995 -0.888952,-0.88896 0,-0.4921 0.399499,-0.88895 0.888952,-0.88895 0.492101,0 0.888955,0.39685 0.888955,0.88895 z"
       id="path5550" />
    <path
       style="fill:none;stroke:#4472c4;stroke-width:0.253987px;stroke-linecap:butt;stroke-linejoin:round;stroke-miterlimit:4;stroke-dasharray:none;stroke-opacity:1"
       d="m 82.652754,70.886139 c 0,0.48946 -0.396854,0.88896 -0.888955,0.88896 -0.489453,0 -0.888952,-0.3995 -0.888952,-0.88896 0,-0.4921 0.399499,-0.88895 0.888952,-0.88895 0.492101,0 0.888955,0.39685 0.888955,0.88895"
       id="path5552" />
    <path
       style="fill:#4472c4;fill-opacity:1;fill-rule:nonzero;stroke:none;stroke-width:0.264583"
       d="m 95.648413,72.494729 c 0,0.48945 -0.396854,0.88895 -0.888955,0.88895 -0.489453,0 -0.888953,-0.3995 -0.888953,-0.88895 0,-0.4921 0.3995,-0.88896 0.888953,-0.88896 0.492101,0 0.888955,0.39686 0.888955,0.88896 z"
       id="path5554" />
    <path
       style="fill:none;stroke:#4472c4;stroke-width:0.253987px;stroke-linecap:butt;stroke-linejoin:round;stroke-miterlimit:4;stroke-dasharray:none;stroke-opacity:1"
       d="m 95.648413,72.494729 c 0,0.48945 -0.396854,0.88895 -0.888955,0.88895 -0.489453,0 -0.888953,-0.3995 -0.888953,-0.88895 0,-0.4921 0.3995,-0.88896 0.888953,-0.88896 0.492101,0 0.888955,0.39686 0.888955,0.88896"
       id="path5556" />
    <path
       style="fill:#4472c4;fill-opacity:1;fill-rule:nonzero;stroke:none;stroke-width:0.264583"
       d="m 108.64408,72.706379 c 0,0.48946 -0.39686,0.88896 -0.88896,0.88896 -0.48945,0 -0.88895,-0.3995 -0.88895,-0.88896 0,-0.4921 0.3995,-0.88895 0.88895,-0.88895 0.4921,0 0.88896,0.39685 0.88896,0.88895 z"
       id="path5558" />
    <path
       style="fill:none;stroke:#4472c4;stroke-width:0.253987px;stroke-linecap:butt;stroke-linejoin:round;stroke-miterlimit:4;stroke-dasharray:none;stroke-opacity:1"
       d="m 108.64408,72.709029 c 0,0.48681 -0.39686,0.88895 -0.88896,0.88895 -0.48681,0 -0.88895,-0.40214 -0.88895,-0.88895 0,-0.4921 0.40214,-0.88896 0.88895,-0.88896 0.4921,0 0.88896,0.39686 0.88896,0.88896"
       id="path5560" />
    <path
       style="fill:#4472c4;fill-opacity:1;fill-rule:nonzero;stroke:none;stroke-width:0.264583"
       d="m 141.19672,74.656259 c 0,0.48681 -0.39686,0.88895 -0.88896,0.88895 -0.4868,0 -0.88895,-0.40214 -0.88895,-0.88895 0,-0.4921 0.40215,-0.88895 0.88895,-0.88895 0.4921,0 0.88896,0.39685 0.88896,0.88895 z"
       id="path5562" />
    <path
       style="fill:none;stroke:#4472c4;stroke-width:0.253987px;stroke-linecap:butt;stroke-linejoin:round;stroke-miterlimit:4;stroke-dasharray:none;stroke-opacity:1"
       d="m 141.19672,74.656259 c 0,0.48681 -0.39686,0.88895 -0.88896,0.88895 -0.4868,0 -0.88895,-0.40214 -0.88895,-0.88895 0,-0.4921 0.40215,-0.88895 0.88895,-0.88895 0.4921,0 0.88896,0.39685 0.88896,0.88895"
       id="path5564" />
    <path
       style="fill:#4472c4;fill-opacity:1;fill-rule:nonzero;stroke:none;stroke-width:0.264583"
       d="m 173.70703,75.545209 c 0,0.48681 -0.39685,0.88896 -0.88895,0.88896 -0.48681,0 -0.88896,-0.40215 -0.88896,-0.88896 0,-0.4921 0.40215,-0.88895 0.88896,-0.88895 0.4921,0 0.88895,0.39685 0.88895,0.88895 z"
       id="path5566" />
    <path
       style="fill:none;stroke:#4472c4;stroke-width:0.253987px;stroke-linecap:butt;stroke-linejoin:round;stroke-miterlimit:4;stroke-dasharray:none;stroke-opacity:1"
       d="m 173.70703,75.545209 c 0,0.48681 -0.39685,0.88896 -0.88895,0.88896 -0.48681,0 -0.88896,-0.40215 -0.88896,-0.88896 0,-0.4921 0.40215,-0.88895 0.88896,-0.88895 0.4921,0 0.88895,0.39685 0.88895,0.88895"
       id="path5568" />
    <text
       xml:space="preserve"
       style="font-style:normal;font-variant:normal;font-weight:normal;font-size:3.88055556px;line-height:125%;font-family:'Times New Roman';text-align:start;letter-spacing:0px;word-spacing:0px;text-anchor:start;fill:#000000;fill-opacity:1;stroke:none;stroke-width:0.264583;-inkscape-font-specification:'Times New Roman, Normal';font-stretch:normal;font-variant-ligatures:normal;font-variant-caps:normal;font-variant-numeric:normal;font-variant-east-asian:normal"
       x="32.885616"
       y="85.339218"
       id="text5574"><tspan
         sodipodi:role="line"
         x="32.885616"
         y="85.339218"
         id="tspan5572"
         style="stroke-width:0.264583;-inkscape-font-specification:'Times New Roman, Normal';font-family:'Times New Roman';font-weight:normal;font-style:normal;font-stretch:normal;font-variant:normal;font-size:3.88055556px;font-variant-ligatures:normal;font-variant-caps:normal;font-variant-numeric:normal;font-variant-east-asian:normal"><tspan
           dx="0"
           dy="0"
           style="font-style:normal;font-variant:normal;font-weight:normal;font-size:3.88055556px;font-family:'Times New Roman';fill:#000000;stroke-width:0.264583;-inkscape-font-specification:'Times New Roman, Normal';font-stretch:normal;font-variant-ligatures:normal;font-variant-caps:normal;font-variant-numeric:normal;font-variant-east-asian:normal"
           id="tspan5570">1E-4</tspan></tspan></text>
    <text
       xml:space="preserve"
       style="font-style:normal;font-variant:normal;font-weight:normal;font-size:3.88055556px;line-height:125%;font-family:'Times New Roman';text-align:start;letter-spacing:0px;word-spacing:0px;text-anchor:start;fill:#000000;fill-opacity:1;stroke:none;stroke-width:0.264583;-inkscape-font-specification:'Times New Roman, Normal';font-stretch:normal;font-variant-ligatures:normal;font-variant-caps:normal;font-variant-numeric:normal;font-variant-east-asian:normal"
       x="32.885616"
       y="67.834213"
       id="text5580"><tspan
         sodipodi:role="line"
         x="32.885616"
         y="67.834213"
         id="tspan5578"
         style="stroke-width:0.264583;-inkscape-font-specification:'Times New Roman, Normal';font-family:'Times New Roman';font-weight:normal;font-style:normal;font-stretch:normal;font-variant:normal;font-size:3.88055556px;font-variant-ligatures:normal;font-variant-caps:normal;font-variant-numeric:normal;font-variant-east-asian:normal"><tspan
           dx="0"
           dy="0"
           style="font-style:normal;font-variant:normal;font-weight:normal;font-size:3.88055556px;font-family:'Times New Roman';fill:#000000;stroke-width:0.264583;-inkscape-font-specification:'Times New Roman, Normal';font-stretch:normal;font-variant-ligatures:normal;font-variant-caps:normal;font-variant-numeric:normal;font-variant-east-asian:normal"
           id="tspan5576">1E-3</tspan></tspan></text>
    <text
       xml:space="preserve"
       style="font-style:normal;font-variant:normal;font-weight:normal;font-size:3.88055556px;line-height:125%;font-family:'Times New Roman';text-align:start;letter-spacing:0px;word-spacing:0px;text-anchor:start;fill:#000000;fill-opacity:1;stroke:none;stroke-width:0.264583;-inkscape-font-specification:'Times New Roman, Normal';font-stretch:normal;font-variant-ligatures:normal;font-variant-caps:normal;font-variant-numeric:normal;font-variant-east-asian:normal"
       x="32.885616"
       y="50.329243"
       id="text5586"><tspan
         sodipodi:role="line"
         x="32.885616"
         y="50.329243"
         id="tspan5584"
         style="stroke-width:0.264583;-inkscape-font-specification:'Times New Roman, Normal';font-family:'Times New Roman';font-weight:normal;font-style:normal;font-stretch:normal;font-variant:normal;font-size:3.88055556px;font-variant-ligatures:normal;font-variant-caps:normal;font-variant-numeric:normal;font-variant-east-asian:normal"><tspan
           dx="0"
           dy="0"
           style="font-style:normal;font-variant:normal;font-weight:normal;font-size:3.88055556px;font-family:'Times New Roman';fill:#000000;stroke-width:0.264583;-inkscape-font-specification:'Times New Roman, Normal';font-stretch:normal;font-variant-ligatures:normal;font-variant-caps:normal;font-variant-numeric:normal;font-variant-east-asian:normal"
           id="tspan5582">1E-2</tspan></tspan></text>
    <text
       xml:space="preserve"
       style="font-style:normal;font-variant:normal;font-weight:normal;font-size:3.88055556px;line-height:125%;font-family:'Times New Roman';text-align:start;letter-spacing:0px;word-spacing:0px;text-anchor:start;fill:#000000;fill-opacity:1;stroke:none;stroke-width:0.264583;-inkscape-font-specification:'Times New Roman, Normal';font-stretch:normal;font-variant-ligatures:normal;font-variant-caps:normal;font-variant-numeric:normal;font-variant-east-asian:normal"
       x="32.885616"
       y="32.824219"
       id="text5592"><tspan
         sodipodi:role="line"
         x="32.885616"
         y="32.824219"
         id="tspan5590"
         style="stroke-width:0.264583;-inkscape-font-specification:'Times New Roman, Normal';font-family:'Times New Roman';font-weight:normal;font-style:normal;font-stretch:normal;font-variant:normal;font-size:3.88055556px;font-variant-ligatures:normal;font-variant-caps:normal;font-variant-numeric:normal;font-variant-east-asian:normal"><tspan
           dx="0"
           dy="0"
           style="font-style:normal;font-variant:normal;font-weight:normal;font-size:3.88055556px;font-family:'Times New Roman';fill:#000000;stroke-width:0.264583;-inkscape-font-specification:'Times New Roman, Normal';font-stretch:normal;font-variant-ligatures:normal;font-variant-caps:normal;font-variant-numeric:normal;font-variant-east-asian:normal"
           id="tspan5588">1E-1</tspan></tspan></text>
    <text
       xml:space="preserve"
       style="font-style:normal;font-variant:normal;font-weight:normal;font-size:3.88055556px;line-height:125%;font-family:'Times New Roman';text-align:start;letter-spacing:0px;word-spacing:0px;text-anchor:start;fill:#000000;fill-opacity:1;stroke:none;stroke-width:0.264583;-inkscape-font-specification:'Times New Roman, Normal';font-stretch:normal;font-variant-ligatures:normal;font-variant-caps:normal;font-variant-numeric:normal;font-variant-east-asian:normal"
       x="32.07074"
       y="15.319245"
       id="text5598"><tspan
         sodipodi:role="line"
         x="32.07074"
         y="15.319245"
         id="tspan5596"
         style="stroke-width:0.264583;-inkscape-font-specification:'Times New Roman, Normal';font-family:'Times New Roman';font-weight:normal;font-style:normal;font-stretch:normal;font-variant:normal;font-size:3.88055556px;font-variant-ligatures:normal;font-variant-caps:normal;font-variant-numeric:normal;font-variant-east-asian:normal"><tspan
           dx="0"
           dy="0"
           style="font-style:normal;font-variant:normal;font-weight:normal;font-size:3.88055556px;font-family:'Times New Roman';fill:#000000;stroke-width:0.264583;-inkscape-font-specification:'Times New Roman, Normal';font-stretch:normal;font-variant-ligatures:normal;font-variant-caps:normal;font-variant-numeric:normal;font-variant-east-asian:normal"
           id="tspan5594">1E+0</tspan></tspan></text>
    <text
       xml:space="preserve"
       style="font-style:normal;font-variant:normal;font-weight:normal;font-size:3.88055556px;line-height:125%;font-family:'Times New Roman';text-align:start;letter-spacing:0px;word-spacing:0px;text-anchor:start;fill:#000000;fill-opacity:1;stroke:none;stroke-width:0.264583;-inkscape-font-specification:'Times New Roman, Normal';font-stretch:normal;font-variant-ligatures:normal;font-variant-caps:normal;font-variant-numeric:normal;font-variant-east-asian:normal"
       x="41.862453"
       y="89.482819"
       id="text5604"><tspan
         sodipodi:role="line"
         x="41.862453"
         y="89.482819"
         id="tspan5602"
         style="stroke-width:0.264583;-inkscape-font-specification:'Times New Roman, Normal';font-family:'Times New Roman';font-weight:normal;font-style:normal;font-stretch:normal;font-variant:normal;font-size:3.88055556px;font-variant-ligatures:normal;font-variant-caps:normal;font-variant-numeric:normal;font-variant-east-asian:normal"><tspan
           dx="0"
           dy="0"
           style="font-style:normal;font-variant:normal;font-weight:normal;font-size:3.88055556px;font-family:'Times New Roman';fill:#000000;stroke-width:0.264583;-inkscape-font-specification:'Times New Roman, Normal';font-stretch:normal;font-variant-ligatures:normal;font-variant-caps:normal;font-variant-numeric:normal;font-variant-east-asian:normal"
           id="tspan5600">0</tspan></tspan></text>
    <text
       xml:space="preserve"
       style="font-style:normal;font-variant:normal;font-weight:normal;font-size:3.88055556px;line-height:125%;font-family:'Times New Roman';text-align:start;letter-spacing:0px;word-spacing:0px;text-anchor:start;fill:#000000;fill-opacity:1;stroke:none;stroke-width:0.264583;-inkscape-font-specification:'Times New Roman, Normal';font-stretch:normal;font-variant-ligatures:normal;font-variant-caps:normal;font-variant-numeric:normal;font-variant-east-asian:normal"
       x="66.995842"
       y="89.482819"
       id="text5610"><tspan
         sodipodi:role="line"
         x="66.995842"
         y="89.482819"
         id="tspan5608"
         style="stroke-width:0.264583;-inkscape-font-specification:'Times New Roman, Normal';font-family:'Times New Roman';font-weight:normal;font-style:normal;font-stretch:normal;font-variant:normal;font-size:3.88055556px;font-variant-ligatures:normal;font-variant-caps:normal;font-variant-numeric:normal;font-variant-east-asian:normal"><tspan
           dx="0"
           dy="0"
           style="font-style:normal;font-variant:normal;font-weight:normal;font-size:3.88055556px;font-family:'Times New Roman';fill:#000000;stroke-width:0.264583;-inkscape-font-specification:'Times New Roman, Normal';font-stretch:normal;font-variant-ligatures:normal;font-variant-caps:normal;font-variant-numeric:normal;font-variant-east-asian:normal"
           id="tspan5606">20</tspan></tspan></text>
    <text
       xml:space="preserve"
       style="font-style:normal;font-variant:normal;font-weight:normal;font-size:3.88055556px;line-height:125%;font-family:'Times New Roman';text-align:start;letter-spacing:0px;word-spacing:0px;text-anchor:start;fill:#000000;fill-opacity:1;stroke:none;stroke-width:0.264583;-inkscape-font-specification:'Times New Roman, Normal';font-stretch:normal;font-variant-ligatures:normal;font-variant-caps:normal;font-variant-numeric:normal;font-variant-east-asian:normal"
       x="93.011162"
       y="89.482819"
       id="text5616"><tspan
         sodipodi:role="line"
         x="93.011162"
         y="89.482819"
         id="tspan5614"
         style="stroke-width:0.264583;-inkscape-font-specification:'Times New Roman, Normal';font-family:'Times New Roman';font-weight:normal;font-style:normal;font-stretch:normal;font-variant:normal;font-size:3.88055556px;font-variant-ligatures:normal;font-variant-caps:normal;font-variant-numeric:normal;font-variant-east-asian:normal"><tspan
           dx="0"
           dy="0"
           style="font-style:normal;font-variant:normal;font-weight:normal;font-size:3.88055556px;font-family:'Times New Roman';fill:#000000;stroke-width:0.264583;-inkscape-font-specification:'Times New Roman, Normal';font-stretch:normal;font-variant-ligatures:normal;font-variant-caps:normal;font-variant-numeric:normal;font-variant-east-asian:normal"
           id="tspan5612">40</tspan></tspan></text>
    <text
       xml:space="preserve"
       style="font-style:normal;font-variant:normal;font-weight:normal;font-size:3.88055556px;line-height:125%;font-family:'Times New Roman';text-align:start;letter-spacing:0px;word-spacing:0px;text-anchor:start;fill:#000000;fill-opacity:1;stroke:none;stroke-width:0.264583;-inkscape-font-specification:'Times New Roman, Normal';font-stretch:normal;font-variant-ligatures:normal;font-variant-caps:normal;font-variant-numeric:normal;font-variant-east-asian:normal"
       x="119.02646"
       y="89.482819"
       id="text5622"><tspan
         sodipodi:role="line"
         x="119.02646"
         y="89.482819"
         id="tspan5620"
         style="stroke-width:0.264583;-inkscape-font-specification:'Times New Roman, Normal';font-family:'Times New Roman';font-weight:normal;font-style:normal;font-stretch:normal;font-variant:normal;font-size:3.88055556px;font-variant-ligatures:normal;font-variant-caps:normal;font-variant-numeric:normal;font-variant-east-asian:normal"><tspan
           dx="0"
           dy="0"
           style="font-style:normal;font-variant:normal;font-weight:normal;font-size:3.88055556px;font-family:'Times New Roman';fill:#000000;stroke-width:0.264583;-inkscape-font-specification:'Times New Roman, Normal';font-stretch:normal;font-variant-ligatures:normal;font-variant-caps:normal;font-variant-numeric:normal;font-variant-east-asian:normal"
           id="tspan5618">60</tspan></tspan></text>
    <text
       xml:space="preserve"
       style="font-style:normal;font-variant:normal;font-weight:normal;font-size:3.88055556px;line-height:125%;font-family:'Times New Roman';text-align:start;letter-spacing:0px;word-spacing:0px;text-anchor:start;fill:#000000;fill-opacity:1;stroke:none;stroke-width:0.264583;-inkscape-font-specification:'Times New Roman, Normal';font-stretch:normal;font-variant-ligatures:normal;font-variant-caps:normal;font-variant-numeric:normal;font-variant-east-asian:normal"
       x="145.04176"
       y="89.482819"
       id="text5628"><tspan
         sodipodi:role="line"
         x="145.04176"
         y="89.482819"
         id="tspan5626"
         style="stroke-width:0.264583;-inkscape-font-specification:'Times New Roman, Normal';font-family:'Times New Roman';font-weight:normal;font-style:normal;font-stretch:normal;font-variant:normal;font-size:3.88055556px;font-variant-ligatures:normal;font-variant-caps:normal;font-variant-numeric:normal;font-variant-east-asian:normal"><tspan
           dx="0"
           dy="0"
           style="font-style:normal;font-variant:normal;font-weight:normal;font-size:3.88055556px;font-family:'Times New Roman';fill:#000000;stroke-width:0.264583;-inkscape-font-specification:'Times New Roman, Normal';font-stretch:normal;font-variant-ligatures:normal;font-variant-caps:normal;font-variant-numeric:normal;font-variant-east-asian:normal"
           id="tspan5624">80</tspan></tspan></text>
    <text
       xml:space="preserve"
       style="font-style:normal;font-variant:normal;font-weight:normal;font-size:3.88055556px;line-height:125%;font-family:'Times New Roman';text-align:start;letter-spacing:0px;word-spacing:0px;text-anchor:start;fill:#000000;fill-opacity:1;stroke:none;stroke-width:0.264583;-inkscape-font-specification:'Times New Roman, Normal';font-stretch:normal;font-variant-ligatures:normal;font-variant-caps:normal;font-variant-numeric:normal;font-variant-east-asian:normal"
       x="170.17514"
       y="89.482819"
       id="text5634"><tspan
         sodipodi:role="line"
         x="170.17514"
         y="89.482819"
         id="tspan5632"
         style="stroke-width:0.264583;-inkscape-font-specification:'Times New Roman, Normal';font-family:'Times New Roman';font-weight:normal;font-style:normal;font-stretch:normal;font-variant:normal;font-size:3.88055556px;font-variant-ligatures:normal;font-variant-caps:normal;font-variant-numeric:normal;font-variant-east-asian:normal"><tspan
           dx="0"
           dy="0"
           style="font-style:normal;font-variant:normal;font-weight:normal;font-size:3.88055556px;font-family:'Times New Roman';fill:#000000;stroke-width:0.264583;-inkscape-font-specification:'Times New Roman, Normal';font-stretch:normal;font-variant-ligatures:normal;font-variant-caps:normal;font-variant-numeric:normal;font-variant-east-asian:normal"
           id="tspan5630">100</tspan></tspan></text>
    <text
       xml:space="preserve"
       style="font-style:normal;font-variant:normal;font-weight:normal;font-stretch:normal;font-size:4.23333px;line-height:125%;font-family:'Times New Roman';-inkscape-font-specification:'Times New Roman, Normal';font-variant-ligatures:normal;font-variant-caps:normal;font-variant-numeric:normal;font-variant-east-asian:normal;text-align:start;letter-spacing:0px;word-spacing:0px;text-anchor:start;fill:#000000;fill-opacity:1;stroke:none;stroke-width:0.264583"
       transform="rotate(-90)"
       x="-56.606773"
       y="28.168766"
       id="text5652"><tspan
         sodipodi:role="line"
         x="-56.606773"
         y="28.168766"
         id="tspan5650"
         style="font-style:normal;font-variant:normal;font-weight:normal;font-stretch:normal;font-size:4.23333px;font-family:'Times New Roman';-inkscape-font-specification:'Times New Roman, Normal';font-variant-ligatures:normal;font-variant-caps:normal;font-variant-numeric:normal;font-variant-east-asian:normal;stroke-width:0.264583"><tspan
           dx="0 0 0 0"
           dy="0 0 0 0"
           style="font-style:normal;font-variant:normal;font-weight:normal;font-stretch:normal;font-size:4.23333px;font-family:'Times New Roman';-inkscape-font-specification:'Times New Roman, Normal';font-variant-ligatures:normal;font-variant-caps:normal;font-variant-numeric:normal;font-variant-east-asian:normal;fill:#000000;stroke-width:0.264583"
           id="tspan5648">L<tspan
   style="font-size:65%;baseline-shift:super"
   id="tspan5886">2</tspan> Error</tspan></tspan></text>
    <text
       xml:space="preserve"
       style="font-style:normal;font-variant:normal;font-weight:normal;font-stretch:normal;font-size:4.23333px;line-height:125%;font-family:'Times New Roman';-inkscape-font-specification:'Times New Roman, Normal';font-variant-ligatures:normal;font-variant-caps:normal;font-variant-numeric:normal;font-variant-east-asian:normal;text-align:start;letter-spacing:0px;word-spacing:0px;text-anchor:start;fill:#000000;fill-opacity:1;stroke:none;stroke-width:0.264583"
       x="92.210297"
       y="94.617249"
       id="text5658"><tspan
         sodipodi:role="line"
         x="92.210297"
         y="94.617249"
         id="tspan5656"
         style="font-style:normal;font-variant:normal;font-weight:normal;font-stretch:normal;font-size:4.23333px;font-family:'Times New Roman';-inkscape-font-specification:'Times New Roman, Normal';font-variant-ligatures:normal;font-variant-caps:normal;font-variant-numeric:normal;font-variant-east-asian:normal;stroke-width:0.264583"><tspan
           dx="0"
           dy="0"
           style="font-style:normal;font-variant:normal;font-weight:normal;font-stretch:normal;font-size:4.23333px;font-family:'Times New Roman';-inkscape-font-specification:'Times New Roman, Normal';font-variant-ligatures:normal;font-variant-caps:normal;font-variant-numeric:normal;font-variant-east-asian:normal;fill:#000000;stroke-width:0.264583"
           id="tspan5654">No. Of Resamples</tspan></tspan></text>
    <path
       style="fill:#5b9bd5;fill-opacity:1;fill-rule:nonzero;stroke:#5b9bd5;stroke-width:0.0026457px;stroke-linecap:butt;stroke-linejoin:round;stroke-miterlimit:4;stroke-dasharray:none;stroke-opacity:1"
       d="m 46.21623,18.604546 h 1.650914 c 0.15345,0 0.275152,0.124348 0.275152,0.275153 0,0.15345 -0.121702,0.275152 -0.275152,0.275152 H 46.21623 c -0.150805,0 -0.275153,-0.121702 -0.275153,-0.275152 0,-0.150805 0.124348,-0.275153 0.275153,-0.275153 z m 3.852134,0 h 1.650913 c 0.15345,0 0.275153,0.124348 0.275153,0.275153 0,0.15345 -0.121703,0.275152 -0.275153,0.275152 h -1.650913 c -0.150804,0 -0.275153,-0.121702 -0.275153,-0.275152 0,-0.150805 0.124349,-0.275153 0.275153,-0.275153 z m 3.852132,0 h 1.185273 c 0.15345,0 0.275151,0.124348 0.275151,0.275153 0,0.15345 -0.121701,0.275152 -0.275151,0.275152 h -1.185273 c -0.150804,0 -0.275153,-0.121702 -0.275153,-0.275152 0,-0.150805 0.124349,-0.275153 0.275153,-0.275153 z"
       id="path5660" />
    <text
       xml:space="preserve"
       style="font-style:normal;font-variant:normal;font-weight:400;font-size:3.50573px;line-height:125%;font-family:'Times New Roman';text-align:start;letter-spacing:0px;word-spacing:0px;text-anchor:start;fill:#000000;fill-opacity:1;stroke:none;stroke-width:0.264583"
       x="56.086105"
       y="19.977335"
       id="text5666"><tspan
         sodipodi:role="line"
         x="56.086105"
         y="19.977335"
         id="tspan5664"
         style="stroke-width:0.264583"><tspan
           dx="0"
           dy="0"
           style="font-style:normal;font-variant:normal;font-weight:400;font-size:3.50573px;font-family:'Times New Roman';fill:#000000;stroke-width:0.264583"
           id="tspan5662">Fixed, R</tspan></tspan></text>
    <path
       style="fill:#ed7d31;fill-opacity:1;fill-rule:nonzero;stroke:#ed7d31;stroke-width:0.0026457px;stroke-linecap:butt;stroke-linejoin:round;stroke-miterlimit:4;stroke-dasharray:none;stroke-opacity:1"
       d="m 69.583015,18.604546 h 1.650915 c 0.15345,0 0.275154,0.124348 0.275154,0.275153 0,0.15345 -0.121704,0.275152 -0.275154,0.275152 h -1.650915 c -0.150805,0 -0.275151,-0.121702 -0.275151,-0.275152 0,-0.150805 0.124346,-0.275153 0.275151,-0.275153 z m 3.852135,0 h 1.650912 c 0.153451,0 0.275154,0.124348 0.275154,0.275153 0,0.15345 -0.121703,0.275152 -0.275154,0.275152 H 73.43515 c -0.150805,0 -0.275154,-0.121702 -0.275154,-0.275152 0,-0.150805 0.124349,-0.275153 0.275154,-0.275153 z m 3.852132,0 h 1.185272 c 0.153451,0 0.275154,0.124348 0.275154,0.275153 0,0.15345 -0.121703,0.275152 -0.275154,0.275152 h -1.185272 c -0.150805,0 -0.275151,-0.121702 -0.275151,-0.275152 0,-0.150805 0.124346,-0.275153 0.275151,-0.275153 z"
       id="path5668" />
    <text
       xml:space="preserve"
       style="font-style:normal;font-variant:normal;font-weight:400;font-size:3.50573px;line-height:125%;font-family:'Times New Roman';text-align:start;letter-spacing:0px;word-spacing:0px;text-anchor:start;fill:#000000;fill-opacity:1;stroke:none;stroke-width:0.264583"
       x="79.45475"
       y="19.977335"
       id="text5674"><tspan
         sodipodi:role="line"
         x="79.45475"
         y="19.977335"
         id="tspan5672"
         style="stroke-width:0.264583"><tspan
           dx="0"
           dy="0"
           style="font-style:normal;font-variant:normal;font-weight:400;font-size:3.50573px;font-family:'Times New Roman';fill:#000000;stroke-width:0.264583"
           id="tspan5670">Fixed, H</tspan></tspan></text>
    <path
       style="fill:none;stroke:#a5a5a5;stroke-width:0.550305px;stroke-linecap:round;stroke-linejoin:round;stroke-miterlimit:4;stroke-dasharray:none;stroke-opacity:1"
       d="m 93.119126,18.879699 h 8.889544"
       id="path5676" />
    <path
       style="fill:#a5a5a5;fill-opacity:1;fill-rule:nonzero;stroke:none;stroke-width:0.264583"
       d="m 98.431684,18.858533 c 0,0.492099 -0.396854,0.888954 -0.888953,0.888954 -0.489455,0 -0.888955,-0.396855 -0.888955,-0.888954 0,-0.489454 0.3995,-0.888954 0.888955,-0.888954 0.492099,0 0.888953,0.3995 0.888953,0.888954 z"
       id="path5678" />
    <path
       style="fill:none;stroke:#a5a5a5;stroke-width:0.253987px;stroke-linecap:butt;stroke-linejoin:round;stroke-miterlimit:4;stroke-dasharray:none;stroke-opacity:1"
       d="m 98.431684,18.858533 c 0,0.492099 -0.396854,0.888954 -0.888953,0.888954 -0.489455,0 -0.888955,-0.396855 -0.888955,-0.888954 0,-0.489454 0.3995,-0.888954 0.888955,-0.888954 0.492099,0 0.888953,0.3995 0.888953,0.888954"
       id="path5680" />
    <text
       xml:space="preserve"
       style="font-style:normal;font-variant:normal;font-weight:400;font-size:3.50573px;line-height:125%;font-family:'Times New Roman';text-align:start;letter-spacing:0px;word-spacing:0px;text-anchor:start;fill:#000000;fill-opacity:1;stroke:none;stroke-width:0.264583"
       x="103.01742"
       y="19.977335"
       id="text5686"><tspan
         sodipodi:role="line"
         x="103.01742"
         y="19.977335"
         id="tspan5684"
         style="stroke-width:0.264583"><tspan
           dx="0"
           dy="0"
           style="font-style:normal;font-variant:normal;font-weight:400;font-size:3.50573px;font-family:'Times New Roman';fill:#000000;stroke-width:0.264583"
           id="tspan5682">PDE, R</tspan></tspan></text>
    <path
       style="fill:none;stroke:#70ad47;stroke-width:0.550305px;stroke-linecap:round;stroke-linejoin:round;stroke-miterlimit:4;stroke-dasharray:none;stroke-opacity:1"
       d="m 115.13132,18.879699 h 8.88954"
       id="path5688" />
    <path
       style="fill:#70ad47;fill-opacity:1;fill-rule:nonzero;stroke:none;stroke-width:0.264583"
       d="m 120.44388,18.858533 c 0,0.492099 -0.39686,0.888954 -0.88896,0.888954 -0.4868,0 -0.88895,-0.396855 -0.88895,-0.888954 0,-0.486808 0.40215,-0.888954 0.88895,-0.888954 0.4921,0 0.88896,0.402146 0.88896,0.888954 z"
       id="path5690" />
    <path
       style="fill:none;stroke:#70ad47;stroke-width:0.253987px;stroke-linecap:butt;stroke-linejoin:round;stroke-miterlimit:4;stroke-dasharray:none;stroke-opacity:1"
       d="m 120.44388,18.858533 c 0,0.492099 -0.39686,0.888954 -0.88896,0.888954 -0.4868,0 -0.88895,-0.396855 -0.88895,-0.888954 0,-0.486808 0.40215,-0.888954 0.88895,-0.888954 0.4921,0 0.88896,0.402146 0.88896,0.888954"
       id="path5692" />
    <text
       xml:space="preserve"
       style="font-style:normal;font-variant:normal;font-weight:400;font-size:3.50573px;line-height:125%;font-family:'Times New Roman';text-align:start;letter-spacing:0px;word-spacing:0px;text-anchor:start;fill:#000000;fill-opacity:1;stroke:none;stroke-width:0.264583"
       x="125.01383"
       y="19.977335"
       id="text5698"><tspan
         sodipodi:role="line"
         x="125.01383"
         y="19.977335"
         id="tspan5696"
         style="stroke-width:0.264583"><tspan
           dx="0"
           dy="0"
           style="font-style:normal;font-variant:normal;font-weight:400;font-size:3.50573px;font-family:'Times New Roman';fill:#000000;stroke-width:0.264583"
           id="tspan5694">PDE, H</tspan></tspan></text>
    <path
       style="fill:none;stroke:#ffc000;stroke-width:0.550305px;stroke-linecap:round;stroke-linejoin:round;stroke-miterlimit:4;stroke-dasharray:none;stroke-opacity:1"
       d="m 137.31284,18.879699 h 8.88953"
       id="path5700" />
    <path
       style="fill:#ffc000;fill-opacity:1;fill-rule:nonzero;stroke:none;stroke-width:0.264583"
       d="m 142.6254,18.858533 c 0,0.492099 -0.39686,0.888954 -0.88896,0.888954 -0.48681,0 -0.88895,-0.396855 -0.88895,-0.888954 0,-0.486808 0.40214,-0.888954 0.88895,-0.888954 0.4921,0 0.88896,0.402146 0.88896,0.888954 z"
       id="path5702" />
    <path
       style="fill:none;stroke:#ffc000;stroke-width:0.253987px;stroke-linecap:butt;stroke-linejoin:round;stroke-miterlimit:4;stroke-dasharray:none;stroke-opacity:1"
       d="m 142.6254,18.858533 c 0,0.492099 -0.39686,0.888954 -0.88896,0.888954 -0.48681,0 -0.88895,-0.396855 -0.88895,-0.888954 0,-0.486808 0.40214,-0.888954 0.88895,-0.888954 0.4921,0 0.88896,0.402146 0.88896,0.888954"
       id="path5704" />
    <text
       xml:space="preserve"
       style="font-style:normal;font-variant:normal;font-weight:400;font-size:3.50573px;line-height:125%;font-family:'Times New Roman';text-align:start;letter-spacing:0px;word-spacing:0px;text-anchor:start;fill:#000000;fill-opacity:1;stroke:none;stroke-width:0.264583"
       x="147.20425"
       y="19.977335"
       id="text5710"><tspan
         sodipodi:role="line"
         x="147.20425"
         y="19.977335"
         id="tspan5708"
         style="stroke-width:0.264583"><tspan
           dx="0"
           dy="0"
           style="font-style:normal;font-variant:normal;font-weight:400;font-size:3.50573px;font-family:'Times New Roman';fill:#000000;stroke-width:0.264583"
           id="tspan5706">Uxt</tspan></tspan></text>
    <path
       style="fill:none;stroke:#4472c4;stroke-width:0.550305px;stroke-linecap:round;stroke-linejoin:round;stroke-miterlimit:4;stroke-dasharray:none;stroke-opacity:1"
       d="m 153.82198,18.879699 h 8.88954"
       id="path5712" />
    <path
       style="fill:#4472c4;fill-opacity:1;fill-rule:nonzero;stroke:none;stroke-width:0.264583"
       d="m 159.13454,18.858533 c 0,0.492099 -0.39686,0.888954 -0.88896,0.888954 -0.4868,0 -0.88895,-0.396855 -0.88895,-0.888954 0,-0.486808 0.40215,-0.888954 0.88895,-0.888954 0.4921,0 0.88896,0.402146 0.88896,0.888954 z"
       id="path5714" />
    <path
       style="fill:none;stroke:#4472c4;stroke-width:0.253987px;stroke-linecap:butt;stroke-linejoin:round;stroke-miterlimit:4;stroke-dasharray:none;stroke-opacity:1"
       d="m 159.13454,18.858533 c 0,0.492099 -0.39686,0.888954 -0.88896,0.888954 -0.4868,0 -0.88895,-0.396855 -0.88895,-0.888954 0,-0.486808 0.40215,-0.888954 0.88895,-0.888954 0.4921,0 0.88896,0.402146 0.88896,0.888954"
       id="path5716" />
    <text
       xml:space="preserve"
       style="font-style:normal;font-variant:normal;font-weight:400;font-size:3.50573px;line-height:125%;font-family:'Times New Roman';text-align:start;letter-spacing:0px;word-spacing:0px;text-anchor:start;fill:#000000;fill-opacity:1;stroke:none;stroke-width:0.264583"
       x="163.71173"
       y="19.977335"
       id="text5722"><tspan
         sodipodi:role="line"
         x="163.71173"
         y="19.977335"
         id="tspan5720"
         style="stroke-width:0.264583"><tspan
           dx="0"
           dy="0"
           style="font-style:normal;font-variant:normal;font-weight:400;font-size:3.50573px;font-family:'Times New Roman';fill:#000000;stroke-width:0.264583"
           id="tspan5718">PDExt</tspan></tspan></text>
    <path
       style="fill:none;stroke:#000000;stroke-width:0.95995px;stroke-linecap:butt;stroke-linejoin:round;stroke-miterlimit:4;stroke-dasharray:none;stroke-opacity:1"
       clip-path="url(#clipEmfPath2)"
       d="M 0.8799543,0.8799543 H 606.92848 V 341.02229 H 0.8799543 Z"
       id="path5724"
       transform="matrix(0.26458333,0,0,0.26458333,22.129814,8.3392458)" />
  </g>
</svg>
