<?xml version="1.0" encoding="UTF-8" standalone="no"?>
<!-- Created with Inkscape (http://www.inkscape.org/) -->

<svg
   width="210mm"
   height="297mm"
   viewBox="0 0 210 297"
   version="1.1"
   id="svg803"
   inkscape:version="1.2.2 (732a01da63, 2022-12-09)"
   sodipodi:docname="visc_001.svg"
   xmlns:inkscape="http://www.inkscape.org/namespaces/inkscape"
   xmlns:sodipodi="http://sodipodi.sourceforge.net/DTD/sodipodi-0.dtd"
   xmlns="http://www.w3.org/2000/svg"
   xmlns:svg="http://www.w3.org/2000/svg">
  <sodipodi:namedview
     id="namedview805"
     pagecolor="#ffffff"
     bordercolor="#000000"
     borderopacity="0.25"
     inkscape:showpageshadow="2"
     inkscape:pageopacity="0.0"
     inkscape:pagecheckerboard="0"
     inkscape:deskcolor="#d1d1d1"
     inkscape:document-units="mm"
     showgrid="false"
     inkscape:zoom="1.4912879"
     inkscape:cx="388.92558"
     inkscape:cy="281.63576"
     inkscape:window-width="1920"
     inkscape:window-height="1017"
     inkscape:window-x="1912"
     inkscape:window-y="-8"
     inkscape:window-maximized="1"
     inkscape:current-layer="layer1" />
  <defs
     id="defs800">
    <clipPath
       clipPathUnits="userSpaceOnUse"
       id="clipEmfPath1">
      <path
         d="M 79.355878,42.717781 L 521.09293,42.717781 L 521.09293,170.39115 L 79.355878,170.39115 z"
         id="path807" />
    </clipPath>
    <clipPath
       clipPathUnits="userSpaceOnUse"
       id="clipEmfPath2">
      <path
         d="M 0.47997507,0.47997507 L 564.61067,0.47997507 L 564.61067,227.02821 L 0.47997507,227.02821 z"
         id="path810" />
    </clipPath>
    <pattern
       id="EMFhbasepattern"
       patternUnits="userSpaceOnUse"
       width="6"
       height="6"
       x="0"
       y="0" />
  </defs>
  <g
     inkscape:label="Layer 1"
     inkscape:groupmode="layer"
     id="layer1">
    <path
       style="fill:#ffffff;fill-opacity:1;fill-rule:evenodd;stroke:none;stroke-width:0.275751"
       d="M 31.051138,-3.418549 V 61.413513 H 180.05673 V -3.418549 Z"
       id="path816" />
    <path
       style="fill:none;stroke:#000000;stroke-width:0.264708px;stroke-linecap:butt;stroke-linejoin:round;stroke-miterlimit:4;stroke-dasharray:none;stroke-opacity:1"
       d="M 51.793394,44.998585 V 8.582279"
       id="path818" />
    <path
       style="fill:none;stroke:#000000;stroke-width:0.264708px;stroke-linecap:butt;stroke-linejoin:round;stroke-miterlimit:4;stroke-dasharray:none;stroke-opacity:1"
       d="m 50.989103,44.998585 h 0.804291 M 50.989103,34.055302 h 0.804291 m -0.804291,-6.437225 h 0.804291 m -0.804291,-4.552039 h 0.804291 m -0.804291,-3.494495 h 0.804291 m -0.804291,-2.896751 h 0.804291 m -0.804291,-2.43695 h 0.804291 m -0.804291,-2.115088 h 0.804291 m -0.804291,-1.885188 h 0.804291 M 50.989103,8.582279 h 0.804291"
       id="path820" />
    <path
       style="fill:none;stroke:#000000;stroke-width:0.264708px;stroke-linecap:butt;stroke-linejoin:round;stroke-miterlimit:4;stroke-dasharray:none;stroke-opacity:1"
       d="M 51.793394,44.998585 H 168.41567"
       id="path822" />
    <path
       style="fill:none;stroke:#000000;stroke-width:0.264708px;stroke-linecap:butt;stroke-linejoin:round;stroke-miterlimit:4;stroke-dasharray:none;stroke-opacity:1"
       d="m 51.793394,44.998585 v 0.919605 m 11.683394,-0.919605 v 0.919605 m 11.64106,-0.919605 v 0.919605 m 11.683395,-0.919605 v 0.919605 m 11.64106,-0.919605 V 45.91819 M 110.1257,44.998585 v 0.919605 m 11.64107,-0.919605 v 0.919605 m 11.68339,-0.919605 v 0.919605 m 11.64106,-0.919605 v 0.919605 m 11.64106,-0.919605 v 0.919605 m 11.68339,-0.919605 v 0.919605"
       id="path824" />
    <path
       style="fill:#5b9bd5;fill-opacity:1;fill-rule:nonzero;stroke:#5b9bd5;stroke-width:0.019999px;stroke-linecap:butt;stroke-linejoin:round;stroke-miterlimit:4;stroke-dasharray:none;stroke-opacity:1"
       clip-path="url(#clipEmfPath1)"
       d="m 519.97299,91.275259 h -6.23967 c -0.55997,0 -1.03995,-0.459976 -1.03995,-1.039946 0,-0.559971 0.47998,-1.039946 1.03995,-1.039946 h 6.23967 v 0 c 0.57997,0 1.03995,0.479975 1.03995,1.039946 0,0.57997 -0.45998,1.039946 -1.03995,1.039946 z m -14.55924,0 h -6.23968 c -0.55997,0 -1.03994,-0.459976 -1.03994,-1.039946 0,-0.559971 0.47997,-1.039946 1.03994,-1.039946 h 6.23968 v 0 c 0.57997,0 1.03995,0.479975 1.03995,1.039946 0,0.57997 -0.45998,1.039946 -1.03995,1.039946 z m -14.55924,0 h -6.23968 c -0.55997,0 -1.03995,-0.459976 -1.03995,-1.039946 0,-0.559971 0.47998,-1.039946 1.03995,-1.039946 h 6.23968 v 0 c 0.57997,0 1.03994,0.479975 1.03994,1.039946 0,0.57997 -0.45997,1.039946 -1.03994,1.039946 z m -14.55925,0 h -6.23967 c -0.55998,0 -1.03995,-0.459976 -1.03995,-1.039946 0,-0.559971 0.47997,-1.039946 1.03995,-1.039946 h 6.23967 v 0 c 0.57997,0 1.03995,0.479975 1.03995,1.039946 0,0.57997 -0.45998,1.039946 -1.03995,1.039946 z m -14.55924,0 h -6.23968 c -0.55997,0 -1.03994,-0.459976 -1.03994,-1.039946 0,-0.559971 0.47997,-1.039946 1.03994,-1.039946 h 6.23968 v 0 c 0.57997,0 1.03994,0.479975 1.03994,1.039946 0,0.57997 -0.45997,1.039946 -1.03994,1.039946 z m -14.55925,0 h -6.23967 c -0.55997,0 -1.03995,-0.459976 -1.03995,-1.039946 0,-0.559971 0.47998,-1.039946 1.03995,-1.039946 h 6.23967 v 0 c 0.57997,0 1.03995,0.479975 1.03995,1.039946 0,0.57997 -0.45998,1.039946 -1.03995,1.039946 z m -14.55924,0 h -6.23968 c -0.55997,0 -1.03994,-0.459976 -1.03994,-1.039946 0,-0.559971 0.47997,-1.039946 1.03994,-1.039946 h 6.23968 v 0 c 0.57997,0 1.03995,0.479975 1.03995,1.039946 0,0.57997 -0.45998,1.039946 -1.03995,1.039946 z m -14.55924,0 h -6.23968 c -0.55997,0 -1.03995,-0.459976 -1.03995,-1.039946 0,-0.559971 0.47998,-1.039946 1.03995,-1.039946 h 6.23968 v 0 c 0.57997,0 1.03994,0.479975 1.03994,1.039946 0,0.57997 -0.45997,1.039946 -1.03994,1.039946 z m -14.55925,0 h -6.23967 c -0.55997,0 -1.03995,-0.459976 -1.03995,-1.039946 0,-0.559971 0.47998,-1.039946 1.03995,-1.039946 h 6.23967 v 0 c 0.57997,0 1.03995,0.479975 1.03995,1.039946 0,0.57997 -0.45998,1.039946 -1.03995,1.039946 z m -14.55924,0 h -6.23968 c -0.55997,0 -1.03994,-0.459976 -1.03994,-1.039946 0,-0.559971 0.47997,-1.039946 1.03994,-1.039946 h 6.23968 v 0 c 0.57997,0 1.03994,0.479975 1.03994,1.039946 0,0.57997 -0.45997,1.039946 -1.03994,1.039946 z m -14.55925,0 h -6.23967 c -0.55997,0 -1.03995,-0.459976 -1.03995,-1.039946 0,-0.559971 0.47998,-1.039946 1.03995,-1.039946 h 6.23967 v 0 c 0.57997,0 1.03995,0.479975 1.03995,1.039946 0,0.57997 -0.45998,1.039946 -1.03995,1.039946 z m -14.55924,0 h -6.23967 c -0.55998,0 -1.03995,-0.459976 -1.03995,-1.039946 0,-0.559971 0.47997,-1.039946 1.03995,-1.039946 h 6.23967 v 0 c 0.57997,0 1.03995,0.479975 1.03995,1.039946 0,0.57997 -0.45998,1.039946 -1.03995,1.039946 z m -14.55924,0 h -6.23968 c -0.55997,0 -1.03994,-0.459976 -1.03994,-1.039946 0,-0.559971 0.47997,-1.039946 1.03994,-1.039946 h 6.23968 v 0 c 0.57997,0 1.03994,0.479975 1.03994,1.039946 0,0.57997 -0.45997,1.039946 -1.03994,1.039946 z m -14.55925,0 h -6.23967 c -0.55997,0 -1.03995,-0.459976 -1.03995,-1.039946 0,-0.559971 0.47998,-1.039946 1.03995,-1.039946 h 6.23967 v 0 c 0.57997,0 1.03995,0.479975 1.03995,1.039946 0,0.57997 -0.45998,1.039946 -1.03995,1.039946 z m -14.55924,0 h -6.23968 c -0.55997,0 -1.03994,-0.459976 -1.03994,-1.039946 0,-0.559971 0.47997,-1.039946 1.03994,-1.039946 h 6.23968 v 0 c 0.57997,0 1.03995,0.479975 1.03995,1.039946 0,0.57997 -0.45998,1.039946 -1.03995,1.039946 z m -14.55924,0 h -1.9199 -4.31978 c -0.55997,0 -1.03995,-0.459976 -1.03995,-1.039946 0,-0.559971 0.47998,-1.039946 1.03995,-1.039946 h 4.31978 1.9199 v 0 c 0.57997,0 1.03994,0.479975 1.03994,1.039946 0,0.57997 -0.45997,1.039946 -1.03994,1.039946 z m -14.55925,0 h -6.23967 c -0.55997,0 -1.03995,-0.459976 -1.03995,-1.039946 0,-0.559971 0.47998,-1.039946 1.03995,-1.039946 h 6.23967 v 0 c 0.57997,0 1.03995,0.479975 1.03995,1.039946 0,0.57997 -0.45998,1.039946 -1.03995,1.039946 z m -14.55924,0 h -6.23968 c -0.55997,0 -1.03994,-0.459976 -1.03994,-1.039946 0,-0.559971 0.47997,-1.039946 1.03994,-1.039946 h 6.23968 v 0 c 0.57997,0 1.03994,0.479975 1.03994,1.039946 0,0.57997 -0.45997,1.039946 -1.03994,1.039946 z m -14.55925,0 h -6.23967 c -0.55997,0 -1.03995,-0.459976 -1.03995,-1.039946 0,-0.559971 0.47998,-1.039946 1.03995,-1.039946 h 6.23967 v 0 c 0.57997,0 1.03995,0.479975 1.03995,1.039946 0,0.57997 -0.45998,1.039946 -1.03995,1.039946 z m -14.55924,0 h -6.23968 c -0.55997,0 -1.03994,-0.459976 -1.03994,-1.039946 0,-0.559971 0.47997,-1.039946 1.03994,-1.039946 h 6.23968 v 0 c 0.57997,0 1.03995,0.479975 1.03995,1.039946 0,0.57997 -0.45998,1.039946 -1.03995,1.039946 z m -14.55924,0 h -6.23968 c -0.55997,0 -1.03995,-0.459976 -1.03995,-1.039946 0,-0.559971 0.47998,-1.039946 1.03995,-1.039946 h 6.23968 v 0 c 0.57997,0 1.03994,0.479975 1.03994,1.039946 0,0.57997 -0.45997,1.039946 -1.03994,1.039946 z m -14.55925,0 h -6.23967 c -0.55997,0 -1.03995,-0.459976 -1.03995,-1.039946 0,-0.559971 0.47998,-1.039946 1.03995,-1.039946 h 6.23967 v 0 c 0.57997,0 1.03995,0.479975 1.03995,1.039946 0,0.57997 -0.45998,1.039946 -1.03995,1.039946 z m -14.55924,0 h -6.23968 c -0.55997,0 -1.03994,-0.459976 -1.03994,-1.039946 0,-0.559971 0.47997,-1.039946 1.03994,-1.039946 h 6.23968 v 0 c 0.57997,0 1.03995,0.479975 1.03995,1.039946 0,0.57997 -0.45998,1.039946 -1.03995,1.039946 z m -14.55924,0 h -6.23968 c -0.55997,0 -1.03995,-0.459976 -1.03995,-1.039946 0,-0.559971 0.47998,-1.039946 1.03995,-1.039946 h 6.23968 v 0 c 0.57997,0 1.03994,0.479975 1.03994,1.039946 0,0.57997 -0.45997,1.039946 -1.03994,1.039946 z m -14.55925,0 h -3.03984 -3.19983 c -0.55998,0 -1.03995,-0.459976 -1.03995,-1.039946 0,-0.559971 0.47997,-1.039946 1.03995,-1.039946 h 3.19983 3.03984 v 0 c 0.57997,0 1.03995,0.479975 1.03995,1.039946 0,0.57997 -0.45998,1.039946 -1.03995,1.039946 z m -14.55924,0 h -6.23968 c -0.55997,0 -1.03994,-0.459976 -1.03994,-1.039946 0,-0.559971 0.47997,-1.039946 1.03994,-1.039946 h 6.23968 v 0 c 0.57997,0 1.03994,0.479975 1.03994,1.039946 0,0.57997 -0.45997,1.039946 -1.03994,1.039946 z m -14.55925,0 h -6.23967 c -0.55997,0 -1.03995,-0.459976 -1.03995,-1.039946 0,-0.559971 0.47998,-1.039946 1.03995,-1.039946 h 6.23967 v 0 c 0.57997,0 1.03995,0.479975 1.03995,1.039946 0,0.57997 -0.45998,1.039946 -1.03995,1.039946 z m -14.55924,0 h -3.51982 -2.71986 c -0.55997,0 -1.03994,-0.459976 -1.03994,-1.039946 0,-0.559971 0.47997,-1.039946 1.03994,-1.039946 h 2.71986 3.51982 v 0 c 0.57997,0 1.03995,0.479975 1.03995,1.039946 0,0.57997 -0.45998,1.039946 -1.03995,1.039946 z m -14.55924,0 h -6.23968 c -0.55997,0 -1.03995,-0.459976 -1.03995,-1.039946 0,-0.559971 0.47998,-1.039946 1.03995,-1.039946 h 6.23968 v 0 c 0.57997,0 1.03994,0.479975 1.03994,1.039946 0,0.57997 -0.45997,1.039946 -1.03994,1.039946 z m -14.559247,0 h -6.239676 c -0.559971,0 -1.039946,-0.459976 -1.039946,-1.039946 0,-0.559971 0.479975,-1.039946 1.039946,-1.039946 h 6.239676 v 0 c 0.57997,0 1.039946,0.479975 1.039946,1.039946 0,0.57997 -0.459976,1.039946 -1.039946,1.039946 z"
       id="path826"
       transform="matrix(0.26458333,0,0,0.28739108,30.818316,-3.67144)" />
    <path
       style="fill:#ed7d31;fill-opacity:1;fill-rule:nonzero;stroke:#ed7d31;stroke-width:0.019999px;stroke-linecap:butt;stroke-linejoin:round;stroke-miterlimit:4;stroke-dasharray:none;stroke-opacity:1"
       clip-path="url(#clipEmfPath1)"
       d="m 519.97299,80.875799 h -6.23967 c -0.55997,0 -1.03995,-0.459976 -1.03995,-1.039946 0,-0.559971 0.47998,-1.039946 1.03995,-1.039946 h 6.23967 v 0 c 0.57997,0 1.03995,0.479975 1.03995,1.039946 0,0.57997 -0.45998,1.039946 -1.03995,1.039946 z m -14.55924,0 h -6.23968 c -0.55997,0 -1.03994,-0.459976 -1.03994,-1.039946 0,-0.559971 0.47997,-1.039946 1.03994,-1.039946 h 6.23968 v 0 c 0.57997,0 1.03995,0.479975 1.03995,1.039946 0,0.57997 -0.45998,1.039946 -1.03995,1.039946 z m -14.55924,0 h -6.23968 c -0.55997,0 -1.03995,-0.459976 -1.03995,-1.039946 0,-0.559971 0.47998,-1.039946 1.03995,-1.039946 h 6.23968 v 0 c 0.57997,0 1.03994,0.479975 1.03994,1.039946 0,0.57997 -0.45997,1.039946 -1.03994,1.039946 z m -14.55925,0 h -6.23967 c -0.55998,0 -1.03995,-0.459976 -1.03995,-1.039946 0,-0.559971 0.47997,-1.039946 1.03995,-1.039946 h 6.23967 v 0 c 0.57997,0 1.03995,0.479975 1.03995,1.039946 0,0.57997 -0.45998,1.039946 -1.03995,1.039946 z m -14.55924,0 h -6.23968 c -0.55997,0 -1.03994,-0.459976 -1.03994,-1.039946 0,-0.559971 0.47997,-1.039946 1.03994,-1.039946 h 6.23968 v 0 c 0.57997,0 1.03994,0.479975 1.03994,1.039946 0,0.57997 -0.45997,1.039946 -1.03994,1.039946 z m -14.55925,0 h -6.23967 c -0.55997,0 -1.03995,-0.459976 -1.03995,-1.039946 0,-0.559971 0.47998,-1.039946 1.03995,-1.039946 h 6.23967 v 0 c 0.57997,0 1.03995,0.479975 1.03995,1.039946 0,0.57997 -0.45998,1.039946 -1.03995,1.039946 z m -14.55924,0 h -6.23968 c -0.55997,0 -1.03994,-0.459976 -1.03994,-1.039946 0,-0.559971 0.47997,-1.039946 1.03994,-1.039946 h 6.23968 v 0 c 0.57997,0 1.03995,0.479975 1.03995,1.039946 0,0.57997 -0.45998,1.039946 -1.03995,1.039946 z m -14.55924,0 h -6.23968 c -0.55997,0 -1.03995,-0.459976 -1.03995,-1.039946 0,-0.559971 0.47998,-1.039946 1.03995,-1.039946 h 6.23968 v 0 c 0.57997,0 1.03994,0.479975 1.03994,1.039946 0,0.57997 -0.45997,1.039946 -1.03994,1.039946 z m -14.55925,0 h -6.23967 c -0.55997,0 -1.03995,-0.459976 -1.03995,-1.039946 0,-0.559971 0.47998,-1.039946 1.03995,-1.039946 h 6.23967 v 0 c 0.57997,0 1.03995,0.479975 1.03995,1.039946 0,0.57997 -0.45998,1.039946 -1.03995,1.039946 z m -14.55924,0 h -6.23968 c -0.55997,0 -1.03994,-0.459976 -1.03994,-1.039946 0,-0.559971 0.47997,-1.039946 1.03994,-1.039946 h 6.23968 v 0 c 0.57997,0 1.03994,0.479975 1.03994,1.039946 0,0.57997 -0.45997,1.039946 -1.03994,1.039946 z m -14.55925,0 h -6.23967 c -0.55997,0 -1.03995,-0.459976 -1.03995,-1.039946 0,-0.559971 0.47998,-1.039946 1.03995,-1.039946 h 6.23967 v 0 c 0.57997,0 1.03995,0.479975 1.03995,1.039946 0,0.57997 -0.45998,1.039946 -1.03995,1.039946 z m -14.55924,0 h -6.23967 c -0.55998,0 -1.03995,-0.459976 -1.03995,-1.039946 0,-0.559971 0.47997,-1.039946 1.03995,-1.039946 h 6.23967 v 0 c 0.57997,0 1.03995,0.479975 1.03995,1.039946 0,0.57997 -0.45998,1.039946 -1.03995,1.039946 z m -14.55924,0 h -6.23968 c -0.55997,0 -1.03994,-0.459976 -1.03994,-1.039946 0,-0.559971 0.47997,-1.039946 1.03994,-1.039946 h 6.23968 v 0 c 0.57997,0 1.03994,0.479975 1.03994,1.039946 0,0.57997 -0.45997,1.039946 -1.03994,1.039946 z m -14.55925,0 h -6.23967 c -0.55997,0 -1.03995,-0.459976 -1.03995,-1.039946 0,-0.559971 0.47998,-1.039946 1.03995,-1.039946 h 6.23967 v 0 c 0.57997,0 1.03995,0.479975 1.03995,1.039946 0,0.57997 -0.45998,1.039946 -1.03995,1.039946 z m -14.55924,0 h -6.23968 c -0.55997,0 -1.03994,-0.459976 -1.03994,-1.039946 0,-0.559971 0.47997,-1.039946 1.03994,-1.039946 h 6.23968 v 0 c 0.57997,0 1.03995,0.479975 1.03995,1.039946 0,0.57997 -0.45998,1.039946 -1.03995,1.039946 z m -14.55924,0 h -1.9199 -4.31978 c -0.55997,0 -1.03995,-0.459976 -1.03995,-1.039946 0,-0.559971 0.47998,-1.039946 1.03995,-1.039946 h 4.31978 1.9199 v 0 c 0.57997,0 1.03994,0.479975 1.03994,1.039946 0,0.57997 -0.45997,1.039946 -1.03994,1.039946 z m -14.55925,0 h -6.23967 c -0.55997,0 -1.03995,-0.459976 -1.03995,-1.039946 0,-0.559971 0.47998,-1.039946 1.03995,-1.039946 h 6.23967 v 0 c 0.57997,0 1.03995,0.479975 1.03995,1.039946 0,0.57997 -0.45998,1.039946 -1.03995,1.039946 z m -14.55924,0 h -6.23968 c -0.55997,0 -1.03994,-0.459976 -1.03994,-1.039946 0,-0.559971 0.47997,-1.039946 1.03994,-1.039946 h 6.23968 v 0 c 0.57997,0 1.03994,0.479975 1.03994,1.039946 0,0.57997 -0.45997,1.039946 -1.03994,1.039946 z m -14.55925,0 h -6.23967 c -0.55997,0 -1.03995,-0.459976 -1.03995,-1.039946 0,-0.559971 0.47998,-1.039946 1.03995,-1.039946 h 6.23967 v 0 c 0.57997,0 1.03995,0.479975 1.03995,1.039946 0,0.57997 -0.45998,1.039946 -1.03995,1.039946 z m -14.55924,0 h -6.23968 c -0.55997,0 -1.03994,-0.459976 -1.03994,-1.039946 0,-0.559971 0.47997,-1.039946 1.03994,-1.039946 h 6.23968 v 0 c 0.57997,0 1.03995,0.479975 1.03995,1.039946 0,0.57997 -0.45998,1.039946 -1.03995,1.039946 z m -14.55924,0 h -6.23968 c -0.55997,0 -1.03995,-0.459976 -1.03995,-1.039946 0,-0.559971 0.47998,-1.039946 1.03995,-1.039946 h 6.23968 v 0 c 0.57997,0 1.03994,0.479975 1.03994,1.039946 0,0.57997 -0.45997,1.039946 -1.03994,1.039946 z m -14.55925,0 h -6.23967 c -0.55997,0 -1.03995,-0.459976 -1.03995,-1.039946 0,-0.559971 0.47998,-1.039946 1.03995,-1.039946 h 6.23967 v 0 c 0.57997,0 1.03995,0.479975 1.03995,1.039946 0,0.57997 -0.45998,1.039946 -1.03995,1.039946 z m -14.55924,0 h -6.23968 c -0.55997,0 -1.03994,-0.459976 -1.03994,-1.039946 0,-0.559971 0.47997,-1.039946 1.03994,-1.039946 h 6.23968 v 0 c 0.57997,0 1.03995,0.479975 1.03995,1.039946 0,0.57997 -0.45998,1.039946 -1.03995,1.039946 z m -14.55924,0 h -6.23968 c -0.55997,0 -1.03995,-0.459976 -1.03995,-1.039946 0,-0.559971 0.47998,-1.039946 1.03995,-1.039946 h 6.23968 v 0 c 0.57997,0 1.03994,0.479975 1.03994,1.039946 0,0.57997 -0.45997,1.039946 -1.03994,1.039946 z m -14.55925,0 h -3.03984 -3.19983 c -0.55998,0 -1.03995,-0.459976 -1.03995,-1.039946 0,-0.559971 0.47997,-1.039946 1.03995,-1.039946 h 3.19983 3.03984 v 0 c 0.57997,0 1.03995,0.479975 1.03995,1.039946 0,0.57997 -0.45998,1.039946 -1.03995,1.039946 z m -14.55924,0 h -6.23968 c -0.55997,0 -1.03994,-0.459976 -1.03994,-1.039946 0,-0.559971 0.47997,-1.039946 1.03994,-1.039946 h 6.23968 v 0 c 0.57997,0 1.03994,0.479975 1.03994,1.039946 0,0.57997 -0.45997,1.039946 -1.03994,1.039946 z m -14.55925,0 h -6.23967 c -0.55997,0 -1.03995,-0.459976 -1.03995,-1.039946 0,-0.559971 0.47998,-1.039946 1.03995,-1.039946 h 6.23967 v 0 c 0.57997,0 1.03995,0.479975 1.03995,1.039946 0,0.57997 -0.45998,1.039946 -1.03995,1.039946 z m -14.55924,0 h -3.51982 -2.71986 c -0.55997,0 -1.03994,-0.459976 -1.03994,-1.039946 0,-0.559971 0.47997,-1.039946 1.03994,-1.039946 h 2.71986 3.51982 v 0 c 0.57997,0 1.03995,0.479975 1.03995,1.039946 0,0.57997 -0.45998,1.039946 -1.03995,1.039946 z m -14.55924,0 h -6.23968 c -0.55997,0 -1.03995,-0.459976 -1.03995,-1.039946 0,-0.559971 0.47998,-1.039946 1.03995,-1.039946 h 6.23968 v 0 c 0.57997,0 1.03994,0.479975 1.03994,1.039946 0,0.57997 -0.45997,1.039946 -1.03994,1.039946 z m -14.559247,0 h -6.239676 c -0.559971,0 -1.039946,-0.459976 -1.039946,-1.039946 0,-0.559971 0.479975,-1.039946 1.039946,-1.039946 h 6.239676 v 0 c 0.57997,0 1.039946,0.479975 1.039946,1.039946 0,0.57997 -0.459976,1.039946 -1.039946,1.039946 z"
       id="path828"
       transform="matrix(0.26458333,0,0,0.28739108,30.818316,-3.67144)" />
    <path
       style="fill:none;stroke:#a5a5a5;stroke-width:2.07989px;stroke-linecap:round;stroke-linejoin:round;stroke-miterlimit:4;stroke-dasharray:none;stroke-opacity:1"
       clip-path="url(#clipEmfPath1)"
       d="M 519.97299,94.075114 299.66444,95.675031 167.5113,107.19443 123.35359,93.595139 83.675654,93.75513"
       id="path830"
       transform="matrix(0.26458333,0,0,0.28739108,30.818316,-3.67144)" />
    <path
       style="fill:#a5a5a5;fill-opacity:1;fill-rule:nonzero;stroke:none;stroke-width:0.275751"
       d="m 169.29405,23.405142 c 0,0.534519 -0.39686,0.965584 -0.88896,0.965584 -0.48681,0 -0.88895,-0.431065 -0.88895,-0.965584 0,-0.534521 0.40214,-0.965585 0.88895,-0.965585 0.4921,0 0.88896,0.431064 0.88896,0.965585 z"
       id="path832" />
    <path
       style="fill:none;stroke:#a5a5a5;stroke-width:0.264708px;stroke-linecap:butt;stroke-linejoin:round;stroke-miterlimit:4;stroke-dasharray:none;stroke-opacity:1"
       d="m 169.29405,23.405142 c 0,0.534519 -0.39686,0.965584 -0.88896,0.965584 -0.48681,0 -0.88895,-0.431065 -0.88895,-0.965584 0,-0.534521 0.40214,-0.965585 0.88895,-0.965585 0.4921,0 0.88896,0.431064 0.88896,0.965585"
       id="path834" />
    <path
       style="fill:#a5a5a5;fill-opacity:1;fill-rule:nonzero;stroke:none;stroke-width:0.275751"
       d="m 111.00407,23.816089 c 0,0.53452 -0.39685,0.965584 -0.88896,0.965584 -0.48945,0 -0.88895,-0.431064 -0.88895,-0.965584 0,-0.531645 0.3995,-0.965583 0.88895,-0.965583 0.49211,0 0.88896,0.433938 0.88896,0.965583 z"
       id="path836" />
    <path
       style="fill:none;stroke:#a5a5a5;stroke-width:0.264708px;stroke-linecap:butt;stroke-linejoin:round;stroke-miterlimit:4;stroke-dasharray:none;stroke-opacity:1"
       d="m 111.00407,23.816089 c 0,0.53452 -0.39685,0.965584 -0.88896,0.965584 -0.48945,0 -0.88895,-0.431064 -0.88895,-0.965584 0,-0.531645 0.3995,-0.965583 0.88895,-0.965583 0.49211,0 0.88896,0.433938 0.88896,0.965583"
       id="path838" />
    <path
       style="fill:#a5a5a5;fill-opacity:1;fill-rule:nonzero;stroke:none;stroke-width:0.275751"
       d="m 75.99622,27.172644 c 0,0.534519 -0.396854,0.965583 -0.888952,0.965583 -0.489456,0 -0.888955,-0.431064 -0.888955,-0.965583 0,-0.531648 0.399499,-0.965585 0.888955,-0.965585 0.492098,0 0.888952,0.433937 0.888952,0.965585 z"
       id="path840" />
    <path
       style="fill:none;stroke:#a5a5a5;stroke-width:0.264708px;stroke-linecap:butt;stroke-linejoin:round;stroke-miterlimit:4;stroke-dasharray:none;stroke-opacity:1"
       d="m 75.99622,27.172644 c 0,0.534519 -0.396854,0.965583 -0.888952,0.965583 -0.489456,0 -0.888955,-0.431064 -0.888955,-0.965583 0,-0.531648 0.399499,-0.965585 0.888955,-0.965585 0.492098,0 0.888952,0.433937 0.888952,0.965585"
       id="path842" />
    <path
       style="fill:#a5a5a5;fill-opacity:1;fill-rule:nonzero;stroke:none;stroke-width:0.275751"
       d="m 64.355159,23.264327 c 0,0.53452 -0.396856,0.965584 -0.888955,0.965584 -0.489452,0 -0.888952,-0.431064 -0.888952,-0.965584 0,-0.531646 0.3995,-0.965584 0.888952,-0.965584 0.492099,0 0.888955,0.433938 0.888955,0.965584 z"
       id="path844" />
    <path
       style="fill:none;stroke:#a5a5a5;stroke-width:0.264708px;stroke-linecap:butt;stroke-linejoin:round;stroke-miterlimit:4;stroke-dasharray:none;stroke-opacity:1"
       d="m 64.355159,23.264327 c 0,0.53452 -0.396856,0.965584 -0.888955,0.965584 -0.489452,0 -0.888952,-0.431064 -0.888952,-0.965584 0,-0.531646 0.3995,-0.965584 0.888952,-0.965584 0.492099,0 0.888955,0.433938 0.888955,0.965584"
       id="path846" />
    <path
       style="fill:#a5a5a5;fill-opacity:1;fill-rule:nonzero;stroke:none;stroke-width:0.275751"
       d="m 53.857037,23.264327 c 0,0.53452 -0.396854,0.965584 -0.888954,0.965584 -0.489454,0 -0.888954,-0.431064 -0.888954,-0.965584 0,-0.531646 0.3995,-0.965584 0.888954,-0.965584 0.4921,0 0.888954,0.433938 0.888954,0.965584 z"
       id="path848" />
    <path
       style="fill:none;stroke:#a5a5a5;stroke-width:0.264708px;stroke-linecap:butt;stroke-linejoin:round;stroke-miterlimit:4;stroke-dasharray:none;stroke-opacity:1"
       d="m 53.857037,23.264327 c 0,0.53452 -0.396854,0.965584 -0.888954,0.965584 -0.489454,0 -0.888954,-0.431064 -0.888954,-0.965584 0,-0.531646 0.3995,-0.965584 0.888954,-0.965584 0.4921,0 0.888954,0.433938 0.888954,0.965584"
       id="path850" />
    <path
       style="fill:none;stroke:#70ad47;stroke-width:2.07989px;stroke-linecap:round;stroke-linejoin:round;stroke-miterlimit:4;stroke-dasharray:none;stroke-opacity:1"
       clip-path="url(#clipEmfPath1)"
       d="M 519.97299,83.355671 299.66444,99.994806 167.5113,100.47478 123.35359,97.754923 83.675654,86.555504"
       id="path852"
       transform="matrix(0.26458333,0,0,0.28739108,30.818316,-3.67144)" />
    <path
       style="fill:#70ad47;fill-opacity:1;fill-rule:nonzero;stroke:none;stroke-width:0.275751"
       d="m 169.29405,20.278489 c 0,0.534519 -0.39686,0.965584 -0.88896,0.965584 -0.48681,0 -0.88895,-0.431065 -0.88895,-0.965584 0,-0.53452 0.40214,-0.965584 0.88895,-0.965584 0.4921,0 0.88896,0.431064 0.88896,0.965584 z"
       id="path854" />
    <path
       style="fill:none;stroke:#70ad47;stroke-width:0.264708px;stroke-linecap:butt;stroke-linejoin:round;stroke-miterlimit:4;stroke-dasharray:none;stroke-opacity:1"
       d="m 169.29405,20.278489 c 0,0.534519 -0.39686,0.965584 -0.88896,0.965584 -0.48681,0 -0.88895,-0.431065 -0.88895,-0.965584 0,-0.53452 0.40214,-0.965584 0.88895,-0.965584 0.4921,0 0.88896,0.431064 0.88896,0.965584"
       id="path856" />
    <path
       style="fill:#70ad47;fill-opacity:1;fill-rule:nonzero;stroke:none;stroke-width:0.275751"
       d="m 111.00407,25.057554 c 0,0.534519 -0.39685,0.965583 -0.88896,0.965583 -0.48945,0 -0.88895,-0.431064 -0.88895,-0.965583 0,-0.531646 0.3995,-0.965584 0.88895,-0.965584 0.49211,0 0.88896,0.433938 0.88896,0.965584 z"
       id="path858" />
    <path
       style="fill:none;stroke:#70ad47;stroke-width:0.264708px;stroke-linecap:butt;stroke-linejoin:round;stroke-miterlimit:4;stroke-dasharray:none;stroke-opacity:1"
       d="m 111.00407,25.057554 c 0,0.534519 -0.39685,0.965583 -0.88896,0.965583 -0.48945,0 -0.88895,-0.431064 -0.88895,-0.965583 0,-0.531646 0.3995,-0.965584 0.88895,-0.965584 0.49211,0 0.88896,0.433938 0.88896,0.965584"
       id="path860" />
    <path
       style="fill:#70ad47;fill-opacity:1;fill-rule:nonzero;stroke:none;stroke-width:0.275751"
       d="m 75.99622,25.241473 c 0,0.534523 -0.396854,0.965586 -0.888952,0.965586 -0.489456,0 -0.888955,-0.431063 -0.888955,-0.965586 0,-0.531644 0.399499,-0.965582 0.888955,-0.965582 0.492098,0 0.888952,0.433938 0.888952,0.965582 z"
       id="path862" />
    <path
       style="fill:none;stroke:#70ad47;stroke-width:0.264708px;stroke-linecap:butt;stroke-linejoin:round;stroke-miterlimit:4;stroke-dasharray:none;stroke-opacity:1"
       d="m 75.99622,25.241473 c 0,0.534523 -0.396854,0.965586 -0.888952,0.965586 -0.489456,0 -0.888955,-0.431063 -0.888955,-0.965586 0,-0.531644 0.399499,-0.965582 0.888955,-0.965582 0.492098,0 0.888952,0.433938 0.888952,0.965582"
       id="path864" />
    <path
       style="fill:#70ad47;fill-opacity:1;fill-rule:nonzero;stroke:none;stroke-width:0.275751"
       d="m 64.355159,24.459812 c 0,0.53452 -0.396856,0.965584 -0.888955,0.965584 -0.489452,0 -0.888952,-0.431064 -0.888952,-0.965584 0,-0.531645 0.3995,-0.965584 0.888952,-0.965584 0.492099,0 0.888955,0.433939 0.888955,0.965584 z"
       id="path866" />
    <path
       style="fill:none;stroke:#70ad47;stroke-width:0.264708px;stroke-linecap:butt;stroke-linejoin:round;stroke-miterlimit:4;stroke-dasharray:none;stroke-opacity:1"
       d="m 64.355159,24.459812 c 0,0.53452 -0.396856,0.965584 -0.888955,0.965584 -0.489452,0 -0.888952,-0.431064 -0.888952,-0.965584 0,-0.531645 0.3995,-0.965584 0.888952,-0.965584 0.492099,0 0.888955,0.433939 0.888955,0.965584"
       id="path868" />
    <path
       style="fill:#70ad47;fill-opacity:1;fill-rule:nonzero;stroke:none;stroke-width:0.275751"
       d="m 53.857037,21.195219 c 0,0.534519 -0.396854,0.965583 -0.888954,0.965583 -0.489454,0 -0.888954,-0.431064 -0.888954,-0.965583 0,-0.531646 0.3995,-0.965584 0.888954,-0.965584 0.4921,0 0.888954,0.433938 0.888954,0.965584 z"
       id="path870" />
    <path
       style="fill:none;stroke:#70ad47;stroke-width:0.264708px;stroke-linecap:butt;stroke-linejoin:round;stroke-miterlimit:4;stroke-dasharray:none;stroke-opacity:1"
       d="m 53.857037,21.195219 c 0,0.534519 -0.396854,0.965583 -0.888954,0.965583 -0.489454,0 -0.888954,-0.431064 -0.888954,-0.965583 0,-0.531646 0.3995,-0.965584 0.888954,-0.965584 0.4921,0 0.888954,0.433938 0.888954,0.965584"
       id="path872" />
    <path
       style="fill:none;stroke:#ffc000;stroke-width:2.07989px;stroke-linecap:round;stroke-linejoin:round;stroke-miterlimit:4;stroke-dasharray:none;stroke-opacity:1"
       clip-path="url(#clipEmfPath1)"
       d="M 519.97299,95.995014 H 299.66444 L 167.5113,86.075529 123.35359,95.515039 83.675654,90.395305"
       id="path874"
       transform="matrix(0.26458333,0,0,0.28739108,30.818316,-3.67144)" />
    <path
       style="fill:#ffc000;fill-opacity:1;fill-rule:nonzero;stroke:none;stroke-width:0.275751"
       d="m 169.29405,23.910923 c 0,0.53452 -0.39686,0.965584 -0.88896,0.965584 -0.48681,0 -0.88895,-0.431064 -0.88895,-0.965584 0,-0.534519 0.40214,-0.965583 0.88895,-0.965583 0.4921,0 0.88896,0.431064 0.88896,0.965583 z"
       id="path876" />
    <path
       style="fill:none;stroke:#ffc000;stroke-width:0.264708px;stroke-linecap:butt;stroke-linejoin:round;stroke-miterlimit:4;stroke-dasharray:none;stroke-opacity:1"
       d="m 169.29405,23.910923 c 0,0.53452 -0.39686,0.965584 -0.88896,0.965584 -0.48681,0 -0.88895,-0.431064 -0.88895,-0.965584 0,-0.534519 0.40214,-0.965583 0.88895,-0.965583 0.4921,0 0.88896,0.431064 0.88896,0.965583"
       id="path878" />
    <path
       style="fill:#ffc000;fill-opacity:1;fill-rule:nonzero;stroke:none;stroke-width:0.275751"
       d="m 111.00407,23.90805 c 0,0.534519 -0.39685,0.965584 -0.88896,0.965584 -0.48945,0 -0.88895,-0.431065 -0.88895,-0.965584 0,-0.531646 0.3995,-0.965584 0.88895,-0.965584 0.49211,0 0.88896,0.433938 0.88896,0.965584 z"
       id="path880" />
    <path
       style="fill:none;stroke:#ffc000;stroke-width:0.264708px;stroke-linecap:butt;stroke-linejoin:round;stroke-miterlimit:4;stroke-dasharray:none;stroke-opacity:1"
       d="m 111.00407,23.90805 c 0,0.534519 -0.39685,0.965584 -0.88896,0.965584 -0.48945,0 -0.88895,-0.431065 -0.88895,-0.965584 0,-0.531646 0.3995,-0.965584 0.88895,-0.965584 0.49211,0 0.88896,0.433938 0.88896,0.965584"
       id="path882" />
    <path
       style="fill:#ffc000;fill-opacity:1;fill-rule:nonzero;stroke:none;stroke-width:0.275751"
       d="m 75.99622,21.103259 c 0,0.534519 -0.396854,0.965583 -0.888952,0.965583 -0.489456,0 -0.888955,-0.431064 -0.888955,-0.965583 0,-0.531646 0.399499,-0.965584 0.888955,-0.965584 0.492098,0 0.888952,0.433938 0.888952,0.965584 z"
       id="path884" />
    <path
       style="fill:none;stroke:#ffc000;stroke-width:0.264708px;stroke-linecap:butt;stroke-linejoin:round;stroke-miterlimit:4;stroke-dasharray:none;stroke-opacity:1"
       d="m 75.99622,21.103259 c 0,0.534519 -0.396854,0.965583 -0.888952,0.965583 -0.489456,0 -0.888955,-0.431064 -0.888955,-0.965583 0,-0.531646 0.399499,-0.965584 0.888955,-0.965584 0.492098,0 0.888952,0.433938 0.888952,0.965584"
       id="path886" />
    <path
       style="fill:#ffc000;fill-opacity:1;fill-rule:nonzero;stroke:none;stroke-width:0.275751"
       d="m 64.355159,23.770109 c 0,0.53452 -0.396856,0.965584 -0.888955,0.965584 -0.489452,0 -0.888952,-0.431064 -0.888952,-0.965584 0,-0.531645 0.3995,-0.965584 0.888952,-0.965584 0.492099,0 0.888955,0.433939 0.888955,0.965584 z"
       id="path888" />
    <path
       style="fill:none;stroke:#ffc000;stroke-width:0.264708px;stroke-linecap:butt;stroke-linejoin:round;stroke-miterlimit:4;stroke-dasharray:none;stroke-opacity:1"
       d="m 64.355159,23.770109 c 0,0.53452 -0.396856,0.965584 -0.888955,0.965584 -0.489452,0 -0.888952,-0.431064 -0.888952,-0.965584 0,-0.531645 0.3995,-0.965584 0.888952,-0.965584 0.492099,0 0.888955,0.433939 0.888955,0.965584"
       id="path890" />
    <path
       style="fill:#ffc000;fill-opacity:1;fill-rule:nonzero;stroke:none;stroke-width:0.275751"
       d="m 53.857037,22.344723 c 0,0.534521 -0.396854,0.965584 -0.888954,0.965584 -0.489454,0 -0.888954,-0.431063 -0.888954,-0.965584 0,-0.531646 0.3995,-0.965584 0.888954,-0.965584 0.4921,0 0.888954,0.433938 0.888954,0.965584 z"
       id="path892" />
    <path
       style="fill:none;stroke:#ffc000;stroke-width:0.264708px;stroke-linecap:butt;stroke-linejoin:round;stroke-miterlimit:4;stroke-dasharray:none;stroke-opacity:1"
       d="m 53.857037,22.344723 c 0,0.534521 -0.396854,0.965584 -0.888954,0.965584 -0.489454,0 -0.888954,-0.431063 -0.888954,-0.965584 0,-0.531646 0.3995,-0.965584 0.888954,-0.965584 0.4921,0 0.888954,0.433938 0.888954,0.965584"
       id="path894" />
    <path
       style="fill:none;stroke:#4472c4;stroke-width:2.07989px;stroke-linecap:round;stroke-linejoin:round;stroke-miterlimit:4;stroke-dasharray:none;stroke-opacity:1"
       clip-path="url(#clipEmfPath1)"
       d="M 519.97299,149.91221 299.66444,129.27329 167.5113,122.07366 123.35359,106.87445 83.675654,99.834815"
       id="path896"
       transform="matrix(0.26458333,0,0,0.28739108,30.818316,-3.67144)" />
    <path
       style="fill:#4472c4;fill-opacity:1;fill-rule:nonzero;stroke:none;stroke-width:0.275751"
       d="m 169.29405,39.406245 c 0,0.534521 -0.39686,0.965585 -0.88896,0.965585 -0.48681,0 -0.88895,-0.431064 -0.88895,-0.965585 0,-0.534519 0.40214,-0.965583 0.88895,-0.965583 0.4921,0 0.88896,0.431064 0.88896,0.965583 z"
       id="path898" />
    <path
       style="fill:none;stroke:#4472c4;stroke-width:0.264708px;stroke-linecap:butt;stroke-linejoin:round;stroke-miterlimit:4;stroke-dasharray:none;stroke-opacity:1"
       d="m 169.29405,39.406245 c 0,0.534521 -0.39686,0.965585 -0.88896,0.965585 -0.48681,0 -0.88895,-0.431064 -0.88895,-0.965585 0,-0.534519 0.40214,-0.965583 0.88895,-0.965583 0.4921,0 0.88896,0.431064 0.88896,0.965583"
       id="path900" />
    <path
       style="fill:#4472c4;fill-opacity:1;fill-rule:nonzero;stroke:none;stroke-width:0.275751"
       d="m 111.00407,33.517909 c 0,0.534519 -0.39685,0.965583 -0.88896,0.965583 -0.48945,0 -0.88895,-0.431064 -0.88895,-0.965583 0,-0.531648 0.3995,-0.965586 0.88895,-0.965586 0.49211,0 0.88896,0.433938 0.88896,0.965586 z"
       id="path902" />
    <path
       style="fill:none;stroke:#4472c4;stroke-width:0.264708px;stroke-linecap:butt;stroke-linejoin:round;stroke-miterlimit:4;stroke-dasharray:none;stroke-opacity:1"
       d="m 111.00407,33.517909 c 0,0.534519 -0.39685,0.965583 -0.88896,0.965583 -0.48945,0 -0.88895,-0.431064 -0.88895,-0.965583 0,-0.531648 0.3995,-0.965586 0.88895,-0.965586 0.49211,0 0.88896,0.433938 0.88896,0.965586"
       id="path904" />
    <path
       style="fill:#4472c4;fill-opacity:1;fill-rule:nonzero;stroke:none;stroke-width:0.275751"
       d="m 75.99622,31.402819 c 0,0.534519 -0.396854,0.965585 -0.888952,0.965585 -0.489456,0 -0.888955,-0.431066 -0.888955,-0.965585 0,-0.531644 0.399499,-0.965582 0.888955,-0.965582 0.492098,0 0.888952,0.433938 0.888952,0.965582 z"
       id="path906" />
    <path
       style="fill:none;stroke:#4472c4;stroke-width:0.264708px;stroke-linecap:butt;stroke-linejoin:round;stroke-miterlimit:4;stroke-dasharray:none;stroke-opacity:1"
       d="m 75.99622,31.402819 c 0,0.534519 -0.396854,0.965585 -0.888952,0.965585 -0.489456,0 -0.888955,-0.431066 -0.888955,-0.965585 0,-0.531644 0.399499,-0.965582 0.888955,-0.965582 0.492098,0 0.888952,0.433938 0.888952,0.965582"
       id="path908" />
    <path
       style="fill:#4472c4;fill-opacity:1;fill-rule:nonzero;stroke:none;stroke-width:0.275751"
       d="m 64.355159,27.080681 c 0,0.534523 -0.396856,0.965586 -0.888955,0.965586 -0.489452,0 -0.888952,-0.431063 -0.888952,-0.965586 0,-0.531644 0.3995,-0.965581 0.888952,-0.965581 0.492099,0 0.888955,0.433937 0.888955,0.965581 z"
       id="path910" />
    <path
       style="fill:none;stroke:#4472c4;stroke-width:0.264708px;stroke-linecap:butt;stroke-linejoin:round;stroke-miterlimit:4;stroke-dasharray:none;stroke-opacity:1"
       d="m 64.355159,27.080681 c 0,0.534523 -0.396856,0.965586 -0.888955,0.965586 -0.489452,0 -0.888952,-0.431063 -0.888952,-0.965586 0,-0.531644 0.3995,-0.965581 0.888952,-0.965581 0.492099,0 0.888955,0.433937 0.888955,0.965581"
       id="path912" />
    <path
       style="fill:#4472c4;fill-opacity:1;fill-rule:nonzero;stroke:none;stroke-width:0.275751"
       d="m 53.857037,25.011574 c 0,0.534519 -0.396854,0.965583 -0.888954,0.965583 -0.489454,0 -0.888954,-0.431064 -0.888954,-0.965583 0,-0.531646 0.3995,-0.965584 0.888954,-0.965584 0.4921,0 0.888954,0.433938 0.888954,0.965584 z"
       id="path914" />
    <path
       style="fill:none;stroke:#4472c4;stroke-width:0.264708px;stroke-linecap:butt;stroke-linejoin:round;stroke-miterlimit:4;stroke-dasharray:none;stroke-opacity:1"
       d="m 53.857037,25.011574 c 0,0.534519 -0.396854,0.965583 -0.888954,0.965583 -0.489454,0 -0.888954,-0.431064 -0.888954,-0.965583 0,-0.531646 0.3995,-0.965584 0.888954,-0.965584 0.4921,0 0.888954,0.433938 0.888954,0.965584"
       id="path916" />
    <text
       xml:space="preserve"
       style="font-style:normal;font-variant:normal;font-weight:normal;font-stretch:normal;font-size:3.84782px;line-height:125%;font-family:'Times New Roman';-inkscape-font-specification:'Times New Roman, Normal';font-variant-ligatures:normal;font-variant-caps:normal;font-variant-numeric:normal;font-variant-east-asian:normal;text-align:start;letter-spacing:0px;word-spacing:0px;text-anchor:start;fill:#000000;fill-opacity:1;stroke:none;stroke-width:0.275751"
       x="43.227196"
       y="44.403713"
       id="text922"
       transform="scale(0.95949916,1.0422104)"><tspan
         sodipodi:role="line"
         x="43.227196"
         y="44.403713"
         id="tspan920"
         style="font-style:normal;font-variant:normal;font-weight:normal;font-stretch:normal;font-size:3.84782px;font-family:'Times New Roman';-inkscape-font-specification:'Times New Roman, Normal';font-variant-ligatures:normal;font-variant-caps:normal;font-variant-numeric:normal;font-variant-east-asian:normal;stroke-width:0.275751"><tspan
           dx="0"
           dy="0"
           style="font-style:normal;font-variant:normal;font-weight:normal;font-stretch:normal;font-size:3.84782px;font-family:'Times New Roman';-inkscape-font-specification:'Times New Roman, Normal';font-variant-ligatures:normal;font-variant-caps:normal;font-variant-numeric:normal;font-variant-east-asian:normal;fill:#000000;stroke-width:0.275751"
           id="tspan918">1E-1</tspan></tspan></text>
    <text
       xml:space="preserve"
       style="font-style:normal;font-variant:normal;font-weight:normal;font-stretch:normal;font-size:3.84782px;line-height:125%;font-family:'Times New Roman';-inkscape-font-specification:'Times New Roman, Normal';font-variant-ligatures:normal;font-variant-caps:normal;font-variant-numeric:normal;font-variant-east-asian:normal;text-align:start;letter-spacing:0px;word-spacing:0px;text-anchor:start;fill:#000000;fill-opacity:1;stroke:none;stroke-width:0.275751"
       x="42.335659"
       y="9.4682245"
       id="text928"
       transform="scale(0.95949916,1.0422104)"><tspan
         sodipodi:role="line"
         x="42.335659"
         y="9.4682245"
         id="tspan926"
         style="font-style:normal;font-variant:normal;font-weight:normal;font-stretch:normal;font-size:3.84782px;font-family:'Times New Roman';-inkscape-font-specification:'Times New Roman, Normal';font-variant-ligatures:normal;font-variant-caps:normal;font-variant-numeric:normal;font-variant-east-asian:normal;stroke-width:0.275751"><tspan
           dx="0"
           dy="0"
           style="font-style:normal;font-variant:normal;font-weight:normal;font-stretch:normal;font-size:3.84782px;font-family:'Times New Roman';-inkscape-font-specification:'Times New Roman, Normal';font-variant-ligatures:normal;font-variant-caps:normal;font-variant-numeric:normal;font-variant-east-asian:normal;fill:#000000;stroke-width:0.275751"
           id="tspan924">1E+0</tspan></tspan></text>
    <text
       xml:space="preserve"
       style="font-style:normal;font-variant:normal;font-weight:normal;font-stretch:normal;font-size:3.84782px;line-height:125%;font-family:'Times New Roman';-inkscape-font-specification:'Times New Roman, Normal';font-variant-ligatures:normal;font-variant-caps:normal;font-variant-numeric:normal;font-variant-east-asian:normal;text-align:start;letter-spacing:0px;word-spacing:0px;text-anchor:start;fill:#000000;fill-opacity:1;stroke:none;stroke-width:0.275751"
       x="53.049316"
       y="48.937435"
       id="text934"
       transform="scale(0.95949916,1.0422104)"><tspan
         sodipodi:role="line"
         x="53.049316"
         y="48.937435"
         id="tspan932"
         style="font-style:normal;font-variant:normal;font-weight:normal;font-stretch:normal;font-size:3.84782px;font-family:'Times New Roman';-inkscape-font-specification:'Times New Roman, Normal';font-variant-ligatures:normal;font-variant-caps:normal;font-variant-numeric:normal;font-variant-east-asian:normal;stroke-width:0.275751"><tspan
           dx="0"
           dy="0"
           style="font-style:normal;font-variant:normal;font-weight:normal;font-stretch:normal;font-size:3.84782px;font-family:'Times New Roman';-inkscape-font-specification:'Times New Roman, Normal';font-variant-ligatures:normal;font-variant-caps:normal;font-variant-numeric:normal;font-variant-east-asian:normal;fill:#000000;stroke-width:0.275751"
           id="tspan930">0</tspan></tspan></text>
    <text
       xml:space="preserve"
       style="font-style:normal;font-variant:normal;font-weight:normal;font-stretch:normal;font-size:3.84782px;line-height:125%;font-family:'Times New Roman';-inkscape-font-specification:'Times New Roman, Normal';font-variant-ligatures:normal;font-variant-caps:normal;font-variant-numeric:normal;font-variant-east-asian:normal;text-align:start;letter-spacing:0px;word-spacing:0px;text-anchor:start;fill:#000000;fill-opacity:1;stroke:none;stroke-width:0.275751"
       x="76.389885"
       y="48.937435"
       id="text940"
       transform="scale(0.95949916,1.0422104)"><tspan
         sodipodi:role="line"
         x="76.389885"
         y="48.937435"
         id="tspan938"
         style="font-style:normal;font-variant:normal;font-weight:normal;font-stretch:normal;font-size:3.84782px;font-family:'Times New Roman';-inkscape-font-specification:'Times New Roman, Normal';font-variant-ligatures:normal;font-variant-caps:normal;font-variant-numeric:normal;font-variant-east-asian:normal;stroke-width:0.275751"><tspan
           dx="0"
           dy="0"
           style="font-style:normal;font-variant:normal;font-weight:normal;font-stretch:normal;font-size:3.84782px;font-family:'Times New Roman';-inkscape-font-specification:'Times New Roman, Normal';font-variant-ligatures:normal;font-variant-caps:normal;font-variant-numeric:normal;font-variant-east-asian:normal;fill:#000000;stroke-width:0.275751"
           id="tspan936">20</tspan></tspan></text>
    <text
       xml:space="preserve"
       style="font-style:normal;font-variant:normal;font-weight:normal;font-stretch:normal;font-size:3.84782px;line-height:125%;font-family:'Times New Roman';-inkscape-font-specification:'Times New Roman, Normal';font-variant-ligatures:normal;font-variant-caps:normal;font-variant-numeric:normal;font-variant-east-asian:normal;text-align:start;letter-spacing:0px;word-spacing:0px;text-anchor:start;fill:#000000;fill-opacity:1;stroke:none;stroke-width:0.275751"
       x="100.69554"
       y="48.937435"
       id="text946"
       transform="scale(0.95949916,1.0422104)"><tspan
         sodipodi:role="line"
         x="100.69554"
         y="48.937435"
         id="tspan944"
         style="font-style:normal;font-variant:normal;font-weight:normal;font-stretch:normal;font-size:3.84782px;font-family:'Times New Roman';-inkscape-font-specification:'Times New Roman, Normal';font-variant-ligatures:normal;font-variant-caps:normal;font-variant-numeric:normal;font-variant-east-asian:normal;stroke-width:0.275751"><tspan
           dx="0"
           dy="0"
           style="font-style:normal;font-variant:normal;font-weight:normal;font-stretch:normal;font-size:3.84782px;font-family:'Times New Roman';-inkscape-font-specification:'Times New Roman, Normal';font-variant-ligatures:normal;font-variant-caps:normal;font-variant-numeric:normal;font-variant-east-asian:normal;fill:#000000;stroke-width:0.275751"
           id="tspan942">40</tspan></tspan></text>
    <text
       xml:space="preserve"
       style="font-style:normal;font-variant:normal;font-weight:normal;font-stretch:normal;font-size:3.84782px;line-height:125%;font-family:'Times New Roman';-inkscape-font-specification:'Times New Roman, Normal';font-variant-ligatures:normal;font-variant-caps:normal;font-variant-numeric:normal;font-variant-east-asian:normal;text-align:start;letter-spacing:0px;word-spacing:0px;text-anchor:start;fill:#000000;fill-opacity:1;stroke:none;stroke-width:0.275751"
       x="125.00121"
       y="48.937435"
       id="text952"
       transform="scale(0.95949916,1.0422104)"><tspan
         sodipodi:role="line"
         x="125.00121"
         y="48.937435"
         id="tspan950"
         style="font-style:normal;font-variant:normal;font-weight:normal;font-stretch:normal;font-size:3.84782px;font-family:'Times New Roman';-inkscape-font-specification:'Times New Roman, Normal';font-variant-ligatures:normal;font-variant-caps:normal;font-variant-numeric:normal;font-variant-east-asian:normal;stroke-width:0.275751"><tspan
           dx="0"
           dy="0"
           style="font-style:normal;font-variant:normal;font-weight:normal;font-stretch:normal;font-size:3.84782px;font-family:'Times New Roman';-inkscape-font-specification:'Times New Roman, Normal';font-variant-ligatures:normal;font-variant-caps:normal;font-variant-numeric:normal;font-variant-east-asian:normal;fill:#000000;stroke-width:0.275751"
           id="tspan948">60</tspan></tspan></text>
    <text
       xml:space="preserve"
       style="font-style:normal;font-variant:normal;font-weight:normal;font-stretch:normal;font-size:3.84782px;line-height:125%;font-family:'Times New Roman';-inkscape-font-specification:'Times New Roman, Normal';font-variant-ligatures:normal;font-variant-caps:normal;font-variant-numeric:normal;font-variant-east-asian:normal;text-align:start;letter-spacing:0px;word-spacing:0px;text-anchor:start;fill:#000000;fill-opacity:1;stroke:none;stroke-width:0.275751"
       x="149.30687"
       y="48.937435"
       id="text958"
       transform="scale(0.95949916,1.0422104)"><tspan
         sodipodi:role="line"
         x="149.30687"
         y="48.937435"
         id="tspan956"
         style="font-style:normal;font-variant:normal;font-weight:normal;font-stretch:normal;font-size:3.84782px;font-family:'Times New Roman';-inkscape-font-specification:'Times New Roman, Normal';font-variant-ligatures:normal;font-variant-caps:normal;font-variant-numeric:normal;font-variant-east-asian:normal;stroke-width:0.275751"><tspan
           dx="0"
           dy="0"
           style="font-style:normal;font-variant:normal;font-weight:normal;font-stretch:normal;font-size:3.84782px;font-family:'Times New Roman';-inkscape-font-specification:'Times New Roman, Normal';font-variant-ligatures:normal;font-variant-caps:normal;font-variant-numeric:normal;font-variant-east-asian:normal;fill:#000000;stroke-width:0.275751"
           id="tspan954">80</tspan></tspan></text>
    <text
       xml:space="preserve"
       style="font-style:normal;font-variant:normal;font-weight:normal;font-stretch:normal;font-size:3.84782px;line-height:125%;font-family:'Times New Roman';-inkscape-font-specification:'Times New Roman, Normal';font-variant-ligatures:normal;font-variant-caps:normal;font-variant-numeric:normal;font-variant-east-asian:normal;text-align:start;letter-spacing:0px;word-spacing:0px;text-anchor:start;fill:#000000;fill-opacity:1;stroke:none;stroke-width:0.275751"
       x="172.64746"
       y="48.937435"
       id="text964"
       transform="scale(0.95949916,1.0422104)"><tspan
         sodipodi:role="line"
         x="172.64746"
         y="48.937435"
         id="tspan962"
         style="font-style:normal;font-variant:normal;font-weight:normal;font-stretch:normal;font-size:3.84782px;font-family:'Times New Roman';-inkscape-font-specification:'Times New Roman, Normal';font-variant-ligatures:normal;font-variant-caps:normal;font-variant-numeric:normal;font-variant-east-asian:normal;stroke-width:0.275751"><tspan
           dx="0"
           dy="0"
           style="font-style:normal;font-variant:normal;font-weight:normal;font-stretch:normal;font-size:3.84782px;font-family:'Times New Roman';-inkscape-font-specification:'Times New Roman, Normal';font-variant-ligatures:normal;font-variant-caps:normal;font-variant-numeric:normal;font-variant-east-asian:normal;fill:#000000;stroke-width:0.275751"
           id="tspan960">100</tspan></tspan></text>
    <text
       xml:space="preserve"
       style="font-style:normal;font-variant:normal;font-weight:normal;font-stretch:normal;font-size:3.84782px;line-height:125%;font-family:'Times New Roman';-inkscape-font-specification:'Times New Roman, Normal';font-variant-ligatures:normal;font-variant-caps:normal;font-variant-numeric:normal;font-variant-east-asian:normal;text-align:start;letter-spacing:0px;word-spacing:0px;text-anchor:start;fill:#000000;fill-opacity:1;stroke:none;stroke-width:0.275751"
       transform="matrix(0,-1.0422104,0.95949916,0,0,0)"
       x="-33.17149"
       y="39.787487"
       id="text970"><tspan
         sodipodi:role="line"
         x="-33.17149"
         y="39.787487"
         id="tspan968"
         style="font-style:normal;font-variant:normal;font-weight:normal;font-stretch:normal;font-size:3.84782px;font-family:'Times New Roman';-inkscape-font-specification:'Times New Roman, Normal';font-variant-ligatures:normal;font-variant-caps:normal;font-variant-numeric:normal;font-variant-east-asian:normal;stroke-width:0.275751"><tspan
           dx="0"
           dy="0"
           style="font-style:normal;font-variant:normal;font-weight:normal;font-stretch:normal;font-size:3.84782px;font-family:'Times New Roman';-inkscape-font-specification:'Times New Roman, Normal';font-variant-ligatures:normal;font-variant-caps:normal;font-variant-numeric:normal;font-variant-east-asian:normal;fill:#000000;stroke-width:0.275751"
           id="tspan966">L</tspan></tspan></text>
    <text
       xml:space="preserve"
       style="font-style:normal;font-variant:normal;font-weight:normal;font-stretch:normal;font-size:3.84782px;line-height:125%;font-family:'Times New Roman';-inkscape-font-specification:'Times New Roman, Normal';font-variant-ligatures:normal;font-variant-caps:normal;font-variant-numeric:normal;font-variant-east-asian:normal;text-align:start;letter-spacing:0px;word-spacing:0px;text-anchor:start;fill:#000000;fill-opacity:1;stroke:none;stroke-width:0.275751"
       transform="matrix(0,-1.0422104,0.95949916,0,0,0)"
       x="-30.877354"
       y="38.640419"
       id="text976"><tspan
         sodipodi:role="line"
         x="-30.877354"
         y="38.640419"
         id="tspan974"
         style="font-style:normal;font-variant:normal;font-weight:normal;font-stretch:normal;font-size:3.84782px;font-family:'Times New Roman';-inkscape-font-specification:'Times New Roman, Normal';font-variant-ligatures:normal;font-variant-caps:normal;font-variant-numeric:normal;font-variant-east-asian:normal;stroke-width:0.275751"><tspan
           dx="0"
           dy="0"
           style="font-style:normal;font-variant:normal;font-weight:normal;font-stretch:normal;font-size:3.84782px;font-family:'Times New Roman';-inkscape-font-specification:'Times New Roman, Normal';font-variant-ligatures:normal;font-variant-caps:normal;font-variant-numeric:normal;font-variant-east-asian:normal;fill:#000000;stroke-width:0.275751"
           id="tspan972">2</tspan></tspan></text>
    <text
       xml:space="preserve"
       style="font-style:normal;font-variant:normal;font-weight:normal;font-stretch:normal;font-size:3.84782px;line-height:125%;font-family:'Times New Roman';-inkscape-font-specification:'Times New Roman, Normal';font-variant-ligatures:normal;font-variant-caps:normal;font-variant-numeric:normal;font-variant-east-asian:normal;text-align:start;letter-spacing:0px;word-spacing:0px;text-anchor:start;fill:#000000;fill-opacity:1;stroke:none;stroke-width:0.275751"
       transform="matrix(0,-1.0422104,0.95949916,0,0,0)"
       x="-28.583221"
       y="39.787487"
       id="text982"><tspan
         sodipodi:role="line"
         x="-28.583221"
         y="39.787487"
         id="tspan980"
         style="font-style:normal;font-variant:normal;font-weight:normal;font-stretch:normal;font-size:3.84782px;font-family:'Times New Roman';-inkscape-font-specification:'Times New Roman, Normal';font-variant-ligatures:normal;font-variant-caps:normal;font-variant-numeric:normal;font-variant-east-asian:normal;stroke-width:0.275751"><tspan
           dx="0"
           dy="0"
           style="font-style:normal;font-variant:normal;font-weight:normal;font-stretch:normal;font-size:3.84782px;font-family:'Times New Roman';-inkscape-font-specification:'Times New Roman, Normal';font-variant-ligatures:normal;font-variant-caps:normal;font-variant-numeric:normal;font-variant-east-asian:normal;fill:#000000;stroke-width:0.275751"
           id="tspan978">Error</tspan></tspan></text>
    <text
       xml:space="preserve"
       style="font-style:normal;font-variant:normal;font-weight:normal;font-stretch:normal;font-size:3.84782px;line-height:125%;font-family:'Times New Roman';-inkscape-font-specification:'Times New Roman, Normal';font-variant-ligatures:normal;font-variant-caps:normal;font-variant-numeric:normal;font-variant-east-asian:normal;text-align:start;letter-spacing:0px;word-spacing:0px;text-anchor:start;fill:#000000;fill-opacity:1;stroke:none;stroke-width:0.275751"
       x="100.56059"
       y="54.490818"
       id="text988"
       transform="scale(0.95949916,1.0422104)"><tspan
         sodipodi:role="line"
         x="100.56059"
         y="54.490818"
         id="tspan986"
         style="font-style:normal;font-variant:normal;font-weight:normal;font-stretch:normal;font-size:3.84782px;font-family:'Times New Roman';-inkscape-font-specification:'Times New Roman, Normal';font-variant-ligatures:normal;font-variant-caps:normal;font-variant-numeric:normal;font-variant-east-asian:normal;stroke-width:0.275751"><tspan
           dx="0"
           dy="0"
           style="font-style:normal;font-variant:normal;font-weight:normal;font-stretch:normal;font-size:3.84782px;font-family:'Times New Roman';-inkscape-font-specification:'Times New Roman, Normal';font-variant-ligatures:normal;font-variant-caps:normal;font-variant-numeric:normal;font-variant-east-asian:normal;fill:#000000;stroke-width:0.275751"
           id="tspan984">No. Of Resamples</tspan></tspan></text>
    <path
       style="fill:#5b9bd5;fill-opacity:1;fill-rule:nonzero;stroke:#5b9bd5;stroke-width:0.00275738px;stroke-linecap:butt;stroke-linejoin:round;stroke-miterlimit:4;stroke-dasharray:none;stroke-opacity:1"
       d="m 65.233528,8.168457 h 1.650916 c 0.15345,0 0.275153,0.135068 0.275153,0.298872 0,0.166678 -0.121703,0.298871 -0.275153,0.298871 h -1.650916 c -0.150804,0 -0.27515,-0.132193 -0.27515,-0.298871 0,-0.163804 0.124346,-0.298872 0.27515,-0.298872 z m 3.852135,0 h 1.650913 c 0.15345,0 0.275153,0.135068 0.275153,0.298872 0,0.166678 -0.121703,0.298871 -0.275153,0.298871 h -1.650913 c -0.150804,0 -0.275153,-0.132193 -0.275153,-0.298871 0,-0.163804 0.124349,-0.298872 0.275153,-0.298872 z m 3.852133,0 h 1.185272 c 0.15345,0 0.275151,0.135068 0.275151,0.298872 0,0.166678 -0.121701,0.298871 -0.275151,0.298871 h -1.185272 c -0.150805,0 -0.275151,-0.132193 -0.275151,-0.298871 0,-0.163804 0.124346,-0.298872 0.275151,-0.298872 z"
       id="path996" />
    <text
       xml:space="preserve"
       style="font-style:normal;font-variant:normal;font-weight:normal;font-stretch:normal;font-size:3.84782px;line-height:125%;font-family:'Times New Roman';-inkscape-font-specification:'Times New Roman, Normal';font-variant-ligatures:normal;font-variant-caps:normal;font-variant-numeric:normal;font-variant-east-asian:normal;text-align:start;letter-spacing:0px;word-spacing:0px;text-anchor:start;fill:#000000;fill-opacity:1;stroke:none;stroke-width:0.275751"
       x="78.276962"
       y="9.3446722"
       id="text1002"
       transform="scale(0.95949916,1.0422104)"><tspan
         sodipodi:role="line"
         x="78.276962"
         y="9.3446722"
         id="tspan1000"
         style="font-style:normal;font-variant:normal;font-weight:normal;font-stretch:normal;font-size:3.84782px;font-family:'Times New Roman';-inkscape-font-specification:'Times New Roman, Normal';font-variant-ligatures:normal;font-variant-caps:normal;font-variant-numeric:normal;font-variant-east-asian:normal;stroke-width:0.275751"><tspan
           dx="0"
           dy="0"
           style="font-style:normal;font-variant:normal;font-weight:normal;font-stretch:normal;font-size:3.84782px;font-family:'Times New Roman';-inkscape-font-specification:'Times New Roman, Normal';font-variant-ligatures:normal;font-variant-caps:normal;font-variant-numeric:normal;font-variant-east-asian:normal;fill:#000000;stroke-width:0.275751"
           id="tspan998">Fixed Random</tspan></tspan></text>
    <path
       style="fill:#ed7d31;fill-opacity:1;fill-rule:nonzero;stroke:#ed7d31;stroke-width:0.00275738px;stroke-linecap:butt;stroke-linejoin:round;stroke-miterlimit:4;stroke-dasharray:none;stroke-opacity:1"
       d="m 99.818065,8.168457 h 1.650915 c 0.15345,0 0.27515,0.135068 0.27515,0.298872 0,0.166678 -0.1217,0.298871 -0.27515,0.298871 h -1.650915 c -0.150804,0 -0.275151,-0.132193 -0.275151,-0.298871 0,-0.163804 0.124347,-0.298872 0.275151,-0.298872 z m 3.852135,0 h 1.65091 c 0.15345,0 0.27516,0.135068 0.27516,0.298872 0,0.166678 -0.12171,0.298871 -0.27516,0.298871 h -1.65091 c -0.1508,0 -0.27515,-0.132193 -0.27515,-0.298871 0,-0.163804 0.12435,-0.298872 0.27515,-0.298872 z m 3.85213,0 h 1.18528 c 0.15345,0 0.27515,0.135068 0.27515,0.298872 0,0.166678 -0.1217,0.298871 -0.27515,0.298871 h -1.18528 c -0.1508,0 -0.27515,-0.132193 -0.27515,-0.298871 0,-0.163804 0.12435,-0.298872 0.27515,-0.298872 z"
       id="path1004" />
    <text
       xml:space="preserve"
       style="font-style:normal;font-variant:normal;font-weight:normal;font-stretch:normal;font-size:3.84782px;line-height:125%;font-family:'Times New Roman';-inkscape-font-specification:'Times New Roman, Normal';font-variant-ligatures:normal;font-variant-caps:normal;font-variant-numeric:normal;font-variant-east-asian:normal;text-align:start;letter-spacing:0px;word-spacing:0px;text-anchor:start;fill:#000000;fill-opacity:1;stroke:none;stroke-width:0.275751"
       x="114.34814"
       y="9.3446722"
       id="text1010"
       transform="scale(0.95949916,1.0422104)"><tspan
         sodipodi:role="line"
         x="114.34814"
         y="9.3446722"
         id="tspan1008"
         style="font-style:normal;font-variant:normal;font-weight:normal;font-stretch:normal;font-size:3.84782px;font-family:'Times New Roman';-inkscape-font-specification:'Times New Roman, Normal';font-variant-ligatures:normal;font-variant-caps:normal;font-variant-numeric:normal;font-variant-east-asian:normal;stroke-width:0.275751"><tspan
           dx="0"
           dy="0"
           style="font-style:normal;font-variant:normal;font-weight:normal;font-stretch:normal;font-size:3.84782px;font-family:'Times New Roman';-inkscape-font-specification:'Times New Roman, Normal';font-variant-ligatures:normal;font-variant-caps:normal;font-variant-numeric:normal;font-variant-east-asian:normal;fill:#000000;stroke-width:0.275751"
           id="tspan1006">Fixed Ham</tspan></tspan></text>
    <path
       style="fill:none;stroke:#a5a5a5;stroke-width:0.573534px;stroke-linecap:round;stroke-linejoin:round;stroke-miterlimit:4;stroke-dasharray:none;stroke-opacity:1"
       d="m 134.44494,8.467329 h 8.88954"
       id="path1012" />
    <path
       style="fill:#a5a5a5;fill-opacity:1;fill-rule:nonzero;stroke:none;stroke-width:0.275751"
       d="m 139.75749,8.444339 c 0,0.534519 -0.39685,0.965584 -0.88895,0.965584 -0.48681,0 -0.88895,-0.431065 -0.88895,-0.965584 0,-0.528772 0.40214,-0.965584 0.88895,-0.965584 0.4921,0 0.88895,0.436812 0.88895,0.965584 z"
       id="path1014" />
    <path
       style="fill:none;stroke:#a5a5a5;stroke-width:0.264708px;stroke-linecap:butt;stroke-linejoin:round;stroke-miterlimit:4;stroke-dasharray:none;stroke-opacity:1"
       d="m 139.75749,8.444339 c 0,0.534519 -0.39685,0.965584 -0.88895,0.965584 -0.48681,0 -0.88895,-0.431065 -0.88895,-0.965584 0,-0.528772 0.40214,-0.965584 0.88895,-0.965584 0.4921,0 0.88895,0.436812 0.88895,0.965584"
       id="path1016" />
    <text
       xml:space="preserve"
       style="font-style:normal;font-variant:normal;font-weight:normal;font-stretch:normal;font-size:3.84782px;line-height:125%;font-family:'Times New Roman';-inkscape-font-specification:'Times New Roman, Normal';font-variant-ligatures:normal;font-variant-caps:normal;font-variant-numeric:normal;font-variant-east-asian:normal;text-align:start;letter-spacing:0px;word-spacing:0px;text-anchor:start;fill:#000000;fill-opacity:1;stroke:none;stroke-width:0.275751"
       x="150.41933"
       y="9.3446722"
       id="text1022"
       transform="scale(0.95949916,1.0422104)"><tspan
         sodipodi:role="line"
         x="150.41933"
         y="9.3446722"
         id="tspan1020"
         style="font-style:normal;font-variant:normal;font-weight:normal;font-stretch:normal;font-size:3.84782px;font-family:'Times New Roman';-inkscape-font-specification:'Times New Roman, Normal';font-variant-ligatures:normal;font-variant-caps:normal;font-variant-numeric:normal;font-variant-east-asian:normal;stroke-width:0.275751"><tspan
           dx="0"
           dy="0"
           style="font-style:normal;font-variant:normal;font-weight:normal;font-stretch:normal;font-size:3.84782px;font-family:'Times New Roman';-inkscape-font-specification:'Times New Roman, Normal';font-variant-ligatures:normal;font-variant-caps:normal;font-variant-numeric:normal;font-variant-east-asian:normal;fill:#000000;stroke-width:0.275751"
           id="tspan1018">PDE R</tspan></tspan></text>
    <path
       style="fill:none;stroke:#70ad47;stroke-width:0.573534px;stroke-linecap:round;stroke-linejoin:round;stroke-miterlimit:4;stroke-dasharray:none;stroke-opacity:1"
       d="m 65.233528,13.157307 h 8.88954"
       id="path1024" />
    <path
       style="fill:#70ad47;fill-opacity:1;fill-rule:nonzero;stroke:none;stroke-width:0.275751"
       d="m 70.546087,13.134318 c 0,0.534519 -0.396854,0.965583 -0.888953,0.965583 -0.489455,0 -0.888955,-0.431064 -0.888955,-0.965583 0,-0.531646 0.3995,-0.965584 0.888955,-0.965584 0.492099,0 0.888953,0.433938 0.888953,0.965584 z"
       id="path1026" />
    <path
       style="fill:none;stroke:#70ad47;stroke-width:0.264708px;stroke-linecap:butt;stroke-linejoin:round;stroke-miterlimit:4;stroke-dasharray:none;stroke-opacity:1"
       d="m 70.546087,13.134318 c 0,0.534519 -0.396854,0.965583 -0.888953,0.965583 -0.489455,0 -0.888955,-0.431064 -0.888955,-0.965583 0,-0.531646 0.3995,-0.965584 0.888955,-0.965584 0.492099,0 0.888953,0.433938 0.888953,0.965584"
       id="path1028" />
    <text
       xml:space="preserve"
       style="font-style:normal;font-variant:normal;font-weight:normal;font-stretch:normal;font-size:3.84782px;line-height:125%;font-family:'Times New Roman';-inkscape-font-specification:'Times New Roman, Normal';font-variant-ligatures:normal;font-variant-caps:normal;font-variant-numeric:normal;font-variant-east-asian:normal;text-align:start;letter-spacing:0px;word-spacing:0px;text-anchor:start;fill:#000000;fill-opacity:1;stroke:none;stroke-width:0.275751"
       x="78.276962"
       y="13.833962"
       id="text1034"
       transform="scale(0.95949916,1.0422104)"><tspan
         sodipodi:role="line"
         x="78.276962"
         y="13.833962"
         id="tspan1032"
         style="font-style:normal;font-variant:normal;font-weight:normal;font-stretch:normal;font-size:3.84782px;font-family:'Times New Roman';-inkscape-font-specification:'Times New Roman, Normal';font-variant-ligatures:normal;font-variant-caps:normal;font-variant-numeric:normal;font-variant-east-asian:normal;stroke-width:0.275751"><tspan
           dx="0"
           dy="0"
           style="font-style:normal;font-variant:normal;font-weight:normal;font-stretch:normal;font-size:3.84782px;font-family:'Times New Roman';-inkscape-font-specification:'Times New Roman, Normal';font-variant-ligatures:normal;font-variant-caps:normal;font-variant-numeric:normal;font-variant-east-asian:normal;fill:#000000;stroke-width:0.275751"
           id="tspan1030">PDE H</tspan></tspan></text>
    <path
       style="fill:none;stroke:#ffc000;stroke-width:0.573534px;stroke-linecap:round;stroke-linejoin:round;stroke-miterlimit:4;stroke-dasharray:none;stroke-opacity:1"
       d="m 99.818065,13.157307 h 8.889545"
       id="path1036" />
    <path
       style="fill:#ffc000;fill-opacity:1;fill-rule:nonzero;stroke:none;stroke-width:0.275751"
       d="m 105.13062,13.134318 c 0,0.534519 -0.39685,0.965583 -0.88895,0.965583 -0.48945,0 -0.88895,-0.431064 -0.88895,-0.965583 0,-0.531646 0.3995,-0.965584 0.88895,-0.965584 0.4921,0 0.88895,0.433938 0.88895,0.965584 z"
       id="path1038" />
    <path
       style="fill:none;stroke:#ffc000;stroke-width:0.264708px;stroke-linecap:butt;stroke-linejoin:round;stroke-miterlimit:4;stroke-dasharray:none;stroke-opacity:1"
       d="m 105.13062,13.134318 c 0,0.534519 -0.39685,0.965583 -0.88895,0.965583 -0.48945,0 -0.88895,-0.431064 -0.88895,-0.965583 0,-0.531646 0.3995,-0.965584 0.88895,-0.965584 0.4921,0 0.88895,0.433938 0.88895,0.965584"
       id="path1040" />
    <text
       xml:space="preserve"
       style="font-style:normal;font-variant:normal;font-weight:normal;font-stretch:normal;font-size:3.84782px;line-height:125%;font-family:'Times New Roman';-inkscape-font-specification:'Times New Roman, Normal';font-variant-ligatures:normal;font-variant-caps:normal;font-variant-numeric:normal;font-variant-east-asian:normal;text-align:start;letter-spacing:0px;word-spacing:0px;text-anchor:start;fill:#000000;fill-opacity:1;stroke:none;stroke-width:0.275751"
       x="114.34814"
       y="13.833962"
       id="text1046"
       transform="scale(0.95949916,1.0422104)"><tspan
         sodipodi:role="line"
         x="114.34814"
         y="13.833962"
         id="tspan1044"
         style="font-style:normal;font-variant:normal;font-weight:normal;font-stretch:normal;font-size:3.84782px;font-family:'Times New Roman';-inkscape-font-specification:'Times New Roman, Normal';font-variant-ligatures:normal;font-variant-caps:normal;font-variant-numeric:normal;font-variant-east-asian:normal;stroke-width:0.275751"><tspan
           dx="0"
           dy="0"
           style="font-style:normal;font-variant:normal;font-weight:normal;font-stretch:normal;font-size:3.84782px;font-family:'Times New Roman';-inkscape-font-specification:'Times New Roman, Normal';font-variant-ligatures:normal;font-variant-caps:normal;font-variant-numeric:normal;font-variant-east-asian:normal;fill:#000000;stroke-width:0.275751"
           id="tspan1042">Uxt</tspan></tspan></text>
    <path
       style="fill:none;stroke:#4472c4;stroke-width:0.573534px;stroke-linecap:round;stroke-linejoin:round;stroke-miterlimit:4;stroke-dasharray:none;stroke-opacity:1"
       d="m 134.44494,13.157307 h 8.88954"
       id="path1048" />
    <path
       style="fill:#4472c4;fill-opacity:1;fill-rule:nonzero;stroke:none;stroke-width:0.275751"
       d="m 139.75749,13.134318 c 0,0.534519 -0.39685,0.965583 -0.88895,0.965583 -0.48681,0 -0.88895,-0.431064 -0.88895,-0.965583 0,-0.528772 0.40214,-0.965584 0.88895,-0.965584 0.4921,0 0.88895,0.436812 0.88895,0.965584 z"
       id="path1050" />
    <path
       style="fill:none;stroke:#4472c4;stroke-width:0.264708px;stroke-linecap:butt;stroke-linejoin:round;stroke-miterlimit:4;stroke-dasharray:none;stroke-opacity:1"
       d="m 139.75749,13.134318 c 0,0.534519 -0.39685,0.965583 -0.88895,0.965583 -0.48681,0 -0.88895,-0.431064 -0.88895,-0.965583 0,-0.528772 0.40214,-0.965584 0.88895,-0.965584 0.4921,0 0.88895,0.436812 0.88895,0.965584"
       id="path1052" />
    <text
       xml:space="preserve"
       style="font-style:normal;font-variant:normal;font-weight:normal;font-stretch:normal;font-size:3.84782px;line-height:125%;font-family:'Times New Roman';-inkscape-font-specification:'Times New Roman, Normal';font-variant-ligatures:normal;font-variant-caps:normal;font-variant-numeric:normal;font-variant-east-asian:normal;text-align:start;letter-spacing:0px;word-spacing:0px;text-anchor:start;fill:#000000;fill-opacity:1;stroke:none;stroke-width:0.275751"
       x="150.41933"
       y="13.833962"
       id="text1058"
       transform="scale(0.95949916,1.0422104)"><tspan
         sodipodi:role="line"
         x="150.41933"
         y="13.833962"
         id="tspan1056"
         style="font-style:normal;font-variant:normal;font-weight:normal;font-stretch:normal;font-size:3.84782px;font-family:'Times New Roman';-inkscape-font-specification:'Times New Roman, Normal';font-variant-ligatures:normal;font-variant-caps:normal;font-variant-numeric:normal;font-variant-east-asian:normal;stroke-width:0.275751"><tspan
           dx="0"
           dy="0"
           style="font-style:normal;font-variant:normal;font-weight:normal;font-stretch:normal;font-size:3.84782px;font-family:'Times New Roman';-inkscape-font-specification:'Times New Roman, Normal';font-variant-ligatures:normal;font-variant-caps:normal;font-variant-numeric:normal;font-variant-east-asian:normal;fill:#000000;stroke-width:0.275751"
           id="tspan1054">PDExt</tspan></tspan></text>
    <path
       style="fill:none;stroke:#000000;stroke-width:0.95995px;stroke-linecap:butt;stroke-linejoin:round;stroke-miterlimit:4;stroke-dasharray:none;stroke-opacity:1"
       clip-path="url(#clipEmfPath2)"
       d="M 0.8799543,0.8799543 H 564.0507 V 226.46824 H 0.8799543 Z"
       id="path1060"
       transform="matrix(0.26458333,0,0,0.26458333,30.818316,1.493791)" />
  </g>
</svg>
