<?xml version="1.0" encoding="UTF-8" standalone="no"?>
<!-- Created with Inkscape (http://www.inkscape.org/) -->

<svg
   width="210mm"
   height="297mm"
   viewBox="0 0 210 297"
   version="1.1"
   id="svg5"
   inkscape:version="1.2.2 (732a01da63, 2022-12-09)"
   sodipodi:docname="visc_01.svg"
   xmlns:inkscape="http://www.inkscape.org/namespaces/inkscape"
   xmlns:sodipodi="http://sodipodi.sourceforge.net/DTD/sodipodi-0.dtd"
   xmlns="http://www.w3.org/2000/svg"
   xmlns:svg="http://www.w3.org/2000/svg">
  <sodipodi:namedview
     id="namedview7"
     pagecolor="#ffffff"
     bordercolor="#000000"
     borderopacity="0.25"
     inkscape:showpageshadow="2"
     inkscape:pageopacity="0.0"
     inkscape:pagecheckerboard="0"
     inkscape:deskcolor="#d1d1d1"
     inkscape:document-units="mm"
     showgrid="false"
     inkscape:zoom="1.4912879"
     inkscape:cx="386.24333"
     inkscape:cy="282.30632"
     inkscape:window-width="1920"
     inkscape:window-height="1017"
     inkscape:window-x="1912"
     inkscape:window-y="-8"
     inkscape:window-maximized="1"
     inkscape:current-layer="layer1" />
  <defs
     id="defs2">
    <clipPath
       clipPathUnits="userSpaceOnUse"
       id="clipEmfPath1">
      <path
         d="M 80.635812,45.597632 L 520.93294,45.597632 L 520.93294,171.19111 L 80.635812,171.19111 z"
         id="path9" />
    </clipPath>
    <clipPath
       clipPathUnits="userSpaceOnUse"
       id="clipEmfPath2">
      <path
         d="M 0.47997507,0.47997507 L 564.61067,0.47997507 L 564.61067,228.14815 L 0.47997507,228.14815 z"
         id="path12" />
    </clipPath>
    <pattern
       id="EMFhbasepattern"
       patternUnits="userSpaceOnUse"
       width="6"
       height="6"
       x="0"
       y="0" />
  </defs>
  <g
     inkscape:label="Layer 1"
     inkscape:groupmode="layer"
     id="layer1">
    <path
       style="fill:none;stroke:#000000;stroke-width:0.263457px;stroke-linecap:butt;stroke-linejoin:round;stroke-miterlimit:4;stroke-dasharray:none;stroke-opacity:1"
       d="M 51.464697,45.124078 V 9.6431283"
       id="path20" />
    <path
       style="fill:none;stroke:#000000;stroke-width:0.263457px;stroke-linecap:butt;stroke-linejoin:round;stroke-miterlimit:4;stroke-dasharray:none;stroke-opacity:1"
       d="m 50.618074,45.124078 h 0.846623 m -0.846623,-5.328975 h 0.846623 m -0.846623,-3.097181 h 0.846623 M 50.618074,34.46613 h 0.846623 m -0.846623,-1.73078 h 0.846623 m -0.846623,-1.411949 h 0.846623 m -0.846623,-1.184216 h 0.846623 m -0.846623,-1.00203 h 0.846623 M 50.618074,28.22622 h 0.846623 m -0.846623,-0.819845 h 0.846623 m -0.846623,-5.374519 h 0.846623 m -0.846623,-3.097183 h 0.846623 m -0.846623,-2.231792 h 0.846623 m -0.846623,-1.730778 h 0.846623 m -0.846623,-1.366404 h 0.846623 m -0.846623,-1.229764 h 0.846623 m -0.846623,-1.002029 h 0.846623 M 50.618074,10.46297 h 0.846623 M 50.618074,9.6431283 h 0.846623 m -0.846623,0 h 0.846623"
       id="path22" />
    <path
       style="fill:none;stroke:#000000;stroke-width:0.263457px;stroke-linecap:butt;stroke-linejoin:round;stroke-miterlimit:4;stroke-dasharray:none;stroke-opacity:1"
       d="M 51.464697,45.124078 H 167.70599"
       id="path24" />
    <path
       style="fill:none;stroke:#000000;stroke-width:0.263457px;stroke-linecap:butt;stroke-linejoin:round;stroke-miterlimit:4;stroke-dasharray:none;stroke-opacity:1"
       d="m 51.464697,45.124078 v 0.910937 m 11.59873,-0.910937 v 0.910937 m 11.641064,-0.910937 v 0.910937 m 11.59873,-0.910937 v 0.910937 m 11.64106,-0.910937 v 0.910937 m 11.641059,-0.910937 v 0.910937 m 11.59873,-0.910937 v 0.910937 m 11.64106,-0.910937 v 0.910937 m 11.59873,-0.910937 v 0.910937 m 11.64106,-0.910937 v 0.910937 m 11.64107,-0.910937 v 0.910937"
       id="path26" />
    <path
       style="fill:#5b9bd5;fill-opacity:1;fill-rule:nonzero;stroke:#5b9bd5;stroke-width:0.019999px;stroke-linecap:butt;stroke-linejoin:round;stroke-miterlimit:4;stroke-dasharray:none;stroke-opacity:1"
       clip-path="url(#clipEmfPath1)"
       d="m 519.97299,89.835334 h -6.23967 c -0.55997,0 -1.03995,-0.459976 -1.03995,-1.039946 0,-0.559971 0.47998,-1.039946 1.03995,-1.039946 h 6.23967 v 0 c 0.57997,0 1.03995,0.479975 1.03995,1.039946 0,0.57997 -0.45998,1.039946 -1.03995,1.039946 z m -14.55924,0 h -6.23968 c -0.55997,0 -1.03994,-0.459976 -1.03994,-1.039946 0,-0.559971 0.47997,-1.039946 1.03994,-1.039946 h 6.23968 v 0 c 0.57997,0 1.03995,0.479975 1.03995,1.039946 0,0.57997 -0.45998,1.039946 -1.03995,1.039946 z m -14.55924,0 h -6.23968 c -0.55997,0 -1.03995,-0.459976 -1.03995,-1.039946 0,-0.559971 0.47998,-1.039946 1.03995,-1.039946 h 6.23968 v 0 c 0.57997,0 1.03994,0.479975 1.03994,1.039946 0,0.57997 -0.45997,1.039946 -1.03994,1.039946 z m -14.55925,0 h -6.23967 c -0.55998,0 -1.03995,-0.459976 -1.03995,-1.039946 0,-0.559971 0.47997,-1.039946 1.03995,-1.039946 h 6.23967 v 0 c 0.57997,0 1.03995,0.479975 1.03995,1.039946 0,0.57997 -0.45998,1.039946 -1.03995,1.039946 z m -14.55924,0 h -6.23968 c -0.55997,0 -1.03994,-0.459976 -1.03994,-1.039946 0,-0.559971 0.47997,-1.039946 1.03994,-1.039946 h 6.23968 v 0 c 0.57997,0 1.03994,0.479975 1.03994,1.039946 0,0.57997 -0.45997,1.039946 -1.03994,1.039946 z m -14.55925,0 h -6.23967 c -0.55997,0 -1.03995,-0.459976 -1.03995,-1.039946 0,-0.559971 0.47998,-1.039946 1.03995,-1.039946 h 6.23967 v 0 c 0.57997,0 1.03995,0.479975 1.03995,1.039946 0,0.57997 -0.45998,1.039946 -1.03995,1.039946 z m -14.55924,0 h -6.23968 c -0.55997,0 -1.03994,-0.459976 -1.03994,-1.039946 0,-0.559971 0.47997,-1.039946 1.03994,-1.039946 h 6.23968 v 0 c 0.57997,0 1.03995,0.479975 1.03995,1.039946 0,0.57997 -0.45998,1.039946 -1.03995,1.039946 z m -14.55924,0 h -6.23968 c -0.55997,0 -1.03995,-0.459976 -1.03995,-1.039946 0,-0.559971 0.47998,-1.039946 1.03995,-1.039946 h 6.23968 v 0 c 0.57997,0 1.03994,0.479975 1.03994,1.039946 0,0.57997 -0.45997,1.039946 -1.03994,1.039946 z m -14.55925,0 h -6.23967 c -0.55997,0 -1.03995,-0.459976 -1.03995,-1.039946 0,-0.559971 0.47998,-1.039946 1.03995,-1.039946 h 6.23967 v 0 c 0.57997,0 1.03995,0.479975 1.03995,1.039946 0,0.57997 -0.45998,1.039946 -1.03995,1.039946 z m -14.55924,0 h -6.23968 c -0.55997,0 -1.03994,-0.459976 -1.03994,-1.039946 0,-0.559971 0.47997,-1.039946 1.03994,-1.039946 h 6.23968 v 0 c 0.57997,0 1.03994,0.479975 1.03994,1.039946 0,0.57997 -0.45997,1.039946 -1.03994,1.039946 z m -14.55925,0 h -6.23967 c -0.55997,0 -1.03995,-0.459976 -1.03995,-1.039946 0,-0.559971 0.47998,-1.039946 1.03995,-1.039946 h 6.23967 v 0 c 0.57997,0 1.03995,0.479975 1.03995,1.039946 0,0.57997 -0.45998,1.039946 -1.03995,1.039946 z m -14.55924,0 h -6.23967 c -0.55998,0 -1.03995,-0.459976 -1.03995,-1.039946 0,-0.559971 0.47997,-1.039946 1.03995,-1.039946 h 6.23967 v 0 c 0.57997,0 1.03995,0.479975 1.03995,1.039946 0,0.57997 -0.45998,1.039946 -1.03995,1.039946 z m -14.55924,0 h -6.23968 c -0.55997,0 -1.03994,-0.459976 -1.03994,-1.039946 0,-0.559971 0.47997,-1.039946 1.03994,-1.039946 h 6.23968 v 0 c 0.57997,0 1.03994,0.479975 1.03994,1.039946 0,0.57997 -0.45997,1.039946 -1.03994,1.039946 z m -14.55925,0 h -6.23967 c -0.55997,0 -1.03995,-0.459976 -1.03995,-1.039946 0,-0.559971 0.47998,-1.039946 1.03995,-1.039946 h 6.23967 v 0 c 0.57997,0 1.03995,0.479975 1.03995,1.039946 0,0.57997 -0.45998,1.039946 -1.03995,1.039946 z m -14.55924,0 h -6.23968 c -0.55997,0 -1.03994,-0.459976 -1.03994,-1.039946 0,-0.559971 0.47997,-1.039946 1.03994,-1.039946 h 6.23968 v 0 c 0.57997,0 1.03995,0.479975 1.03995,1.039946 0,0.57997 -0.45998,1.039946 -1.03995,1.039946 z m -14.55924,0 h -1.27994 -4.95974 c -0.55997,0 -1.03995,-0.459976 -1.03995,-1.039946 0,-0.559971 0.47998,-1.039946 1.03995,-1.039946 h 4.95974 1.27994 v 0 c 0.57997,0 1.03994,0.479975 1.03994,1.039946 0,0.57997 -0.45997,1.039946 -1.03994,1.039946 z m -14.55925,0 h -6.23967 c -0.55997,0 -1.03995,-0.459976 -1.03995,-1.039946 0,-0.559971 0.47998,-1.039946 1.03995,-1.039946 h 6.23967 v 0 c 0.57997,0 1.03995,0.479975 1.03995,1.039946 0,0.57997 -0.45998,1.039946 -1.03995,1.039946 z m -14.55924,0 h -6.23968 c -0.55997,0 -1.03994,-0.459976 -1.03994,-1.039946 0,-0.559971 0.47997,-1.039946 1.03994,-1.039946 h 6.23968 v 0 c 0.57997,0 1.03994,0.479975 1.03994,1.039946 0,0.57997 -0.45997,1.039946 -1.03994,1.039946 z m -14.55925,0 h -6.23967 c -0.55997,0 -1.03995,-0.459976 -1.03995,-1.039946 0,-0.559971 0.47998,-1.039946 1.03995,-1.039946 h 6.23967 v 0 c 0.57997,0 1.03995,0.479975 1.03995,1.039946 0,0.57997 -0.45998,1.039946 -1.03995,1.039946 z m -14.55924,0 h -6.23968 c -0.55997,0 -1.03994,-0.459976 -1.03994,-1.039946 0,-0.559971 0.47997,-1.039946 1.03994,-1.039946 h 6.23968 v 0 c 0.57997,0 1.03995,0.479975 1.03995,1.039946 0,0.57997 -0.45998,1.039946 -1.03995,1.039946 z m -14.55924,0 h -6.23968 c -0.55997,0 -1.03995,-0.459976 -1.03995,-1.039946 0,-0.559971 0.47998,-1.039946 1.03995,-1.039946 h 6.23968 v 0 c 0.57997,0 1.03994,0.479975 1.03994,1.039946 0,0.57997 -0.45997,1.039946 -1.03994,1.039946 z m -14.55925,0 h -6.23967 c -0.55997,0 -1.03995,-0.459976 -1.03995,-1.039946 0,-0.559971 0.47998,-1.039946 1.03995,-1.039946 h 6.23967 v 0 c 0.57997,0 1.03995,0.479975 1.03995,1.039946 0,0.57997 -0.45998,1.039946 -1.03995,1.039946 z m -14.55924,0 h -6.23968 c -0.55997,0 -1.03994,-0.459976 -1.03994,-1.039946 0,-0.559971 0.47997,-1.039946 1.03994,-1.039946 h 6.23968 v 0 c 0.57997,0 1.03995,0.479975 1.03995,1.039946 0,0.57997 -0.45998,1.039946 -1.03995,1.039946 z m -14.55924,0 h -6.23968 c -0.55997,0 -1.03995,-0.459976 -1.03995,-1.039946 0,-0.559971 0.47998,-1.039946 1.03995,-1.039946 h 6.23968 v 0 c 0.57997,0 1.03994,0.479975 1.03994,1.039946 0,0.57997 -0.45997,1.039946 -1.03994,1.039946 z m -14.55925,0 h -2.07989 -4.15978 c -0.55998,0 -1.03995,-0.459976 -1.03995,-1.039946 0,-0.559971 0.47997,-1.039946 1.03995,-1.039946 h 4.15978 2.07989 v 0 c 0.57997,0 1.03995,0.479975 1.03995,1.039946 0,0.57997 -0.45998,1.039946 -1.03995,1.039946 z m -14.55924,0 h -6.23968 c -0.55997,0 -1.03994,-0.459976 -1.03994,-1.039946 0,-0.559971 0.47997,-1.039946 1.03994,-1.039946 h 6.23968 v 0 c 0.57997,0 1.03994,0.479975 1.03994,1.039946 0,0.57997 -0.45997,1.039946 -1.03994,1.039946 z m -14.55925,0 h -6.23967 c -0.55997,0 -1.03995,-0.459976 -1.03995,-1.039946 0,-0.559971 0.47998,-1.039946 1.03995,-1.039946 h 6.23967 v 0 c 0.57997,0 1.03995,0.479975 1.03995,1.039946 0,0.57997 -0.45998,1.039946 -1.03995,1.039946 z m -14.55924,0 h -2.23988 -3.9998 c -0.55997,0 -1.03994,-0.459976 -1.03994,-1.039946 0,-0.559971 0.47997,-1.039946 1.03994,-1.039946 h 3.9998 2.23988 v 0 c 0.57997,0 1.03995,0.479975 1.03995,1.039946 0,0.57997 -0.45998,1.039946 -1.03995,1.039946 z m -14.55924,0 h -6.23968 c -0.55997,0 -1.03995,-0.459976 -1.03995,-1.039946 0,-0.559971 0.47998,-1.039946 1.03995,-1.039946 h 6.23968 v 0 c 0.57997,0 1.03994,0.479975 1.03994,1.039946 0,0.57997 -0.45997,1.039946 -1.03994,1.039946 z m -14.559247,0 h -6.239676 c -0.559971,0 -1.039946,-0.459976 -1.039946,-1.039946 0,-0.559971 0.479975,-1.039946 1.039946,-1.039946 h 6.239676 v 0 c 0.57997,0 1.039946,0.479975 1.039946,1.039946 0,0.57997 -0.459976,1.039946 -1.039946,1.039946 z"
       id="path28"
       transform="matrix(0.26458333,0,0,0.28468223,30.108639,-3.3149347)" />
    <path
       style="fill:#ed7d31;fill-opacity:1;fill-rule:nonzero;stroke:#ed7d31;stroke-width:0.019999px;stroke-linecap:butt;stroke-linejoin:round;stroke-miterlimit:4;stroke-dasharray:none;stroke-opacity:1"
       clip-path="url(#clipEmfPath1)"
       d="m 519.97299,111.91419 h -6.23967 c -0.55997,0 -1.03995,-0.45998 -1.03995,-1.03995 0,-0.55997 0.47998,-1.03994 1.03995,-1.03994 h 6.23967 v 0 c 0.57997,0 1.03995,0.47997 1.03995,1.03994 0,0.57997 -0.45998,1.03995 -1.03995,1.03995 z m -14.55924,0 h -6.23968 c -0.55997,0 -1.03994,-0.45998 -1.03994,-1.03995 0,-0.55997 0.47997,-1.03994 1.03994,-1.03994 h 6.23968 v 0 c 0.57997,0 1.03995,0.47997 1.03995,1.03994 0,0.57997 -0.45998,1.03995 -1.03995,1.03995 z m -14.55924,0 h -6.23968 c -0.55997,0 -1.03995,-0.45998 -1.03995,-1.03995 0,-0.55997 0.47998,-1.03994 1.03995,-1.03994 h 6.23968 v 0 c 0.57997,0 1.03994,0.47997 1.03994,1.03994 0,0.57997 -0.45997,1.03995 -1.03994,1.03995 z m -14.55925,0 h -6.23967 c -0.55998,0 -1.03995,-0.45998 -1.03995,-1.03995 0,-0.55997 0.47997,-1.03994 1.03995,-1.03994 h 6.23967 v 0 c 0.57997,0 1.03995,0.47997 1.03995,1.03994 0,0.57997 -0.45998,1.03995 -1.03995,1.03995 z m -14.55924,0 h -6.23968 c -0.55997,0 -1.03994,-0.45998 -1.03994,-1.03995 0,-0.55997 0.47997,-1.03994 1.03994,-1.03994 h 6.23968 v 0 c 0.57997,0 1.03994,0.47997 1.03994,1.03994 0,0.57997 -0.45997,1.03995 -1.03994,1.03995 z m -14.55925,0 h -6.23967 c -0.55997,0 -1.03995,-0.45998 -1.03995,-1.03995 0,-0.55997 0.47998,-1.03994 1.03995,-1.03994 h 6.23967 v 0 c 0.57997,0 1.03995,0.47997 1.03995,1.03994 0,0.57997 -0.45998,1.03995 -1.03995,1.03995 z m -14.55924,0 h -6.23968 c -0.55997,0 -1.03994,-0.45998 -1.03994,-1.03995 0,-0.55997 0.47997,-1.03994 1.03994,-1.03994 h 6.23968 v 0 c 0.57997,0 1.03995,0.47997 1.03995,1.03994 0,0.57997 -0.45998,1.03995 -1.03995,1.03995 z m -14.55924,0 h -6.23968 c -0.55997,0 -1.03995,-0.45998 -1.03995,-1.03995 0,-0.55997 0.47998,-1.03994 1.03995,-1.03994 h 6.23968 v 0 c 0.57997,0 1.03994,0.47997 1.03994,1.03994 0,0.57997 -0.45997,1.03995 -1.03994,1.03995 z m -14.55925,0 h -6.23967 c -0.55997,0 -1.03995,-0.45998 -1.03995,-1.03995 0,-0.55997 0.47998,-1.03994 1.03995,-1.03994 h 6.23967 v 0 c 0.57997,0 1.03995,0.47997 1.03995,1.03994 0,0.57997 -0.45998,1.03995 -1.03995,1.03995 z m -14.55924,0 h -6.23968 c -0.55997,0 -1.03994,-0.45998 -1.03994,-1.03995 0,-0.55997 0.47997,-1.03994 1.03994,-1.03994 h 6.23968 v 0 c 0.57997,0 1.03994,0.47997 1.03994,1.03994 0,0.57997 -0.45997,1.03995 -1.03994,1.03995 z m -14.55925,0 h -6.23967 c -0.55997,0 -1.03995,-0.45998 -1.03995,-1.03995 0,-0.55997 0.47998,-1.03994 1.03995,-1.03994 h 6.23967 v 0 c 0.57997,0 1.03995,0.47997 1.03995,1.03994 0,0.57997 -0.45998,1.03995 -1.03995,1.03995 z m -14.55924,0 h -6.23967 c -0.55998,0 -1.03995,-0.45998 -1.03995,-1.03995 0,-0.55997 0.47997,-1.03994 1.03995,-1.03994 h 6.23967 v 0 c 0.57997,0 1.03995,0.47997 1.03995,1.03994 0,0.57997 -0.45998,1.03995 -1.03995,1.03995 z m -14.55924,0 h -6.23968 c -0.55997,0 -1.03994,-0.45998 -1.03994,-1.03995 0,-0.55997 0.47997,-1.03994 1.03994,-1.03994 h 6.23968 v 0 c 0.57997,0 1.03994,0.47997 1.03994,1.03994 0,0.57997 -0.45997,1.03995 -1.03994,1.03995 z m -14.55925,0 h -6.23967 c -0.55997,0 -1.03995,-0.45998 -1.03995,-1.03995 0,-0.55997 0.47998,-1.03994 1.03995,-1.03994 h 6.23967 v 0 c 0.57997,0 1.03995,0.47997 1.03995,1.03994 0,0.57997 -0.45998,1.03995 -1.03995,1.03995 z m -14.55924,0 h -6.23968 c -0.55997,0 -1.03994,-0.45998 -1.03994,-1.03995 0,-0.55997 0.47997,-1.03994 1.03994,-1.03994 h 6.23968 v 0 c 0.57997,0 1.03995,0.47997 1.03995,1.03994 0,0.57997 -0.45998,1.03995 -1.03995,1.03995 z m -14.55924,0 h -1.27994 -4.95974 c -0.55997,0 -1.03995,-0.45998 -1.03995,-1.03995 0,-0.55997 0.47998,-1.03994 1.03995,-1.03994 h 4.95974 1.27994 v 0 c 0.57997,0 1.03994,0.47997 1.03994,1.03994 0,0.57997 -0.45997,1.03995 -1.03994,1.03995 z m -14.55925,0 h -6.23967 c -0.55997,0 -1.03995,-0.45998 -1.03995,-1.03995 0,-0.55997 0.47998,-1.03994 1.03995,-1.03994 h 6.23967 v 0 c 0.57997,0 1.03995,0.47997 1.03995,1.03994 0,0.57997 -0.45998,1.03995 -1.03995,1.03995 z m -14.55924,0 h -6.23968 c -0.55997,0 -1.03994,-0.45998 -1.03994,-1.03995 0,-0.55997 0.47997,-1.03994 1.03994,-1.03994 h 6.23968 v 0 c 0.57997,0 1.03994,0.47997 1.03994,1.03994 0,0.57997 -0.45997,1.03995 -1.03994,1.03995 z m -14.55925,0 h -6.23967 c -0.55997,0 -1.03995,-0.45998 -1.03995,-1.03995 0,-0.55997 0.47998,-1.03994 1.03995,-1.03994 h 6.23967 v 0 c 0.57997,0 1.03995,0.47997 1.03995,1.03994 0,0.57997 -0.45998,1.03995 -1.03995,1.03995 z m -14.55924,0 h -6.23968 c -0.55997,0 -1.03994,-0.45998 -1.03994,-1.03995 0,-0.55997 0.47997,-1.03994 1.03994,-1.03994 h 6.23968 v 0 c 0.57997,0 1.03995,0.47997 1.03995,1.03994 0,0.57997 -0.45998,1.03995 -1.03995,1.03995 z m -14.55924,0 h -6.23968 c -0.55997,0 -1.03995,-0.45998 -1.03995,-1.03995 0,-0.55997 0.47998,-1.03994 1.03995,-1.03994 h 6.23968 v 0 c 0.57997,0 1.03994,0.47997 1.03994,1.03994 0,0.57997 -0.45997,1.03995 -1.03994,1.03995 z m -14.55925,0 h -6.23967 c -0.55997,0 -1.03995,-0.45998 -1.03995,-1.03995 0,-0.55997 0.47998,-1.03994 1.03995,-1.03994 h 6.23967 v 0 c 0.57997,0 1.03995,0.47997 1.03995,1.03994 0,0.57997 -0.45998,1.03995 -1.03995,1.03995 z m -14.55924,0 h -6.23968 c -0.55997,0 -1.03994,-0.45998 -1.03994,-1.03995 0,-0.55997 0.47997,-1.03994 1.03994,-1.03994 h 6.23968 v 0 c 0.57997,0 1.03995,0.47997 1.03995,1.03994 0,0.57997 -0.45998,1.03995 -1.03995,1.03995 z m -14.55924,0 h -6.23968 c -0.55997,0 -1.03995,-0.45998 -1.03995,-1.03995 0,-0.55997 0.47998,-1.03994 1.03995,-1.03994 h 6.23968 v 0 c 0.57997,0 1.03994,0.47997 1.03994,1.03994 0,0.57997 -0.45997,1.03995 -1.03994,1.03995 z m -14.55925,0 h -2.07989 -4.15978 c -0.55998,0 -1.03995,-0.45998 -1.03995,-1.03995 0,-0.55997 0.47997,-1.03994 1.03995,-1.03994 h 4.15978 2.07989 v 0 c 0.57997,0 1.03995,0.47997 1.03995,1.03994 0,0.57997 -0.45998,1.03995 -1.03995,1.03995 z m -14.55924,0 h -6.23968 c -0.55997,0 -1.03994,-0.45998 -1.03994,-1.03995 0,-0.55997 0.47997,-1.03994 1.03994,-1.03994 h 6.23968 v 0 c 0.57997,0 1.03994,0.47997 1.03994,1.03994 0,0.57997 -0.45997,1.03995 -1.03994,1.03995 z m -14.55925,0 h -6.23967 c -0.55997,0 -1.03995,-0.45998 -1.03995,-1.03995 0,-0.55997 0.47998,-1.03994 1.03995,-1.03994 h 6.23967 v 0 c 0.57997,0 1.03995,0.47997 1.03995,1.03994 0,0.57997 -0.45998,1.03995 -1.03995,1.03995 z m -14.55924,0 h -2.23988 -3.9998 c -0.55997,0 -1.03994,-0.45998 -1.03994,-1.03995 0,-0.55997 0.47997,-1.03994 1.03994,-1.03994 h 3.9998 2.23988 v 0 c 0.57997,0 1.03995,0.47997 1.03995,1.03994 0,0.57997 -0.45998,1.03995 -1.03995,1.03995 z m -14.55924,0 h -6.23968 c -0.55997,0 -1.03995,-0.45998 -1.03995,-1.03995 0,-0.55997 0.47998,-1.03994 1.03995,-1.03994 h 6.23968 v 0 c 0.57997,0 1.03994,0.47997 1.03994,1.03994 0,0.57997 -0.45997,1.03995 -1.03994,1.03995 z m -14.559247,0 h -6.239676 c -0.559971,0 -1.039946,-0.45998 -1.039946,-1.03995 0,-0.55997 0.479975,-1.03994 1.039946,-1.03994 h 6.239676 v 0 c 0.57997,0 1.039946,0.47997 1.039946,1.03994 0,0.57997 -0.459976,1.03995 -1.039946,1.03995 z"
       id="path30"
       transform="matrix(0.26458333,0,0,0.28468223,30.108639,-3.3149347)" />
    <path
       style="fill:none;stroke:#a5a5a5;stroke-width:2.07989px;stroke-linecap:round;stroke-linejoin:round;stroke-miterlimit:4;stroke-dasharray:none;stroke-opacity:1"
       clip-path="url(#clipEmfPath1)"
       d="M 519.97299,107.19443 300.3044,105.11454 168.47125,99.194848 124.63353,91.995222 85.115579,65.596593"
       id="path32"
       transform="matrix(0.26458333,0,0,0.28468223,30.108639,-3.3149347)" />
    <path
       style="fill:#a5a5a5;fill-opacity:1;fill-rule:nonzero;stroke:none;stroke-width:0.274449"
       d="m 168.57907,27.235578 c 0,0.529479 -0.40214,0.95648 -0.88895,0.95648 -0.4921,0 -0.88895,-0.427001 -0.88895,-0.95648 0,-0.529485 0.39685,-0.956484 0.88895,-0.956484 0.48681,0 0.88895,0.426999 0.88895,0.956484 z"
       id="path34" />
    <path
       style="fill:none;stroke:#a5a5a5;stroke-width:0.263457px;stroke-linecap:butt;stroke-linejoin:round;stroke-miterlimit:4;stroke-dasharray:none;stroke-opacity:1"
       d="m 168.57907,27.235578 c 0,0.529479 -0.40214,0.95648 -0.88895,0.95648 -0.4921,0 -0.88895,-0.427001 -0.88895,-0.95648 0,-0.529485 0.39685,-0.956484 0.88895,-0.956484 0.48681,0 0.88895,0.426999 0.88895,0.956484"
       id="path36" />
    <path
       style="fill:#a5a5a5;fill-opacity:1;fill-rule:nonzero;stroke:none;stroke-width:0.274449"
       d="m 110.45578,26.64062 c 0,0.529483 -0.3995,0.956484 -0.88896,0.956484 -0.4921,0 -0.88895,-0.427001 -0.88895,-0.956484 0,-0.526634 0.39685,-0.956481 0.88895,-0.956481 0.48946,0 0.88896,0.429847 0.88896,0.956481 z"
       id="path38" />
    <path
       style="fill:none;stroke:#a5a5a5;stroke-width:0.263457px;stroke-linecap:butt;stroke-linejoin:round;stroke-miterlimit:4;stroke-dasharray:none;stroke-opacity:1"
       d="m 110.45578,26.64062 c 0,0.529483 -0.3995,0.956484 -0.88896,0.956484 -0.4921,0 -0.88895,-0.427001 -0.88895,-0.956484 0,-0.526634 0.39685,-0.956481 0.88895,-0.956481 0.48946,0 0.88896,0.429847 0.88896,0.956481"
       id="path40" />
    <path
       style="fill:#a5a5a5;fill-opacity:1;fill-rule:nonzero;stroke:none;stroke-width:0.274449"
       d="m 75.574922,24.95539 c 0,0.529483 -0.3995,0.956483 -0.888952,0.956483 -0.492099,0 -0.888955,-0.427 -0.888955,-0.956483 0,-0.526635 0.396856,-0.956483 0.888955,-0.956483 0.489452,0 0.888952,0.429848 0.888952,0.956483 z"
       id="path42" />
    <path
       style="fill:none;stroke:#a5a5a5;stroke-width:0.263457px;stroke-linecap:butt;stroke-linejoin:round;stroke-miterlimit:4;stroke-dasharray:none;stroke-opacity:1"
       d="m 75.574922,24.95539 c 0,0.529483 -0.3995,0.956483 -0.888952,0.956483 -0.492099,0 -0.888955,-0.427 -0.888955,-0.956483 0,-0.526635 0.396856,-0.956483 0.888955,-0.956483 0.489452,0 0.888952,0.429848 0.888952,0.956483"
       id="path44" />
    <path
       style="fill:#a5a5a5;fill-opacity:1;fill-rule:nonzero;stroke:none;stroke-width:0.274449"
       d="m 63.933861,22.905784 c 0,0.529481 -0.399499,0.956483 -0.888955,0.956483 -0.492098,0 -0.888952,-0.427002 -0.888952,-0.956483 0,-0.526635 0.396854,-0.956483 0.888952,-0.956483 0.489456,0 0.888955,0.429848 0.888955,0.956483 z"
       id="path46" />
    <path
       style="fill:none;stroke:#a5a5a5;stroke-width:0.263457px;stroke-linecap:butt;stroke-linejoin:round;stroke-miterlimit:4;stroke-dasharray:none;stroke-opacity:1"
       d="m 63.933861,22.905784 c 0,0.529481 -0.399499,0.956483 -0.888955,0.956483 -0.492098,0 -0.888952,-0.427002 -0.888952,-0.956483 0,-0.526635 0.396854,-0.956483 0.888952,-0.956483 0.489456,0 0.888955,0.429848 0.888955,0.956483"
       id="path48" />
    <path
       style="fill:#a5a5a5;fill-opacity:1;fill-rule:nonzero;stroke:none;stroke-width:0.274449"
       d="m 53.478071,15.345017 c 0,0.529481 -0.3995,0.956483 -0.888954,0.956483 -0.492099,0 -0.888954,-0.427002 -0.888954,-0.956483 0,-0.526635 0.396855,-0.956483 0.888954,-0.956483 0.489454,0 0.888954,0.429848 0.888954,0.956483 z"
       id="path50" />
    <path
       style="fill:none;stroke:#a5a5a5;stroke-width:0.263457px;stroke-linecap:butt;stroke-linejoin:round;stroke-miterlimit:4;stroke-dasharray:none;stroke-opacity:1"
       d="m 53.478071,15.345017 c 0,0.529481 -0.3995,0.956483 -0.888954,0.956483 -0.492099,0 -0.888954,-0.427002 -0.888954,-0.956483 0,-0.526635 0.396855,-0.956483 0.888954,-0.956483 0.489454,0 0.888954,0.429848 0.888954,0.956483"
       id="path52" />
    <path
       style="fill:none;stroke:#70ad47;stroke-width:2.07989px;stroke-linecap:round;stroke-linejoin:round;stroke-miterlimit:4;stroke-dasharray:none;stroke-opacity:1"
       clip-path="url(#clipEmfPath1)"
       d="M 519.97299,103.9946 300.3044,105.75451 168.47125,100.1548 124.63353,92.475197 85.115579,72.156252"
       id="path54"
       transform="matrix(0.26458333,0,0,0.28468223,30.108639,-3.3149347)" />
    <path
       style="fill:#70ad47;fill-opacity:1;fill-rule:nonzero;stroke:none;stroke-width:0.274449"
       d="m 168.57907,26.324639 c 0,0.529483 -0.40214,0.956484 -0.88895,0.956484 -0.4921,0 -0.88895,-0.427001 -0.88895,-0.956484 0,-0.52948 0.39685,-0.95648 0.88895,-0.95648 0.48681,0 0.88895,0.427 0.88895,0.95648 z"
       id="path56" />
    <path
       style="fill:none;stroke:#70ad47;stroke-width:0.263457px;stroke-linecap:butt;stroke-linejoin:round;stroke-miterlimit:4;stroke-dasharray:none;stroke-opacity:1"
       d="m 168.57907,26.324639 c 0,0.529483 -0.40214,0.956484 -0.88895,0.956484 -0.4921,0 -0.88895,-0.427001 -0.88895,-0.956484 0,-0.52948 0.39685,-0.95648 0.88895,-0.95648 0.48681,0 0.88895,0.427 0.88895,0.95648"
       id="path58" />
    <path
       style="fill:#70ad47;fill-opacity:1;fill-rule:nonzero;stroke:none;stroke-width:0.274449"
       d="m 110.45578,26.822807 c 0,0.529481 -0.3995,0.956484 -0.88896,0.956484 -0.4921,0 -0.88895,-0.427003 -0.88895,-0.956484 0,-0.526632 0.39685,-0.95648 0.88895,-0.95648 0.48946,0 0.88896,0.429848 0.88896,0.95648 z"
       id="path60" />
    <path
       style="fill:none;stroke:#70ad47;stroke-width:0.263457px;stroke-linecap:butt;stroke-linejoin:round;stroke-miterlimit:4;stroke-dasharray:none;stroke-opacity:1"
       d="m 110.45578,26.822807 c 0,0.529481 -0.3995,0.956484 -0.88896,0.956484 -0.4921,0 -0.88895,-0.427003 -0.88895,-0.956484 0,-0.526632 0.39685,-0.95648 0.88895,-0.95648 0.48946,0 0.88896,0.429848 0.88896,0.95648"
       id="path62" />
    <path
       style="fill:#70ad47;fill-opacity:1;fill-rule:nonzero;stroke:none;stroke-width:0.274449"
       d="m 75.574922,25.228669 c 0,0.529485 -0.3995,0.956484 -0.888952,0.956484 -0.492099,0 -0.888955,-0.426999 -0.888955,-0.956484 0,-0.526634 0.396856,-0.956481 0.888955,-0.956481 0.489452,0 0.888952,0.429847 0.888952,0.956481 z"
       id="path64" />
    <path
       style="fill:none;stroke:#70ad47;stroke-width:0.263457px;stroke-linecap:butt;stroke-linejoin:round;stroke-miterlimit:4;stroke-dasharray:none;stroke-opacity:1"
       d="m 75.574922,25.228669 c 0,0.529485 -0.3995,0.956484 -0.888952,0.956484 -0.492099,0 -0.888955,-0.426999 -0.888955,-0.956484 0,-0.526634 0.396856,-0.956481 0.888955,-0.956481 0.489452,0 0.888952,0.429847 0.888952,0.956481"
       id="path66" />
    <path
       style="fill:#70ad47;fill-opacity:1;fill-rule:nonzero;stroke:none;stroke-width:0.274449"
       d="m 63.933861,22.996877 c 0,0.529482 -0.399499,0.956483 -0.888955,0.956483 -0.492098,0 -0.888952,-0.427001 -0.888952,-0.956483 0,-0.526634 0.396854,-0.956481 0.888952,-0.956481 0.489456,0 0.888955,0.429847 0.888955,0.956481 z"
       id="path68" />
    <path
       style="fill:none;stroke:#70ad47;stroke-width:0.263457px;stroke-linecap:butt;stroke-linejoin:round;stroke-miterlimit:4;stroke-dasharray:none;stroke-opacity:1"
       d="m 63.933861,22.996877 c 0,0.529482 -0.399499,0.956483 -0.888955,0.956483 -0.492098,0 -0.888952,-0.427001 -0.888952,-0.956483 0,-0.526634 0.396854,-0.956481 0.888952,-0.956481 0.489456,0 0.888955,0.429847 0.888955,0.956481"
       id="path70" />
    <path
       style="fill:#70ad47;fill-opacity:1;fill-rule:nonzero;stroke:none;stroke-width:0.274449"
       d="m 53.478071,17.212435 c 0,0.529482 -0.3995,0.956483 -0.888954,0.956483 -0.492099,0 -0.888954,-0.427001 -0.888954,-0.956483 0,-0.526634 0.396855,-0.956483 0.888954,-0.956483 0.489454,0 0.888954,0.429849 0.888954,0.956483 z"
       id="path72" />
    <path
       style="fill:none;stroke:#70ad47;stroke-width:0.263457px;stroke-linecap:butt;stroke-linejoin:round;stroke-miterlimit:4;stroke-dasharray:none;stroke-opacity:1"
       d="m 53.478071,17.212435 c 0,0.529482 -0.3995,0.956483 -0.888954,0.956483 -0.492099,0 -0.888954,-0.427001 -0.888954,-0.956483 0,-0.526634 0.396855,-0.956483 0.888954,-0.956483 0.489454,0 0.888954,0.429849 0.888954,0.956483"
       id="path74" />
    <path
       style="fill:none;stroke:#ffc000;stroke-width:2.07989px;stroke-linecap:round;stroke-linejoin:round;stroke-miterlimit:4;stroke-dasharray:none;stroke-opacity:1"
       clip-path="url(#clipEmfPath1)"
       d="M 519.97299,105.59452 300.3044,104.47457 168.47125,98.874864 124.63353,93.75513 85.115579,71.836269"
       id="path76"
       transform="matrix(0.26458333,0,0,0.28468223,30.108639,-3.3149347)" />
    <path
       style="fill:#ffc000;fill-opacity:1;fill-rule:nonzero;stroke:none;stroke-width:0.274449"
       d="m 168.57907,26.734562 c 0,0.52948 -0.40214,0.956481 -0.88895,0.956481 -0.4921,0 -0.88895,-0.427001 -0.88895,-0.956481 0,-0.529483 0.39685,-0.956484 0.88895,-0.956484 0.48681,0 0.88895,0.427001 0.88895,0.956484 z"
       id="path78" />
    <path
       style="fill:none;stroke:#ffc000;stroke-width:0.263457px;stroke-linecap:butt;stroke-linejoin:round;stroke-miterlimit:4;stroke-dasharray:none;stroke-opacity:1"
       d="m 168.57907,26.734562 c 0,0.52948 -0.40214,0.956481 -0.88895,0.956481 -0.4921,0 -0.88895,-0.427001 -0.88895,-0.956481 0,-0.529483 0.39685,-0.956484 0.88895,-0.956484 0.48681,0 0.88895,0.427001 0.88895,0.956484"
       id="path80" />
    <path
       style="fill:#ffc000;fill-opacity:1;fill-rule:nonzero;stroke:none;stroke-width:0.274449"
       d="m 110.45578,26.412888 c 0,0.529481 -0.3995,0.956481 -0.88896,0.956481 -0.4921,0 -0.88895,-0.427 -0.88895,-0.956481 0,-0.526636 0.39685,-0.956484 0.88895,-0.956484 0.48946,0 0.88896,0.429848 0.88896,0.956484 z"
       id="path82" />
    <path
       style="fill:none;stroke:#ffc000;stroke-width:0.263457px;stroke-linecap:butt;stroke-linejoin:round;stroke-miterlimit:4;stroke-dasharray:none;stroke-opacity:1"
       d="m 110.45578,26.412888 c 0,0.529481 -0.3995,0.956481 -0.88896,0.956481 -0.4921,0 -0.88895,-0.427 -0.88895,-0.956481 0,-0.526636 0.39685,-0.956484 0.88895,-0.956484 0.48946,0 0.88896,0.429848 0.88896,0.956484"
       id="path84" />
    <path
       style="fill:#ffc000;fill-opacity:1;fill-rule:nonzero;stroke:none;stroke-width:0.274449"
       d="m 75.574922,24.81875 c 0,0.529481 -0.3995,0.956481 -0.888952,0.956481 -0.492099,0 -0.888955,-0.427 -0.888955,-0.956481 0,-0.526635 0.396856,-0.956483 0.888955,-0.956483 0.489452,0 0.888952,0.429848 0.888952,0.956483 z"
       id="path86" />
    <path
       style="fill:none;stroke:#ffc000;stroke-width:0.263457px;stroke-linecap:butt;stroke-linejoin:round;stroke-miterlimit:4;stroke-dasharray:none;stroke-opacity:1"
       d="m 75.574922,24.81875 c 0,0.529481 -0.3995,0.956481 -0.888952,0.956481 -0.492099,0 -0.888955,-0.427 -0.888955,-0.956481 0,-0.526635 0.396856,-0.956483 0.888955,-0.956483 0.489452,0 0.888952,0.429848 0.888952,0.956483"
       id="path88" />
    <path
       style="fill:#ffc000;fill-opacity:1;fill-rule:nonzero;stroke:none;stroke-width:0.274449"
       d="m 63.933861,23.406799 c 0,0.529481 -0.399499,0.956482 -0.888955,0.956482 -0.492098,0 -0.888952,-0.427001 -0.888952,-0.956482 0,-0.526635 0.396854,-0.956483 0.888952,-0.956483 0.489456,0 0.888955,0.429848 0.888955,0.956483 z"
       id="path90" />
    <path
       style="fill:none;stroke:#ffc000;stroke-width:0.263457px;stroke-linecap:butt;stroke-linejoin:round;stroke-miterlimit:4;stroke-dasharray:none;stroke-opacity:1"
       d="m 63.933861,23.406799 c 0,0.529481 -0.399499,0.956482 -0.888955,0.956482 -0.492098,0 -0.888952,-0.427001 -0.888952,-0.956482 0,-0.526635 0.396854,-0.956483 0.888952,-0.956483 0.489456,0 0.888955,0.429848 0.888955,0.956483"
       id="path92" />
    <path
       style="fill:#ffc000;fill-opacity:1;fill-rule:nonzero;stroke:none;stroke-width:0.274449"
       d="m 53.478071,17.121341 c 0,0.529481 -0.3995,0.956483 -0.888954,0.956483 -0.492099,0 -0.888954,-0.427002 -0.888954,-0.956483 0,-0.526635 0.396855,-0.956482 0.888954,-0.956482 0.489454,0 0.888954,0.429847 0.888954,0.956482 z"
       id="path94" />
    <path
       style="fill:none;stroke:#ffc000;stroke-width:0.263457px;stroke-linecap:butt;stroke-linejoin:round;stroke-miterlimit:4;stroke-dasharray:none;stroke-opacity:1"
       d="m 53.478071,17.121341 c 0,0.529481 -0.3995,0.956483 -0.888954,0.956483 -0.492099,0 -0.888954,-0.427002 -0.888954,-0.956483 0,-0.526635 0.396855,-0.956482 0.888954,-0.956482 0.489454,0 0.888954,0.429847 0.888954,0.956482"
       id="path96" />
    <path
       style="fill:none;stroke:#4472c4;stroke-width:2.07989px;stroke-linecap:round;stroke-linejoin:round;stroke-miterlimit:4;stroke-dasharray:none;stroke-opacity:1"
       clip-path="url(#clipEmfPath1)"
       d="M 519.97299,106.39447 300.3044,105.75451 168.47125,99.994806 124.63353,94.075114 85.115579,75.676069"
       id="path98"
       transform="matrix(0.26458333,0,0,0.28468223,30.108639,-3.3149347)" />
    <path
       style="fill:#4472c4;fill-opacity:1;fill-rule:nonzero;stroke:none;stroke-width:0.274449"
       d="m 168.57907,27.007843 c 0,0.52948 -0.40214,0.956481 -0.88895,0.956481 -0.4921,0 -0.88895,-0.427001 -0.88895,-0.956481 0,-0.529484 0.39685,-0.956485 0.88895,-0.956485 0.48681,0 0.88895,0.427001 0.88895,0.956485 z"
       id="path100" />
    <path
       style="fill:none;stroke:#4472c4;stroke-width:0.263457px;stroke-linecap:butt;stroke-linejoin:round;stroke-miterlimit:4;stroke-dasharray:none;stroke-opacity:1"
       d="m 168.57907,27.007843 c 0,0.52948 -0.40214,0.956481 -0.88895,0.956481 -0.4921,0 -0.88895,-0.427001 -0.88895,-0.956481 0,-0.529484 0.39685,-0.956485 0.88895,-0.956485 0.48681,0 0.88895,0.427001 0.88895,0.956485"
       id="path102" />
    <path
       style="fill:#4472c4;fill-opacity:1;fill-rule:nonzero;stroke:none;stroke-width:0.274449"
       d="m 110.45578,26.777262 c 0,0.52948 -0.3995,0.956484 -0.88896,0.956484 -0.4921,0 -0.88895,-0.427004 -0.88895,-0.956484 0,-0.526634 0.39685,-0.956484 0.88895,-0.956484 0.48946,0 0.88896,0.42985 0.88896,0.956484 z"
       id="path104" />
    <path
       style="fill:none;stroke:#4472c4;stroke-width:0.263457px;stroke-linecap:butt;stroke-linejoin:round;stroke-miterlimit:4;stroke-dasharray:none;stroke-opacity:1"
       d="m 110.45578,26.777262 c 0,0.52948 -0.3995,0.956484 -0.88896,0.956484 -0.4921,0 -0.88895,-0.427004 -0.88895,-0.956484 0,-0.526634 0.39685,-0.956484 0.88895,-0.956484 0.48946,0 0.88896,0.42985 0.88896,0.956484"
       id="path106" />
    <path
       style="fill:#4472c4;fill-opacity:1;fill-rule:nonzero;stroke:none;stroke-width:0.274449"
       d="m 75.574922,25.137577 c 0,0.529481 -0.3995,0.956481 -0.888952,0.956481 -0.492099,0 -0.888955,-0.427 -0.888955,-0.956481 0,-0.526635 0.396856,-0.956483 0.888955,-0.956483 0.489452,0 0.888952,0.429848 0.888952,0.956483 z"
       id="path108" />
    <path
       style="fill:none;stroke:#4472c4;stroke-width:0.263457px;stroke-linecap:butt;stroke-linejoin:round;stroke-miterlimit:4;stroke-dasharray:none;stroke-opacity:1"
       d="m 75.574922,25.137577 c 0,0.529481 -0.3995,0.956481 -0.888952,0.956481 -0.492099,0 -0.888955,-0.427 -0.888955,-0.956481 0,-0.526635 0.396856,-0.956483 0.888955,-0.956483 0.489452,0 0.888952,0.429848 0.888952,0.956483"
       id="path110" />
    <path
       style="fill:#4472c4;fill-opacity:1;fill-rule:nonzero;stroke:none;stroke-width:0.274449"
       d="m 63.933861,23.497893 c 0,0.529481 -0.399499,0.956482 -0.888955,0.956482 -0.492098,0 -0.888952,-0.427001 -0.888952,-0.956482 0,-0.526636 0.396854,-0.956483 0.888952,-0.956483 0.489456,0 0.888955,0.429847 0.888955,0.956483 z"
       id="path112" />
    <path
       style="fill:none;stroke:#4472c4;stroke-width:0.263457px;stroke-linecap:butt;stroke-linejoin:round;stroke-miterlimit:4;stroke-dasharray:none;stroke-opacity:1"
       d="m 63.933861,23.497893 c 0,0.529481 -0.399499,0.956482 -0.888955,0.956482 -0.492098,0 -0.888952,-0.427001 -0.888952,-0.956482 0,-0.526636 0.396854,-0.956483 0.888952,-0.956483 0.489456,0 0.888955,0.429847 0.888955,0.956483"
       id="path114" />
    <path
       style="fill:#4472c4;fill-opacity:1;fill-rule:nonzero;stroke:none;stroke-width:0.274449"
       d="m 53.478071,18.214464 c 0,0.529482 -0.3995,0.956483 -0.888954,0.956483 -0.492099,0 -0.888954,-0.427001 -0.888954,-0.956483 0,-0.526635 0.396855,-0.956481 0.888954,-0.956481 0.489454,0 0.888954,0.429846 0.888954,0.956481 z"
       id="path116" />
    <path
       style="fill:none;stroke:#4472c4;stroke-width:0.263457px;stroke-linecap:butt;stroke-linejoin:round;stroke-miterlimit:4;stroke-dasharray:none;stroke-opacity:1"
       d="m 53.478071,18.214464 c 0,0.529482 -0.3995,0.956483 -0.888954,0.956483 -0.492099,0 -0.888954,-0.427001 -0.888954,-0.956483 0,-0.526635 0.396855,-0.956481 0.888954,-0.956481 0.489454,0 0.888954,0.429846 0.888954,0.956481"
       id="path118" />
    <text
       xml:space="preserve"
       style="font-style:normal;font-variant:normal;font-weight:normal;font-stretch:normal;font-size:3.83113px;line-height:125%;font-family:'Times New Roman';-inkscape-font-specification:'Times New Roman, Normal';font-variant-ligatures:normal;font-variant-caps:normal;font-variant-numeric:normal;font-variant-east-asian:normal;text-align:start;letter-spacing:0px;word-spacing:0px;text-anchor:start;fill:#000000;fill-opacity:1;stroke:none;stroke-width:0.274449"
       x="42.649998"
       y="44.739773"
       id="text124"
       transform="scale(0.96405334,1.037287)"><tspan
         sodipodi:role="line"
         x="42.649998"
         y="44.739773"
         id="tspan122"
         style="font-style:normal;font-variant:normal;font-weight:normal;font-stretch:normal;font-size:3.83114px;font-family:'Times New Roman';-inkscape-font-specification:'Times New Roman, Normal';font-variant-ligatures:normal;font-variant-caps:normal;font-variant-numeric:normal;font-variant-east-asian:normal;stroke-width:0.274449"><tspan
           dx="0"
           dy="0"
           style="font-style:normal;font-variant:normal;font-weight:normal;font-stretch:normal;font-size:3.83114px;font-family:'Times New Roman';-inkscape-font-specification:'Times New Roman, Normal';font-variant-ligatures:normal;font-variant-caps:normal;font-variant-numeric:normal;font-variant-east-asian:normal;fill:#000000;stroke-width:0.274449"
           id="tspan120">1E-5</tspan></tspan></text>
    <text
       xml:space="preserve"
       style="font-style:normal;font-variant:normal;font-weight:normal;font-stretch:normal;font-size:3.83113px;line-height:125%;font-family:'Times New Roman';-inkscape-font-specification:'Times New Roman, Normal';font-variant-ligatures:normal;font-variant-caps:normal;font-variant-numeric:normal;font-variant-east-asian:normal;text-align:start;letter-spacing:0px;word-spacing:0px;text-anchor:start;fill:#000000;fill-opacity:1;stroke:none;stroke-width:0.274449"
       x="42.649998"
       y="27.627886"
       id="text130"
       transform="scale(0.96405334,1.037287)"><tspan
         sodipodi:role="line"
         x="42.649998"
         y="27.627886"
         id="tspan128"
         style="font-style:normal;font-variant:normal;font-weight:normal;font-stretch:normal;font-size:3.83114px;font-family:'Times New Roman';-inkscape-font-specification:'Times New Roman, Normal';font-variant-ligatures:normal;font-variant-caps:normal;font-variant-numeric:normal;font-variant-east-asian:normal;stroke-width:0.274449"><tspan
           dx="0"
           dy="0"
           style="font-style:normal;font-variant:normal;font-weight:normal;font-stretch:normal;font-size:3.83114px;font-family:'Times New Roman';-inkscape-font-specification:'Times New Roman, Normal';font-variant-ligatures:normal;font-variant-caps:normal;font-variant-numeric:normal;font-variant-east-asian:normal;fill:#000000;stroke-width:0.274449"
           id="tspan126">1E-4</tspan></tspan></text>
    <text
       xml:space="preserve"
       style="font-style:normal;font-variant:normal;font-weight:normal;font-stretch:normal;font-size:3.83113px;line-height:125%;font-family:'Times New Roman';-inkscape-font-specification:'Times New Roman, Normal';font-variant-ligatures:normal;font-variant-caps:normal;font-variant-numeric:normal;font-variant-east-asian:normal;text-align:start;letter-spacing:0px;word-spacing:0px;text-anchor:start;fill:#000000;fill-opacity:1;stroke:none;stroke-width:0.274449"
       x="42.649998"
       y="10.516016"
       id="text136"
       transform="scale(0.96405334,1.037287)"><tspan
         sodipodi:role="line"
         x="42.649998"
         y="10.516016"
         id="tspan134"
         style="font-style:normal;font-variant:normal;font-weight:normal;font-stretch:normal;font-size:3.83114px;font-family:'Times New Roman';-inkscape-font-specification:'Times New Roman, Normal';font-variant-ligatures:normal;font-variant-caps:normal;font-variant-numeric:normal;font-variant-east-asian:normal;stroke-width:0.274449"><tspan
           dx="0"
           dy="0"
           style="font-style:normal;font-variant:normal;font-weight:normal;font-stretch:normal;font-size:3.83114px;font-family:'Times New Roman';-inkscape-font-specification:'Times New Roman, Normal';font-variant-ligatures:normal;font-variant-caps:normal;font-variant-numeric:normal;font-variant-east-asian:normal;fill:#000000;stroke-width:0.274449"
           id="tspan132">1E-3</tspan></tspan></text>
    <text
       xml:space="preserve"
       style="font-style:normal;font-variant:normal;font-weight:normal;font-stretch:normal;font-size:3.83113px;line-height:125%;font-family:'Times New Roman';-inkscape-font-specification:'Times New Roman, Normal';font-variant-ligatures:normal;font-variant-caps:normal;font-variant-numeric:normal;font-variant-east-asian:normal;text-align:start;letter-spacing:0px;word-spacing:0px;text-anchor:start;fill:#000000;fill-opacity:1;stroke:none;stroke-width:0.274449"
       x="52.425716"
       y="49.252094"
       id="text142"
       transform="scale(0.96405334,1.037287)"><tspan
         sodipodi:role="line"
         x="52.425716"
         y="49.252094"
         id="tspan140"
         style="font-style:normal;font-variant:normal;font-weight:normal;font-stretch:normal;font-size:3.83114px;font-family:'Times New Roman';-inkscape-font-specification:'Times New Roman, Normal';font-variant-ligatures:normal;font-variant-caps:normal;font-variant-numeric:normal;font-variant-east-asian:normal;stroke-width:0.274449"><tspan
           dx="0"
           dy="0"
           style="font-style:normal;font-variant:normal;font-weight:normal;font-stretch:normal;font-size:3.83114px;font-family:'Times New Roman';-inkscape-font-specification:'Times New Roman, Normal';font-variant-ligatures:normal;font-variant-caps:normal;font-variant-numeric:normal;font-variant-east-asian:normal;fill:#000000;stroke-width:0.274449"
           id="tspan138">0</tspan></tspan></text>
    <text
       xml:space="preserve"
       style="font-style:normal;font-variant:normal;font-weight:normal;font-stretch:normal;font-size:3.83113px;line-height:125%;font-family:'Times New Roman';-inkscape-font-specification:'Times New Roman, Normal';font-variant-ligatures:normal;font-variant-caps:normal;font-variant-numeric:normal;font-variant-east-asian:normal;text-align:start;letter-spacing:0px;word-spacing:0px;text-anchor:start;fill:#000000;fill-opacity:1;stroke:none;stroke-width:0.274449"
       x="75.581429"
       y="49.252094"
       id="text148"
       transform="scale(0.96405334,1.037287)"><tspan
         sodipodi:role="line"
         x="75.581429"
         y="49.252094"
         id="tspan146"
         style="font-style:normal;font-variant:normal;font-weight:normal;font-stretch:normal;font-size:3.83114px;font-family:'Times New Roman';-inkscape-font-specification:'Times New Roman, Normal';font-variant-ligatures:normal;font-variant-caps:normal;font-variant-numeric:normal;font-variant-east-asian:normal;stroke-width:0.274449"><tspan
           dx="0"
           dy="0"
           style="font-style:normal;font-variant:normal;font-weight:normal;font-stretch:normal;font-size:3.83114px;font-family:'Times New Roman';-inkscape-font-specification:'Times New Roman, Normal';font-variant-ligatures:normal;font-variant-caps:normal;font-variant-numeric:normal;font-variant-east-asian:normal;fill:#000000;stroke-width:0.274449"
           id="tspan144">20</tspan></tspan></text>
    <text
       xml:space="preserve"
       style="font-style:normal;font-variant:normal;font-weight:normal;font-stretch:normal;font-size:3.83113px;line-height:125%;font-family:'Times New Roman';-inkscape-font-specification:'Times New Roman, Normal';font-variant-ligatures:normal;font-variant-caps:normal;font-variant-numeric:normal;font-variant-east-asian:normal;text-align:start;letter-spacing:0px;word-spacing:0px;text-anchor:start;fill:#000000;fill-opacity:1;stroke:none;stroke-width:0.274449"
       x="99.697708"
       y="49.252094"
       id="text154"
       transform="scale(0.96405334,1.037287)"><tspan
         sodipodi:role="line"
         x="99.697708"
         y="49.252094"
         id="tspan152"
         style="font-style:normal;font-variant:normal;font-weight:normal;font-stretch:normal;font-size:3.83114px;font-family:'Times New Roman';-inkscape-font-specification:'Times New Roman, Normal';font-variant-ligatures:normal;font-variant-caps:normal;font-variant-numeric:normal;font-variant-east-asian:normal;stroke-width:0.274449"><tspan
           dx="0"
           dy="0"
           style="font-style:normal;font-variant:normal;font-weight:normal;font-stretch:normal;font-size:3.83114px;font-family:'Times New Roman';-inkscape-font-specification:'Times New Roman, Normal';font-variant-ligatures:normal;font-variant-caps:normal;font-variant-numeric:normal;font-variant-east-asian:normal;fill:#000000;stroke-width:0.274449"
           id="tspan150">40</tspan></tspan></text>
    <text
       xml:space="preserve"
       style="font-style:normal;font-variant:normal;font-weight:normal;font-stretch:normal;font-size:3.83113px;line-height:125%;font-family:'Times New Roman';-inkscape-font-specification:'Times New Roman, Normal';font-variant-ligatures:normal;font-variant-caps:normal;font-variant-numeric:normal;font-variant-east-asian:normal;text-align:start;letter-spacing:0px;word-spacing:0px;text-anchor:start;fill:#000000;fill-opacity:1;stroke:none;stroke-width:0.274449"
       x="123.81396"
       y="49.252094"
       id="text160"
       transform="scale(0.96405334,1.037287)"><tspan
         sodipodi:role="line"
         x="123.81396"
         y="49.252094"
         id="tspan158"
         style="font-style:normal;font-variant:normal;font-weight:normal;font-stretch:normal;font-size:3.83114px;font-family:'Times New Roman';-inkscape-font-specification:'Times New Roman, Normal';font-variant-ligatures:normal;font-variant-caps:normal;font-variant-numeric:normal;font-variant-east-asian:normal;stroke-width:0.274449"><tspan
           dx="0"
           dy="0"
           style="font-style:normal;font-variant:normal;font-weight:normal;font-stretch:normal;font-size:3.83114px;font-family:'Times New Roman';-inkscape-font-specification:'Times New Roman, Normal';font-variant-ligatures:normal;font-variant-caps:normal;font-variant-numeric:normal;font-variant-east-asian:normal;fill:#000000;stroke-width:0.274449"
           id="tspan156">60</tspan></tspan></text>
    <text
       xml:space="preserve"
       style="font-style:normal;font-variant:normal;font-weight:normal;font-stretch:normal;font-size:3.83113px;line-height:125%;font-family:'Times New Roman';-inkscape-font-specification:'Times New Roman, Normal';font-variant-ligatures:normal;font-variant-caps:normal;font-variant-numeric:normal;font-variant-east-asian:normal;text-align:start;letter-spacing:0px;word-spacing:0px;text-anchor:start;fill:#000000;fill-opacity:1;stroke:none;stroke-width:0.274449"
       x="147.93024"
       y="49.252094"
       id="text166"
       transform="scale(0.96405334,1.037287)"><tspan
         sodipodi:role="line"
         x="147.93024"
         y="49.252094"
         id="tspan164"
         style="font-style:normal;font-variant:normal;font-weight:normal;font-stretch:normal;font-size:3.83114px;font-family:'Times New Roman';-inkscape-font-specification:'Times New Roman, Normal';font-variant-ligatures:normal;font-variant-caps:normal;font-variant-numeric:normal;font-variant-east-asian:normal;stroke-width:0.274449"><tspan
           dx="0"
           dy="0"
           style="font-style:normal;font-variant:normal;font-weight:normal;font-stretch:normal;font-size:3.83114px;font-family:'Times New Roman';-inkscape-font-specification:'Times New Roman, Normal';font-variant-ligatures:normal;font-variant-caps:normal;font-variant-numeric:normal;font-variant-east-asian:normal;fill:#000000;stroke-width:0.274449"
           id="tspan162">80</tspan></tspan></text>
    <text
       xml:space="preserve"
       style="font-style:normal;font-variant:normal;font-weight:normal;font-stretch:normal;font-size:3.83113px;line-height:125%;font-family:'Times New Roman';-inkscape-font-specification:'Times New Roman, Normal';font-variant-ligatures:normal;font-variant-caps:normal;font-variant-numeric:normal;font-variant-east-asian:normal;text-align:start;letter-spacing:0px;word-spacing:0px;text-anchor:start;fill:#000000;fill-opacity:1;stroke:none;stroke-width:0.274449"
       x="171.08597"
       y="49.252094"
       id="text172"
       transform="scale(0.96405334,1.037287)"><tspan
         sodipodi:role="line"
         x="171.08597"
         y="49.252094"
         id="tspan170"
         style="font-style:normal;font-variant:normal;font-weight:normal;font-stretch:normal;font-size:3.83114px;font-family:'Times New Roman';-inkscape-font-specification:'Times New Roman, Normal';font-variant-ligatures:normal;font-variant-caps:normal;font-variant-numeric:normal;font-variant-east-asian:normal;stroke-width:0.274449"><tspan
           dx="0"
           dy="0"
           style="font-style:normal;font-variant:normal;font-weight:normal;font-stretch:normal;font-size:3.83114px;font-family:'Times New Roman';-inkscape-font-specification:'Times New Roman, Normal';font-variant-ligatures:normal;font-variant-caps:normal;font-variant-numeric:normal;font-variant-east-asian:normal;fill:#000000;stroke-width:0.274449"
           id="tspan168">100</tspan></tspan></text>
    <text
       xml:space="preserve"
       style="font-style:normal;font-variant:normal;font-weight:normal;font-stretch:normal;font-size:3.83113px;line-height:125%;font-family:'Times New Roman';-inkscape-font-specification:'Times New Roman, Normal';font-variant-ligatures:normal;font-variant-caps:normal;font-variant-numeric:normal;font-variant-east-asian:normal;text-align:start;letter-spacing:0px;word-spacing:0px;text-anchor:start;fill:#000000;fill-opacity:1;stroke:none;stroke-width:0.274449"
       transform="matrix(0,-1.037287,0.96405334,0,0,0)"
       x="-32.693359"
       y="39.590118"
       id="text178"><tspan
         sodipodi:role="line"
         x="-32.693359"
         y="39.590118"
         id="tspan176"
         style="font-style:normal;font-variant:normal;font-weight:normal;font-stretch:normal;font-size:3.83114px;font-family:'Times New Roman';-inkscape-font-specification:'Times New Roman, Normal';font-variant-ligatures:normal;font-variant-caps:normal;font-variant-numeric:normal;font-variant-east-asian:normal;stroke-width:0.274449"><tspan
           dx="0"
           dy="0"
           style="font-style:normal;font-variant:normal;font-weight:normal;font-stretch:normal;font-size:3.83114px;font-family:'Times New Roman';-inkscape-font-specification:'Times New Roman, Normal';font-variant-ligatures:normal;font-variant-caps:normal;font-variant-numeric:normal;font-variant-east-asian:normal;fill:#000000;stroke-width:0.274449"
           id="tspan174">L</tspan></tspan></text>
    <text
       xml:space="preserve"
       style="font-style:normal;font-variant:normal;font-weight:normal;font-stretch:normal;font-size:3.83113px;line-height:125%;font-family:'Times New Roman';-inkscape-font-specification:'Times New Roman, Normal';font-variant-ligatures:normal;font-variant-caps:normal;font-variant-numeric:normal;font-variant-east-asian:normal;text-align:start;letter-spacing:0px;word-spacing:0px;text-anchor:start;fill:#000000;fill-opacity:1;stroke:none;stroke-width:0.274449"
       transform="matrix(0,-1.037287,0.96405334,0,0,0)"
       x="-30.410063"
       y="38.448467"
       id="text184"><tspan
         sodipodi:role="line"
         x="-30.410063"
         y="38.448467"
         id="tspan182"
         style="font-style:normal;font-variant:normal;font-weight:normal;font-stretch:normal;font-size:3.83114px;font-family:'Times New Roman';-inkscape-font-specification:'Times New Roman, Normal';font-variant-ligatures:normal;font-variant-caps:normal;font-variant-numeric:normal;font-variant-east-asian:normal;stroke-width:0.274449"><tspan
           dx="0"
           dy="0"
           style="font-style:normal;font-variant:normal;font-weight:normal;font-stretch:normal;font-size:3.83114px;font-family:'Times New Roman';-inkscape-font-specification:'Times New Roman, Normal';font-variant-ligatures:normal;font-variant-caps:normal;font-variant-numeric:normal;font-variant-east-asian:normal;fill:#000000;stroke-width:0.274449"
           id="tspan180">2</tspan></tspan></text>
    <text
       xml:space="preserve"
       style="font-style:normal;font-variant:normal;font-weight:normal;font-stretch:normal;font-size:3.83114px;line-height:125%;font-family:'Times New Roman';-inkscape-font-specification:'Times New Roman, Normal';font-variant-ligatures:normal;font-variant-caps:normal;font-variant-numeric:normal;font-variant-east-asian:normal;text-align:start;letter-spacing:0px;word-spacing:0px;text-anchor:start;fill:#000000;fill-opacity:1;stroke:none;stroke-width:0.274449"
       transform="matrix(0,-1.037287,0.96405334,0,0,0)"
       x="-28.12676"
       y="39.590118"
       id="text190"><tspan
         sodipodi:role="line"
         x="-28.12676"
         y="39.590118"
         id="tspan188"
         style="font-style:normal;font-variant:normal;font-weight:normal;font-stretch:normal;font-size:3.83114px;font-family:'Times New Roman';-inkscape-font-specification:'Times New Roman, Normal';font-variant-ligatures:normal;font-variant-caps:normal;font-variant-numeric:normal;font-variant-east-asian:normal;stroke-width:0.274449"><tspan
           dx="0 0"
           dy="0 0"
           style="font-style:normal;font-variant:normal;font-weight:normal;font-stretch:normal;font-size:3.83114px;font-family:'Times New Roman';-inkscape-font-specification:'Times New Roman, Normal';font-variant-ligatures:normal;font-variant-caps:normal;font-variant-numeric:normal;font-variant-east-asian:normal;fill:#000000;stroke-width:0.274449"
           id="tspan186"> Error</tspan></tspan></text>
    <text
       xml:space="preserve"
       style="font-style:normal;font-variant:normal;font-weight:normal;font-stretch:normal;font-size:3.83113px;line-height:125%;font-family:'Times New Roman';-inkscape-font-specification:'Times New Roman, Normal';font-variant-ligatures:normal;font-variant-caps:normal;font-variant-numeric:normal;font-variant-east-asian:normal;text-align:start;letter-spacing:0px;word-spacing:0px;text-anchor:start;fill:#000000;fill-opacity:1;stroke:none;stroke-width:0.274449"
       x="99.526108"
       y="54.779224"
       id="text196"
       transform="scale(0.96405334,1.037287)"><tspan
         sodipodi:role="line"
         x="99.526108"
         y="54.779224"
         id="tspan194"
         style="font-style:normal;font-variant:normal;font-weight:normal;font-stretch:normal;font-size:3.83114px;font-family:'Times New Roman';-inkscape-font-specification:'Times New Roman, Normal';font-variant-ligatures:normal;font-variant-caps:normal;font-variant-numeric:normal;font-variant-east-asian:normal;stroke-width:0.274449"><tspan
           dx="0"
           dy="0"
           style="font-style:normal;font-variant:normal;font-weight:normal;font-stretch:normal;font-size:3.83114px;font-family:'Times New Roman';-inkscape-font-specification:'Times New Roman, Normal';font-variant-ligatures:normal;font-variant-caps:normal;font-variant-numeric:normal;font-variant-east-asian:normal;fill:#000000;stroke-width:0.274449"
           id="tspan192">No. Of Resamples</tspan></tspan></text>
    <path
       style="fill:#5b9bd5;fill-opacity:1;fill-rule:nonzero;stroke:#5b9bd5;stroke-width:0.00274435px;stroke-linecap:butt;stroke-linejoin:round;stroke-miterlimit:4;stroke-dasharray:none;stroke-opacity:1"
       d="m 64.269864,8.5955523 h 1.650915 c 0.15345,0 0.275153,0.133794 0.275153,0.296053 0,0.165108 -0.121703,0.296054 -0.275153,0.296054 h -1.650915 c -0.150805,0 -0.275151,-0.130946 -0.275151,-0.296054 0,-0.162259 0.124346,-0.296053 0.275151,-0.296053 z m 3.852135,0 h 1.650912 c 0.153451,0 0.275154,0.133794 0.275154,0.296053 0,0.165108 -0.121703,0.296054 -0.275154,0.296054 h -1.650912 c -0.150805,0 -0.275154,-0.130946 -0.275154,-0.296054 0,-0.162259 0.124349,-0.296053 0.275154,-0.296053 z m 3.852132,0 h 1.185272 c 0.153451,0 0.275151,0.133794 0.275151,0.296053 0,0.165108 -0.1217,0.296054 -0.275151,0.296054 h -1.185272 c -0.150805,0 -0.275151,-0.130946 -0.275151,-0.296054 0,-0.162259 0.124346,-0.296053 0.275151,-0.296053 z"
       id="path204" />
    <text
       xml:space="preserve"
       style="font-style:normal;font-variant:normal;font-weight:normal;font-stretch:normal;font-size:3.83113px;line-height:125%;font-family:'Times New Roman';-inkscape-font-specification:'Times New Roman, Normal';font-variant-ligatures:normal;font-variant-caps:normal;font-variant-numeric:normal;font-variant-east-asian:normal;text-align:start;letter-spacing:0px;word-spacing:0px;text-anchor:start;fill:#000000;fill-opacity:1;stroke:none;stroke-width:0.274449"
       x="76.92984"
       y="9.8057423"
       id="text210"
       transform="scale(0.96405334,1.037287)"><tspan
         sodipodi:role="line"
         x="76.92984"
         y="9.8057423"
         id="tspan208"
         style="font-style:normal;font-variant:normal;font-weight:normal;font-stretch:normal;font-size:3.83114px;font-family:'Times New Roman';-inkscape-font-specification:'Times New Roman, Normal';font-variant-ligatures:normal;font-variant-caps:normal;font-variant-numeric:normal;font-variant-east-asian:normal;stroke-width:0.274449"><tspan
           dx="0"
           dy="0"
           style="font-style:normal;font-variant:normal;font-weight:normal;font-stretch:normal;font-size:3.83114px;font-family:'Times New Roman';-inkscape-font-specification:'Times New Roman, Normal';font-variant-ligatures:normal;font-variant-caps:normal;font-variant-numeric:normal;font-variant-east-asian:normal;fill:#000000;stroke-width:0.274449"
           id="tspan206">Fixed Random</tspan></tspan></text>
    <path
       style="fill:#ed7d31;fill-opacity:1;fill-rule:nonzero;stroke:#ed7d31;stroke-width:0.00274435px;stroke-linecap:butt;stroke-linejoin:round;stroke-miterlimit:4;stroke-dasharray:none;stroke-opacity:1"
       d="m 99.150721,8.5955523 h 1.650909 c 0.15345,0 0.27516,0.133794 0.27516,0.296053 0,0.165108 -0.12171,0.296054 -0.27516,0.296054 h -1.650909 c -0.150805,0 -0.275154,-0.130946 -0.275154,-0.296054 0,-0.162259 0.124349,-0.296053 0.275154,-0.296053 z m 3.852129,0 h 1.65092 c 0.15345,0 0.27515,0.133794 0.27515,0.296053 0,0.165108 -0.1217,0.296054 -0.27515,0.296054 h -1.65092 c -0.1508,0 -0.27515,-0.130946 -0.27515,-0.296054 0,-0.162259 0.12435,-0.296053 0.27515,-0.296053 z m 3.85213,0 h 1.18528 c 0.15345,0 0.27515,0.133794 0.27515,0.296053 0,0.165108 -0.1217,0.296054 -0.27515,0.296054 h -1.18528 c -0.1508,0 -0.27515,-0.130946 -0.27515,-0.296054 0,-0.162259 0.12435,-0.296053 0.27515,-0.296053 z"
       id="path212" />
    <text
       xml:space="preserve"
       style="font-style:normal;font-variant:normal;font-weight:normal;font-stretch:normal;font-size:3.83113px;line-height:125%;font-family:'Times New Roman';-inkscape-font-specification:'Times New Roman, Normal';font-variant-ligatures:normal;font-variant-caps:normal;font-variant-numeric:normal;font-variant-east-asian:normal;text-align:start;letter-spacing:0px;word-spacing:0px;text-anchor:start;fill:#000000;fill-opacity:1;stroke:none;stroke-width:0.274449"
       x="113.10887"
       y="9.8057423"
       id="text218"
       transform="scale(0.96405334,1.037287)"><tspan
         sodipodi:role="line"
         x="113.10887"
         y="9.8057423"
         id="tspan216"
         style="font-style:normal;font-variant:normal;font-weight:normal;font-stretch:normal;font-size:3.83114px;font-family:'Times New Roman';-inkscape-font-specification:'Times New Roman, Normal';font-variant-ligatures:normal;font-variant-caps:normal;font-variant-numeric:normal;font-variant-east-asian:normal;stroke-width:0.274449"><tspan
           dx="0"
           dy="0"
           style="font-style:normal;font-variant:normal;font-weight:normal;font-stretch:normal;font-size:3.83114px;font-family:'Times New Roman';-inkscape-font-specification:'Times New Roman, Normal';font-variant-ligatures:normal;font-variant-caps:normal;font-variant-numeric:normal;font-variant-east-asian:normal;fill:#000000;stroke-width:0.274449"
           id="tspan214">Fixed Ham</tspan></tspan></text>
    <path
       style="fill:none;stroke:#a5a5a5;stroke-width:0.570824px;stroke-linecap:round;stroke-linejoin:round;stroke-miterlimit:4;stroke-dasharray:none;stroke-opacity:1"
       d="m 134.03157,8.8916053 h 8.88953"
       id="path220" />
    <path
       style="fill:#a5a5a5;fill-opacity:1;fill-rule:nonzero;stroke:none;stroke-width:0.274449"
       d="m 139.34412,8.8688323 c 0,0.529482 -0.39685,0.956482 -0.88895,0.956482 -0.48681,0 -0.88895,-0.427 -0.88895,-0.956482 0,-0.523787 0.40214,-0.956482 0.88895,-0.956482 0.4921,0 0.88895,0.432695 0.88895,0.956482 z"
       id="path222" />
    <path
       style="fill:none;stroke:#a5a5a5;stroke-width:0.263457px;stroke-linecap:butt;stroke-linejoin:round;stroke-miterlimit:4;stroke-dasharray:none;stroke-opacity:1"
       d="m 139.34412,8.8688323 c 0,0.529482 -0.39685,0.956482 -0.88895,0.956482 -0.48681,0 -0.88895,-0.427 -0.88895,-0.956482 0,-0.523787 0.40214,-0.956482 0.88895,-0.956482 0.4921,0 0.88895,0.432695 0.88895,0.956482"
       id="path224" />
    <text
       xml:space="preserve"
       style="font-style:normal;font-variant:normal;font-weight:normal;font-stretch:normal;font-size:3.83113px;line-height:125%;font-family:'Times New Roman';-inkscape-font-specification:'Times New Roman, Normal';font-variant-ligatures:normal;font-variant-caps:normal;font-variant-numeric:normal;font-variant-east-asian:normal;text-align:start;letter-spacing:0px;word-spacing:0px;text-anchor:start;fill:#000000;fill-opacity:1;stroke:none;stroke-width:0.274449"
       x="149.2879"
       y="9.8057423"
       id="text230"
       transform="scale(0.96405334,1.037287)"><tspan
         sodipodi:role="line"
         x="149.2879"
         y="9.8057423"
         id="tspan228"
         style="font-style:normal;font-variant:normal;font-weight:normal;font-stretch:normal;font-size:3.83114px;font-family:'Times New Roman';-inkscape-font-specification:'Times New Roman, Normal';font-variant-ligatures:normal;font-variant-caps:normal;font-variant-numeric:normal;font-variant-east-asian:normal;stroke-width:0.274449"><tspan
           dx="0"
           dy="0"
           style="font-style:normal;font-variant:normal;font-weight:normal;font-stretch:normal;font-size:3.83114px;font-family:'Times New Roman';-inkscape-font-specification:'Times New Roman, Normal';font-variant-ligatures:normal;font-variant-caps:normal;font-variant-numeric:normal;font-variant-east-asian:normal;fill:#000000;stroke-width:0.274449"
           id="tspan226">PDE R</tspan></tspan></text>
    <path
       style="fill:none;stroke:#70ad47;stroke-width:0.570824px;stroke-linecap:round;stroke-linejoin:round;stroke-miterlimit:4;stroke-dasharray:none;stroke-opacity:1"
       d="m 64.269864,13.08191 h 8.889539"
       id="path232" />
    <path
       style="fill:#70ad47;fill-opacity:1;fill-rule:nonzero;stroke:none;stroke-width:0.274449"
       d="m 69.582422,13.059137 c 0,0.529481 -0.396854,0.956483 -0.888953,0.956483 -0.489455,0 -0.888955,-0.427002 -0.888955,-0.956483 0,-0.526635 0.3995,-0.956483 0.888955,-0.956483 0.492099,0 0.888953,0.429848 0.888953,0.956483 z"
       id="path234" />
    <path
       style="fill:none;stroke:#70ad47;stroke-width:0.263457px;stroke-linecap:butt;stroke-linejoin:round;stroke-miterlimit:4;stroke-dasharray:none;stroke-opacity:1"
       d="m 69.582422,13.059137 c 0,0.529481 -0.396854,0.956483 -0.888953,0.956483 -0.489455,0 -0.888955,-0.427002 -0.888955,-0.956483 0,-0.526635 0.3995,-0.956483 0.888955,-0.956483 0.492099,0 0.888953,0.429848 0.888953,0.956483"
       id="path236" />
    <text
       xml:space="preserve"
       style="font-style:normal;font-variant:normal;font-weight:normal;font-stretch:normal;font-size:3.83113px;line-height:125%;font-family:'Times New Roman';-inkscape-font-specification:'Times New Roman, Normal';font-variant-ligatures:normal;font-variant-caps:normal;font-variant-numeric:normal;font-variant-east-asian:normal;text-align:start;letter-spacing:0px;word-spacing:0px;text-anchor:start;fill:#000000;fill-opacity:1;stroke:none;stroke-width:0.274449"
       x="76.92984"
       y="13.840376"
       id="text242"
       transform="scale(0.96405334,1.037287)"><tspan
         sodipodi:role="line"
         x="76.92984"
         y="13.840376"
         id="tspan240"
         style="font-style:normal;font-variant:normal;font-weight:normal;font-stretch:normal;font-size:3.83114px;font-family:'Times New Roman';-inkscape-font-specification:'Times New Roman, Normal';font-variant-ligatures:normal;font-variant-caps:normal;font-variant-numeric:normal;font-variant-east-asian:normal;stroke-width:0.274449"><tspan
           dx="0"
           dy="0"
           style="font-style:normal;font-variant:normal;font-weight:normal;font-stretch:normal;font-size:3.83114px;font-family:'Times New Roman';-inkscape-font-specification:'Times New Roman, Normal';font-variant-ligatures:normal;font-variant-caps:normal;font-variant-numeric:normal;font-variant-east-asian:normal;fill:#000000;stroke-width:0.274449"
           id="tspan238">PDE H</tspan></tspan></text>
    <path
       style="fill:none;stroke:#ffc000;stroke-width:0.570824px;stroke-linecap:round;stroke-linejoin:round;stroke-miterlimit:4;stroke-dasharray:none;stroke-opacity:1"
       d="m 99.150721,13.08191 h 8.889539"
       id="path244" />
    <path
       style="fill:#ffc000;fill-opacity:1;fill-rule:nonzero;stroke:none;stroke-width:0.274449"
       d="m 104.46328,13.059137 c 0,0.529481 -0.39686,0.956483 -0.88896,0.956483 -0.48945,0 -0.88895,-0.427002 -0.88895,-0.956483 0,-0.526635 0.3995,-0.956483 0.88895,-0.956483 0.4921,0 0.88896,0.429848 0.88896,0.956483 z"
       id="path246" />
    <path
       style="fill:none;stroke:#ffc000;stroke-width:0.263457px;stroke-linecap:butt;stroke-linejoin:round;stroke-miterlimit:4;stroke-dasharray:none;stroke-opacity:1"
       d="m 104.46328,13.059137 c 0,0.529481 -0.39686,0.956483 -0.88896,0.956483 -0.48945,0 -0.88895,-0.427002 -0.88895,-0.956483 0,-0.526635 0.3995,-0.956483 0.88895,-0.956483 0.4921,0 0.88896,0.429848 0.88896,0.956483"
       id="path248" />
    <text
       xml:space="preserve"
       style="font-style:normal;font-variant:normal;font-weight:normal;font-stretch:normal;font-size:3.83113px;line-height:125%;font-family:'Times New Roman';-inkscape-font-specification:'Times New Roman, Normal';font-variant-ligatures:normal;font-variant-caps:normal;font-variant-numeric:normal;font-variant-east-asian:normal;text-align:start;letter-spacing:0px;word-spacing:0px;text-anchor:start;fill:#000000;fill-opacity:1;stroke:none;stroke-width:0.274449"
       x="113.10887"
       y="13.840376"
       id="text254"
       transform="scale(0.96405334,1.037287)"><tspan
         sodipodi:role="line"
         x="113.10887"
         y="13.840376"
         id="tspan252"
         style="font-style:normal;font-variant:normal;font-weight:normal;font-stretch:normal;font-size:3.83114px;font-family:'Times New Roman';-inkscape-font-specification:'Times New Roman, Normal';font-variant-ligatures:normal;font-variant-caps:normal;font-variant-numeric:normal;font-variant-east-asian:normal;stroke-width:0.274449"><tspan
           dx="0"
           dy="0"
           style="font-style:normal;font-variant:normal;font-weight:normal;font-stretch:normal;font-size:3.83114px;font-family:'Times New Roman';-inkscape-font-specification:'Times New Roman, Normal';font-variant-ligatures:normal;font-variant-caps:normal;font-variant-numeric:normal;font-variant-east-asian:normal;fill:#000000;stroke-width:0.274449"
           id="tspan250">Uxt</tspan></tspan></text>
    <path
       style="fill:none;stroke:#4472c4;stroke-width:0.570824px;stroke-linecap:round;stroke-linejoin:round;stroke-miterlimit:4;stroke-dasharray:none;stroke-opacity:1"
       d="m 134.03157,13.08191 h 8.88953"
       id="path256" />
    <path
       style="fill:#4472c4;fill-opacity:1;fill-rule:nonzero;stroke:none;stroke-width:0.274449"
       d="m 139.34412,13.059137 c 0,0.529481 -0.39685,0.956483 -0.88895,0.956483 -0.48681,0 -0.88895,-0.427002 -0.88895,-0.956483 0,-0.523788 0.40214,-0.956483 0.88895,-0.956483 0.4921,0 0.88895,0.432695 0.88895,0.956483 z"
       id="path258" />
    <path
       style="fill:none;stroke:#4472c4;stroke-width:0.263457px;stroke-linecap:butt;stroke-linejoin:round;stroke-miterlimit:4;stroke-dasharray:none;stroke-opacity:1"
       d="m 139.34412,13.059137 c 0,0.529481 -0.39685,0.956483 -0.88895,0.956483 -0.48681,0 -0.88895,-0.427002 -0.88895,-0.956483 0,-0.523788 0.40214,-0.956483 0.88895,-0.956483 0.4921,0 0.88895,0.432695 0.88895,0.956483"
       id="path260" />
    <text
       xml:space="preserve"
       style="font-style:normal;font-variant:normal;font-weight:normal;font-stretch:normal;font-size:3.83113px;line-height:125%;font-family:'Times New Roman';-inkscape-font-specification:'Times New Roman, Normal';font-variant-ligatures:normal;font-variant-caps:normal;font-variant-numeric:normal;font-variant-east-asian:normal;text-align:start;letter-spacing:0px;word-spacing:0px;text-anchor:start;fill:#000000;fill-opacity:1;stroke:none;stroke-width:0.274449"
       x="149.2879"
       y="13.840376"
       id="text266"
       transform="scale(0.96405334,1.037287)"><tspan
         sodipodi:role="line"
         x="149.2879"
         y="13.840376"
         id="tspan264"
         style="font-style:normal;font-variant:normal;font-weight:normal;font-stretch:normal;font-size:3.83114px;font-family:'Times New Roman';-inkscape-font-specification:'Times New Roman, Normal';font-variant-ligatures:normal;font-variant-caps:normal;font-variant-numeric:normal;font-variant-east-asian:normal;stroke-width:0.274449"><tspan
           dx="0"
           dy="0"
           style="font-style:normal;font-variant:normal;font-weight:normal;font-stretch:normal;font-size:3.83114px;font-family:'Times New Roman';-inkscape-font-specification:'Times New Roman, Normal';font-variant-ligatures:normal;font-variant-caps:normal;font-variant-numeric:normal;font-variant-east-asian:normal;fill:#000000;stroke-width:0.274449"
           id="tspan262">PDExt</tspan></tspan></text>
    <path
       style="fill:none;stroke:#000000;stroke-width:0.95995px;stroke-linecap:butt;stroke-linejoin:round;stroke-miterlimit:4;stroke-dasharray:none;stroke-opacity:1"
       clip-path="url(#clipEmfPath2)"
       d="M 0.8799543,0.8799543 H 564.0507 V 227.58818 H 0.8799543 Z"
       id="path268"
       transform="matrix(0.26458333,0,0,0.26458333,30.108639,0.99079334)" />
  </g>
</svg>
